<?xml version="1.0" standalone="no"?>
<!DOCTYPE svg PUBLIC "-//W3C//DTD SVG 1.1//EN" "http://www.w3.org/Graphics/SVG/1.1/DTD/svg11.dtd" >
<svg xmlns="http://www.w3.org/2000/svg">
<metadata></metadata>
<defs>
<font id="newjuneproultraboldregular" horiz-adv-x="1208" >
<font-face units-per-em="2048" ascent="1597" descent="-451" />
<missing-glyph horiz-adv-x="530" />
<glyph unicode="IJ" horiz-adv-x="1792" d="M76 0v1524h547v-1524h-547zM739 72l62 385q137 -45 223 -45q80 0 116 34t36 111v967h538v-1012q0 -248 -150 -380t-415 -132q-180 0 -410 72z" />
<glyph unicode="ij" horiz-adv-x="1155" d="M55 1389q0 89 62 141.5t170 52.5t168.5 -52.5t60.5 -141.5q0 -92 -60.5 -145.5t-168.5 -53.5t-170 54t-62 145zM74 0v1137h424v-1137h-424zM541 -74q63 1 89.5 26.5t26.5 78.5v1106h422v-1112q0 -396 -538 -396v297zM639 1389q0 89 61.5 141.5t169.5 52.5t169 -52.5 t61 -141.5q0 -92 -61 -145.5t-169 -53.5t-169.5 54t-61.5 145z" />
<glyph unicode="&#x27;n" horiz-adv-x="1206" d="M78 0v883q0 87 40.5 135.5t129.5 75.5q190 55 377 55q259 0 382 -106.5t123 -297.5v-745h-430v707q0 86 -86 86q-40 0 -98 -19v-774h-438zM111 1425l45 172h393l-76 -243q-20 -65 -62.5 -98t-125.5 -33q-105 0 -150 57.5t-24 144.5z" />
<glyph unicode="ff" horiz-adv-x="1732" d="M31 831v306h135v47q0 194 128.5 292.5t375.5 98.5q113 0 227 -14.5t167.5 -27t90.5 -24.5q113 58 272 58q160 0 326 -58l-47 -299q-103 35 -180 35q-69 0 -96 -19.5t-27 -78.5v-10h295v-306h-295v-831h-422v831h-393v-831h-422v831h-135zM588 1137h393v47q0 31 2 45 q-187 24 -231 24q-91 0 -127.5 -22.5t-36.5 -83.5v-10z" />
<glyph unicode="fi" horiz-adv-x="1482" d="M31 831v306h135v47q0 191 117 288t329 97q157 0 326 -58l-47 -299q-103 35 -180 35q-70 0 -96.5 -20t-26.5 -80v-10h819v-1137h-422v831h-397v-831h-422v831h-135zM967 1386q0 90 61 143.5t170 53.5q108 0 168.5 -53.5t60.5 -143.5t-60.5 -143t-168.5 -53q-109 0 -170 53 t-61 143z" />
<glyph unicode="fl" horiz-adv-x="1501" d="M31 831v306h135v47q0 192 125 291.5t352 99.5q179 0 340 -51l442 71v-1595h-444v1225q-114 28 -227 28q-92 0 -129 -22.5t-37 -83.5v-10h295v-306h-295v-831h-422v831h-135z" />
<glyph unicode="ffi" horiz-adv-x="2297" d="M31 831v306h135v47q0 194 128.5 292.5t375.5 98.5q268 0 483 -64q116 58 274 58q160 0 326 -58l-47 -299q-103 35 -180 35q-69 0 -96 -20.5t-27 -79.5v-10h819v-1137h-422v831h-397v-831h-422v831h-393v-831h-422v831h-135zM588 1137h393v47q0 31 2 45q-187 24 -231 24 q-91 0 -127.5 -22.5t-36.5 -83.5v-10zM1782 1386q0 90 61 143.5t170 53.5q108 0 169 -53.5t61 -143.5t-61 -143t-169 -53q-109 0 -170 53t-61 143z" />
<glyph unicode="&#xd;" horiz-adv-x="530" />
<glyph unicode=" "  horiz-adv-x="530" />
<glyph unicode="&#x09;" horiz-adv-x="530" />
<glyph unicode="&#xa0;" horiz-adv-x="530" />
<glyph unicode="!" horiz-adv-x="577" d="M57 176q0 90 62 143.5t170 53.5t168.5 -53.5t60.5 -143.5t-60.5 -143t-168.5 -53t-170 53t-62 143zM76 459v1065h424v-994z" />
<glyph unicode="&#x22;" horiz-adv-x="972" d="M74 1563h385l-33 -602h-315zM512 1563h385l-33 -602h-315z" />
<glyph unicode="#" d="M25 365l43 305h131l30 166h-131l45 303h144l73 385h336l-73 -385h102l74 385h336l-74 -385h125l-45 -303h-133l-29 -166h131l-45 -305h-143l-68 -365h-336l70 365h-109l-71 -365h-338l71 365h-116zM535 670h108l29 166h-107z" />
<glyph unicode="$" d="M53 1036q0 207 101.5 328t285.5 156v256h334v-252q141 -10 246 -43l139 -37l-65 -410l-138 45q-171 58 -348 58q-49 0 -73.5 -21.5t-24.5 -58.5q0 -61 86 -84l166 -39q401 -93 401 -445q0 -206 -104 -330t-285 -161v-262h-334v258q-146 10 -241 41l-140 39l66 409 l137 -43q174 -59 352 -59q44 0 69.5 21.5t25.5 58.5q0 63 -84 84l-168 39q-191 43 -297.5 155t-106.5 297z" />
<glyph unicode="%" horiz-adv-x="1681" d="M78 946v307q0 136 77 209.5t220 73.5q148 0 225.5 -72t77.5 -209v-307q0 -134 -76.5 -207t-220.5 -73q-147 0 -225 72t-78 206zM322 940q0 -78 57 -78q55 0 55 78v324q0 75 -55 75q-57 0 -57 -75v-324zM381 0l651 1524h271l-652 -1524h-270zM1004 268v305q0 137 77 211 t219 74q147 0 225.5 -73t78.5 -210v-305q0 -135 -76.5 -207.5t-220.5 -72.5q-148 0 -225.5 71.5t-77.5 206.5zM1247 262q0 -78 58 -78q55 0 55 78v324q0 76 -55 76q-58 0 -58 -76v-324z" />
<glyph unicode="&#x26;" horiz-adv-x="1593" d="M80 434q0 74 18 135t51.5 106t72.5 78t91 62q-110 137 -110 311q0 203 132 313.5t353 110.5q218 0 340.5 -102t122.5 -287q0 -69 -16.5 -127.5t-41.5 -100.5t-65 -79t-77 -61t-87 -50l187 -202q82 132 82 284v123h366v-125q0 -324 -199 -549l256 -274h-505l-54 57 q-180 -77 -385 -77q-130 0 -232 35t-167 96.5t-99 143.5t-34 179zM506 438q0 -65 40 -103t103 -38q59 0 115 18l-217 242q-41 -50 -41 -119zM590 1126q0 -77 63 -155q115 69 115 174q0 45 -23 71.5t-63 26.5q-45 0 -68.5 -30.5t-23.5 -86.5z" />
<glyph unicode="'" horiz-adv-x="577" d="M74 1563h430l-35 -602h-358z" />
<glyph unicode="(" horiz-adv-x="847" d="M82 696q0 149 22 270.5t58.5 206.5t90.5 149t111.5 101.5t128 61t134 31.5t135.5 8v-301q-33 -3 -60.5 -12t-65 -42t-62.5 -86t-43.5 -153t-18.5 -234q0 -103 9.5 -186.5t24.5 -138.5t37 -96t43 -63.5t48 -36t46 -17.5t42 -6v-304q-66 0 -126.5 8.5t-130.5 33t-129 63.5 t-114.5 105t-94 152.5t-62 210.5t-23.5 275z" />
<glyph unicode=")" horiz-adv-x="847" d="M84 -152v304q24 2 43 6t46 17.5t48 36t43.5 63.5t37.5 96t24.5 138.5t9.5 186.5q0 134 -18.5 234t-43.5 153t-63 86t-65.5 42t-61.5 12v301q72 0 135.5 -8t134 -31.5t128 -61t111.5 -101.5t90.5 -149t58.5 -206.5t22 -270.5q0 -151 -23.5 -275t-62 -210.5t-94 -152.5 t-114.5 -105t-129 -63.5t-130.5 -33t-126.5 -8.5z" />
<glyph unicode="*" d="M80 1073l108 344l236 -100l-21 244h400l-21 -246l236 98l108 -342l-274 -63l180 -209l-317 -207l-111 215l-115 -213l-313 207l178 209z" />
<glyph unicode="+" d="M80 449v311h340v377h358v-377h350v-311h-350v-375h-358v375h-340z" />
<glyph unicode="," horiz-adv-x="577" d="M37 -51l84 420h432l-133 -492q-38 -131 -203 -131q-112 0 -157.5 58t-22.5 145z" />
<glyph unicode="-" horiz-adv-x="911" d="M57 487v314h797v-314h-797z" />
<glyph unicode="." horiz-adv-x="577" d="M57 188q0 95 62 151t170 56t168.5 -56t60.5 -151q0 -96 -60.5 -152t-168.5 -56t-170 56t-62 152z" />
<glyph unicode="/" horiz-adv-x="923" d="M10 0l549 1524h354l-534 -1524h-369z" />
<glyph unicode="0" d="M63 485v547q0 245 138.5 376.5t398.5 131.5q264 0 404.5 -130t140.5 -374v-547q0 -245 -138 -376t-399 -131q-265 0 -405 129t-140 374zM510 469q0 -129 94 -129t94 129v584q0 129 -94 129t-94 -129v-584z" />
<glyph unicode="1" d="M49 0v340h363v825h-17q-47 0 -119.5 -17.5t-113.5 -47.5l-60 342q87 42 192 62t198 20h141q115 0 178 -60t63 -166v-958h293v-340h-1118z" />
<glyph unicode="2" d="M39 197q0 115 67 174l392 356q102 98 139 154t37 141q0 72 -45 113t-131 41q-61 0 -141 -17.5t-144 -42.5l-107 -37l-51 353l115 38q197 68 403 68q264 0 409.5 -121.5t145.5 -367.5q0 -137 -62 -258t-210 -263l-217 -194h489v-334h-897q-95 0 -143.5 53.5t-48.5 143.5z " />
<glyph unicode="3" d="M27 94l55 348l119 -41q70 -25 164.5 -43t164.5 -18q87 0 133 32t46 91q0 62 -41 108l-25 31h-311v322h297l22 24q37 43 37 101q0 127 -176 127q-62 0 -145 -17.5t-146 -42.5l-106 -37l-52 353l117 38q194 68 404 68q266 0 409.5 -103.5t143.5 -334.5q0 -155 -113 -291 l-29 -35l27 -26q73 -73 105 -147t32 -167q0 -227 -153.5 -337.5t-436.5 -110.5q-220 0 -424 69z" />
<glyph unicode="4" d="M10 418q0 84 56 176l442 782q90 164 289 164q139 0 207.5 -59.5t68.5 -184.5v-741h119v-334h-119v-221h-438v221h-432q-95 0 -144 53.5t-49 143.5zM483 555h152v297z" />
<glyph unicode="5" d="M53 92l58 346l114 -37q177 -61 320 -61q90 0 132 42.5t42 129.5q0 174 -174 174q-111 0 -309 -55l-111 -31v924h991v-363h-627v-164q108 27 193 27q487 0 487 -508q0 -267 -150.5 -398.5t-432.5 -131.5q-214 0 -412 67z" />
<glyph unicode="6" d="M55 522v529q0 231 161 358t421 127q191 0 383 -66l117 -38l-62 -353l-106 37q-64 23 -149 40.5t-148 17.5q-88 0 -128 -29t-40 -92v-54q47 16 132 23q29 2 56 2q243 0 361 -123t118 -371q0 -244 -148.5 -392t-418.5 -148q-261 0 -405 142.5t-144 389.5zM504 514 q0 -88 24.5 -129t81.5 -41q50 0 78.5 39.5t28.5 120.5q0 85 -27 128.5t-94 43.5q-54 -1 -92 -17v-145z" />
<glyph unicode="7" d="M63 1161v363h893q109 0 162 -54.5t53 -154.5q0 -78 -49 -205l-446 -1110h-496l494 1161h-611z" />
<glyph unicode="8" d="M41 436q0 92 31 166.5t102 145.5l29 26l-29 35q-100 121 -100 295q0 211 144.5 323.5t387.5 112.5q242 0 386.5 -112.5t144.5 -323.5q0 -173 -101 -295l-28 -35l28 -26q71 -71 102 -145.5t31 -166.5q0 -222 -147.5 -336t-413.5 -114q-267 0 -417 114.5t-150 335.5z M481 446q0 -56 33 -92.5t92 -36.5q58 0 92.5 35.5t34.5 93.5q0 64 -45 121l-26 31h-113l-27 -31q-41 -55 -41 -121zM492 1065q0 -56 45 -115l18 -26h102l19 26q47 62 47 115q0 58 -32 92.5t-85 34.5q-51 0 -82.5 -35t-31.5 -92z" />
<glyph unicode="9" d="M37 995q0 244 148 392.5t417 148.5q263 0 407 -142.5t144 -389.5v-529q0 -155 -76 -265.5t-206.5 -165t-301.5 -54.5q-192 0 -381 65l-116 39l61 352l107 -36q63 -25 148 -42t147 -16q89 0 129.5 29t40.5 92v53q2 1 -2 0q-1 0 -3 -1q-94 -23 -184 -23 q-244 0 -361.5 122.5t-117.5 370.5zM489 1024q0 -86 27.5 -130t95.5 -44q53 1 93 16v146q0 88 -25 129t-84 41q-50 0 -78.5 -39t-28.5 -119z" />
<glyph unicode=":" horiz-adv-x="577" d="M57 188q0 95 62 151t170 56t168.5 -56t60.5 -151q0 -96 -60.5 -152t-168.5 -56t-170 56t-62 152zM57 930q0 95 62 151t170 56t168.5 -56t60.5 -151q0 -96 -60.5 -152.5t-168.5 -56.5t-170 56.5t-62 152.5z" />
<glyph unicode=";" horiz-adv-x="577" d="M33 -51l84 420h432l-133 -492q-15 -62 -67 -96.5t-136 -34.5q-111 0 -155.5 57.5t-24.5 145.5zM55 930q0 95 61.5 151t170.5 56q106 0 167.5 -56t61.5 -151q0 -96 -61 -152.5t-168 -56.5q-109 0 -170.5 56.5t-61.5 152.5z" />
<glyph unicode="&#x3c;" d="M80 606q0 218 190 279l858 282v-417l-612 -144l612 -143v-408l-852 275q-196 59 -196 276z" />
<glyph unicode="=" d="M80 268v293h1048v-293h-1048zM80 662v292h1048v-292h-1048z" />
<glyph unicode="&#x3e;" d="M80 55v408l612 143l-612 144v417l858 -282q190 -61 190 -279q0 -217 -196 -276z" />
<glyph unicode="?" horiz-adv-x="974" d="M39 1450l113 31q165 47 321 47q218 0 340.5 -106t122.5 -292q0 -113 -43 -199.5t-127 -164.5l-119 -104v-132l-416 -71v141q0 76 17 127t69 100l132 127q67 64 67 138q0 88 -102 88q-67 0 -191 -31l-131 -39zM207 176q0 90 62 143.5t171 53.5q107 0 168.5 -53.5 t61.5 -143.5t-61.5 -143t-168.5 -53q-109 0 -171 53t-62 143z" />
<glyph unicode="@" horiz-adv-x="1910" d="M162 713q0 173 65 327t176.5 264t266.5 174t329 64q342 0 547 -190.5t205 -513.5q0 -115 -37 -210.5t-100 -158t-144 -97t-170 -34.5q-47 0 -102.5 12t-83.5 12q-31 0 -105.5 -15t-134.5 -15q-182 0 -271 93t-89 263q0 87 30.5 167t87 143t143.5 100t192 37q25 0 77 -4 l17 -1l6 41h285l-88 -626q20 -10 45 -10q79 0 132.5 81t53.5 224q0 221 -122.5 343t-373.5 122q-166 0 -298 -80t-203.5 -215t-71.5 -297q0 -227 124.5 -366.5t346.5 -139.5q70 0 215.5 37t222.5 37q86 0 150 -37l139 -82l-94 -193l-144 66q-28 12 -65 12 q-45 0 -106.5 -17.5t-144.5 -35t-181 -17.5q-226 0 -392.5 97.5t-250.5 262.5t-84 376zM815 684q0 -131 88 -131q46 0 78 14l49 344l-29 5q-18 2 -36 2q-72 0 -111 -66.5t-39 -167.5z" />
<glyph unicode="A" horiz-adv-x="1550" d="M8 0l416 1309q75 233 367 233q287 0 358 -231l391 -1311h-536l-50 207h-360l-51 -207h-535zM682 578h188l-92 428z" />
<glyph unicode="B" horiz-adv-x="1474" d="M76 225v1073q0 106 63 166t178 60h553q500 0 500 -418q0 -158 -110 -291l-29 -35l26 -24q158 -146 158 -330q0 -207 -135 -316.5t-406 -109.5h-557q-115 0 -178 59.5t-63 165.5zM602 360h182q54 0 82.5 26t28.5 71q0 41 -33 86l-43 45h-217v-228zM602 940h209l31 47 q26 46 26 86q0 42 -25.5 67t-76.5 25h-164v-225z" />
<glyph unicode="C" horiz-adv-x="1423" d="M57 764q0 248 96.5 424.5t265 263t392.5 86.5q233 0 440 -72l133 -41l-57 -415l-135 45q-137 47 -305 47q-273 0 -273 -338q0 -336 273 -336q175 0 305 47l135 43l57 -420l-133 -41q-204 -71 -446 -71q-168 0 -305 50.5t-236 147.5t-153 245t-54 335z" />
<glyph unicode="D" horiz-adv-x="1533" d="M76 225v1073q0 106 63 166t178 60h400q353 0 556.5 -203.5t203.5 -562.5q0 -358 -206 -558t-558 -200h-396q-115 0 -178 59.5t-63 165.5zM612 395h95q117 0 179 91.5t62 271.5t-66 277.5t-186 97.5h-84v-738z" />
<glyph unicode="E" horiz-adv-x="1314" d="M76 225v1073q0 106 63 166t178 60h934v-379h-639v-191h557v-362h-557v-213h643v-379h-938q-115 0 -178 59.5t-63 165.5z" />
<glyph unicode="F" horiz-adv-x="1296" d="M76 0v1298q0 106 63 166t178 60h918v-385h-621v-215h564v-365h-564v-559h-538z" />
<glyph unicode="G" horiz-adv-x="1558" d="M57 764q0 367 209.5 570.5t562.5 203.5q218 0 471 -74l140 -41l-64 -419l-141 45q-178 53 -342 53q-150 0 -229.5 -91.5t-79.5 -260.5q0 -193 75 -289t232 -96l88 4v161h-234v353h482q114 0 177.5 -60t63.5 -166v-387q0 -113 -125 -180q-181 -102 -526 -102 q-353 0 -556.5 204t-203.5 572z" />
<glyph unicode="H" horiz-adv-x="1501" d="M76 0v1524h538v-561h273v561h538v-1524h-538v582h-273v-582h-538z" />
<glyph unicode="I" horiz-adv-x="698" d="M76 0v1524h547v-1524h-547z" />
<glyph unicode="J" horiz-adv-x="1093" d="M41 72l61 385q137 -45 224 -45q80 0 115.5 33.5t35.5 111.5v967h539v-1012q0 -248 -150 -380t-415 -132q-180 0 -410 72z" />
<glyph unicode="K" horiz-adv-x="1529" d="M76 0v1524h528v-471l324 471h585l-397 -531l377 -993h-569l-195 563l-47 -65q-41 -51 -59.5 -96.5t-18.5 -120.5v-281h-528z" />
<glyph unicode="L" horiz-adv-x="1273" d="M76 225v1299h542v-1102h596v-422h-897q-115 0 -178 59.5t-63 165.5z" />
<glyph unicode="M" horiz-adv-x="1935" d="M76 0v1221q0 151 105 234t290 83q187 0 285 -73.5t127 -211.5l88 -440l98 440q64 285 420 285q175 0 273 -80.5t98 -228.5v-1229h-478v864l-163 -698q-43 -178 -263 -178q-222 0 -262 178l-159 698v-864h-459z" />
<glyph unicode="N" horiz-adv-x="1579" d="M76 0v1219q0 153 100 236t283 83q72 0 129 -14.5t95.5 -38.5t71 -64.5t53.5 -80.5t44 -99l192 -514v797h459v-1219q0 -155 -99.5 -237t-283.5 -82q-72 0 -128.5 15t-95 38t-71 64t-53.5 80.5t-45 99.5l-192 512v-795h-459z" />
<glyph unicode="O" horiz-adv-x="1681" d="M57 760q0 243 99 419.5t276 266.5t412 90q359 0 569.5 -204.5t210.5 -571.5q0 -185 -57 -331.5t-160.5 -243.5t-248.5 -148t-322 -51q-358 0 -568.5 204t-210.5 570zM598 760q0 -195 62.5 -299.5t183.5 -104.5q116 0 175.5 103.5t59.5 300.5q0 194 -62 299.5t-181 105.5 q-117 0 -177.5 -105.5t-60.5 -299.5z" />
<glyph unicode="P" horiz-adv-x="1409" d="M76 0v1298q0 106 63 166t178 60h482q256 0 403.5 -139t147.5 -379q0 -241 -152.5 -381t-415.5 -140h-178v-485h-528zM604 862h121q64 0 101.5 38.5t37.5 105.5q0 66 -37.5 104.5t-99.5 38.5h-123v-287z" />
<glyph unicode="Q" horiz-adv-x="1681" d="M57 758q0 243 98.5 420t275 267.5t411.5 90.5q360 0 567 -201.5t207 -566.5q0 -195 -79.5 -339.5t-197.5 -219.5q99 -29 205 -29h66v-368h-113q-88 0 -165.5 19.5t-134.5 47t-110 55t-115.5 47t-127.5 19.5q-171 0 -313 46.5t-248.5 138t-166 238t-59.5 335.5zM598 760 q0 -195 63 -300.5t183 -105.5q116 0 175.5 104.5t59.5 301.5q0 194 -62 299.5t-181 105.5q-117 0 -177.5 -105.5t-60.5 -299.5z" />
<glyph unicode="R" horiz-adv-x="1499" d="M76 0v1298q0 106 63 166t178 60h566q251 0 392.5 -125t141.5 -350q0 -96 -40.5 -188.5t-106.5 -164.5l-49 -55l260 -641h-563l-175 494h-131v-494h-536zM612 860h209l39 51q45 59 45 119q0 125 -131 125h-162v-295z" />
<glyph unicode="S" horiz-adv-x="1374" d="M57 102l74 430l158 -57q233 -86 418 -86q108 0 108 76q0 32 -23 50.5t-71 29.5l-234 43q-217 42 -322.5 147.5t-105.5 298.5q0 248 161.5 375t445.5 127q266 0 493 -70l158 -51l-78 -436l-158 61q-229 88 -411 88q-109 0 -109 -75q0 -66 94 -80l232 -43 q216 -41 322 -144.5t106 -296.5q0 -165 -78.5 -280.5t-213 -171t-314.5 -55.5q-142 0 -255 13.5t-237 53.5z" />
<glyph unicode="T" horiz-adv-x="1425" d="M61 1130v394h1303v-394h-381v-1130h-539v1130h-383z" />
<glyph unicode="U" horiz-adv-x="1511" d="M66 578v946h542v-944q0 -168 146 -168q151 0 151 168v944h541v-946q0 -288 -178 -445.5t-516 -157.5q-335 0 -510.5 156.5t-175.5 446.5z" />
<glyph unicode="V" horiz-adv-x="1521" d="M8 1524h539l209 -955l223 955h534l-411 -1317q-37 -108 -128 -164.5t-229 -56.5q-135 0 -224 56.5t-124 164.5z" />
<glyph unicode="W" horiz-adv-x="2091" d="M8 1524h516l101 -953l172 789q17 80 86 122t174 42q101 0 169 -42t85 -122l168 -787l100 951h506l-248 -1303q-25 -116 -108.5 -178.5t-223.5 -62.5q-292 0 -350 223l-108 504l-115 -504q-58 -223 -346 -223q-281 0 -334 239z" />
<glyph unicode="X" horiz-adv-x="1585" d="M16 0l449 766l-436 758h577l187 -400l178 400h575l-420 -746l443 -778h-578l-200 426l-205 -426h-570z" />
<glyph unicode="Y" horiz-adv-x="1607" d="M10 1524h578l223 -473l213 473h573l-524 -924v-600h-538v598z" />
<glyph unicode="Z" horiz-adv-x="1417" d="M47 229q0 105 78 207l561 705h-586v383h1035q112 0 168.5 -62.5t56.5 -167.5q0 -106 -78 -207l-555 -704h614v-383h-1069q-111 0 -168 62.5t-57 166.5z" />
<glyph unicode="[" horiz-adv-x="847" d="M143 -133v1657h619v-301h-232v-1055h232v-301h-619z" />
<glyph unicode="\" horiz-adv-x="923" d="M10 1524h355l548 -1524h-370z" />
<glyph unicode="]" horiz-adv-x="847" d="M84 -133v301h231v1055h-231v301h621v-1657h-621z" />
<glyph unicode="^" d="M49 88l273 850q62 197 278 197q217 0 279 -191l280 -856h-416l-143 612l-145 -612h-406z" />
<glyph unicode="_" horiz-adv-x="1024" d="M-4 -123h1032v-262h-1032v262z" />
<glyph unicode="`" horiz-adv-x="1112" d="M168 1563h524l137 -121q58 -53 58 -121q0 -49 -36 -84t-103 -35q-95 0 -181 66z" />
<glyph unicode="a" horiz-adv-x="1253" d="M59 342q0 369 519 369h139v14q0 53 -32 73.5t-95 20.5q-62 0 -153 -14.5t-167 -40.5l-131 -45l-47 317l133 43q229 72 422 72q477 0 477 -401v-449l111 -70l-156 -264l-102 51q-42 25 -100 25q-33 0 -72 -8l-45 -8q-178 -39 -277 -39q-198 0 -311 94t-113 260zM477 354 q0 -40 26.5 -60t69.5 -20q41 0 101 17l47 14v137h-127q-117 0 -117 -88z" />
<glyph unicode="b" horiz-adv-x="1236" d="M78 252v1268l432 75v-479q88 27 174 27q259 0 377.5 -143t118.5 -425q0 -274 -152.5 -430.5t-421.5 -156.5q-216 0 -370 55q-89 31 -123.5 77.5t-34.5 131.5zM510 322q50 -9 80 -9q166 0 166 252q0 132 -36.5 189t-115.5 57q-44 0 -94 -18v-471z" />
<glyph unicode="c" horiz-adv-x="1099" d="M59 567q0 280 154 431t410 151q176 0 327 -53l99 -31l-43 -338l-91 29q-128 47 -237 47q-180 0 -180 -236q0 -237 180 -237q109 0 237 47l91 29l43 -336l-99 -31q-151 -53 -327 -53q-168 0 -294 65.5t-198 198t-72 317.5z" />
<glyph unicode="d" horiz-adv-x="1236" d="M59 561q0 280 126.5 431t381.5 151q37 0 77.5 -6.5t62.5 -13.5l22 -7v404l432 75v-1343q0 -85 -35 -131.5t-122 -77.5q-154 -55 -371 -55q-269 0 -421.5 151t-152.5 422zM481 565q0 -252 168 -252q27 0 80 9v471q-53 18 -94 18q-79 0 -116.5 -57.5t-37.5 -188.5z" />
<glyph unicode="e" horiz-adv-x="1200" d="M59 565q0 145 44.5 259t122 184.5t177 106.5t215.5 36q254 0 393.5 -139t139.5 -418q0 -79 -36.5 -113.5t-119.5 -34.5h-522q27 -133 211 -133q161 0 303 43l107 33l43 -301l-109 -35q-205 -65 -381 -65q-275 0 -431.5 148t-156.5 429zM471 707h268q0 68 -33.5 109.5 t-101.5 41.5q-59 0 -93 -39.5t-40 -111.5z" />
<glyph unicode="f" horiz-adv-x="917" d="M31 831v306h135v47q0 191 117 287t329 96q157 0 326 -58l-47 -299q-103 35 -180 35q-70 0 -96.5 -19.5t-26.5 -78.5v-10h295v-306h-295v-831h-422v831h-135z" />
<glyph unicode="g" horiz-adv-x="1265" d="M59 758q0 188 139.5 278t387.5 90h104q97 0 193 29l295 86l69 -297l-155 -41q5 -6 12.5 -16.5t20 -48t12.5 -80.5q0 -171 -134.5 -256.5t-375.5 -85.5l-60 4q-1 0 0.5 -5.5t3.5 -17t2 -22.5q0 -16 -4 -30t-8 -20l-4 -6h246q420 0 420 -311q0 -178 -150.5 -274t-437.5 -96 q-178 0 -304 35t-198 113t-72 196q0 116 76 213l82 108q35 46 35 92q0 30 -11.5 51t-39.5 43q-27 22 -46.5 42t-45 53.5t-39 78t-13.5 95.5zM440 -12q0 -50 45 -69t152 -19q213 0 213 90q0 61 -84 61h-313q1 0 0 -2.5t-3 -9t-4.5 -13.5t-4 -17.5t-1.5 -20.5zM459 760 q0 -105 137 -105q63 0 101 26.5t38 78.5q0 98 -139 98q-137 0 -137 -98z" />
<glyph unicode="h" d="M78 0v1520l438 75v-479q84 27 182 27q122 0 208.5 -29.5t134 -86t68.5 -126.5t21 -162v-739h-430v700q0 41 -18.5 63.5t-67.5 22.5q-45 0 -98 -18v-768h-438z" />
<glyph unicode="i" horiz-adv-x="573" d="M55 1389q0 89 62 141.5t170 52.5t168.5 -52.5t60.5 -141.5q0 -92 -60.5 -145.5t-168.5 -53.5t-170 54t-62 145zM74 0v1137h424v-1137h-424z" />
<glyph unicode="j" horiz-adv-x="581" d="M-33 -74q63 1 90 27t27 78v1106h422v-1112q0 -396 -539 -396v297zM66 1389q0 89 61.5 141.5t169.5 52.5t168.5 -52.5t60.5 -141.5q0 -92 -60.5 -145.5t-168.5 -53.5t-169.5 54t-61.5 145z" />
<glyph unicode="k" horiz-adv-x="1243" d="M78 0v1520l428 75v-786l227 328h502l-287 -373l287 -764h-487l-134 395l-45 -63q-33 -44 -48 -82t-15 -100v-150h-428z" />
<glyph unicode="l" horiz-adv-x="595" d="M78 0v1520l442 75v-1595h-442z" />
<glyph unicode="m" horiz-adv-x="1802" d="M78 0v883q0 87 40.5 135.5t129.5 75.5q196 55 368 55q211 0 318 -70q159 70 330 70q460 0 460 -406v-743h-424v705q0 42 -18.5 65t-64.5 23q-69 -1 -109 -21q5 -15 6 -53v-719h-426v705q0 88 -84 88q-35 0 -96 -19v-774h-430z" />
<glyph unicode="n" horiz-adv-x="1206" d="M78 0v883q0 87 40.5 135.5t129.5 75.5q190 55 377 55q259 0 382 -106.5t123 -297.5v-745h-430v707q0 86 -86 86q-40 0 -98 -19v-774h-438z" />
<glyph unicode="o" horiz-adv-x="1280" d="M59 567q0 277 156.5 429.5t427.5 152.5q273 0 425.5 -152t152.5 -430q0 -276 -155.5 -427.5t-426.5 -151.5q-275 0 -427.5 151.5t-152.5 427.5zM498 567q0 -145 35 -212.5t110 -67.5q74 0 108.5 68.5t34.5 211.5t-36 212t-111 69t-108 -69.5t-33 -211.5z" />
<glyph unicode="p" horiz-adv-x="1236" d="M78 -381v1266q0 85 34.5 131.5t123.5 77.5q158 55 370 55q270 0 422 -151.5t152 -424.5q0 -279 -127 -429t-381 -150q-38 0 -78.5 6.5t-61.5 13.5l-22 6v-327zM510 344q50 -18 94 -18q79 0 115.5 56.5t36.5 186.5q0 128 -41 189t-125 61q-36 0 -80 -8v-467z" />
<glyph unicode="q" horiz-adv-x="1236" d="M59 561q0 275 152 431.5t422 156.5q209 0 371 -55q87 -31 122 -77.5t35 -131.5v-1198l-432 -74v407q-90 -26 -174 -26q-259 0 -377.5 143t-118.5 424zM481 569q0 -130 37.5 -186.5t116.5 -56.5q41 0 94 18v467q-44 8 -80 8q-168 0 -168 -250z" />
<glyph unicode="r" horiz-adv-x="849" d="M78 0v874q0 89 41 138.5t129 74.5q207 58 559 58v-334q-191 0 -307 -33v-778h-422z" />
<glyph unicode="s" horiz-adv-x="1130" d="M57 86l56 324l129 -45q201 -74 333 -74q89 0 89 57q0 54 -76 60l-189 28q-172 25 -256 105.5t-84 228.5q0 185 131 282t355 97q216 0 401 -59l127 -41l-53 -322l-131 45q-208 74 -334 74q-88 0 -88 -60q0 -51 76 -57l188 -29q173 -25 257.5 -103.5t84.5 -225.5 q0 -185 -131.5 -284t-355.5 -99q-217 0 -402 59z" />
<glyph unicode="t" horiz-adv-x="958" d="M18 831v306h138v196l422 74v-270h299v-306h-299v-411q0 -60 27.5 -85.5t94.5 -25.5q75 0 172 33l48 -299q-160 -55 -318 -55q-210 0 -328 101.5t-118 293.5v448h-138z" />
<glyph unicode="u" horiz-adv-x="1206" d="M78 391v746h430v-707q0 -42 18 -64t66 -22q45 0 100 18v775h438v-883q0 -87 -41.5 -135.5t-130.5 -75.5q-180 -55 -376 -55q-258 0 -381 105.5t-123 297.5z" />
<glyph unicode="v" horiz-adv-x="1232" d="M8 1137h461l145 -660l154 660h457l-314 -971q-66 -191 -305 -191q-238 0 -301 191z" />
<glyph unicode="w" horiz-adv-x="1740" d="M16 1137h445l80 -650l116 514q15 69 74.5 105.5t149.5 36.5q88 0 147 -36.5t74 -105.5l110 -514l80 650h432l-200 -957q-46 -205 -289 -205q-249 0 -299 191l-64 276l-67 -276q-50 -191 -297 -191q-243 0 -289 205z" />
<glyph unicode="x" horiz-adv-x="1280" d="M18 0l338 569l-333 568h493l123 -260l115 260h491l-321 -557l338 -580h-494l-131 276l-133 -276h-486z" />
<glyph unicode="y" horiz-adv-x="1255" d="M18 1137h476l157 -600l142 600h444l-389 -1178q-104 -334 -457 -334q-145 0 -309 53l51 299q101 -36 193 -36q52 0 81 23t37 59l5 22z" />
<glyph unicode="z" horiz-adv-x="1165" d="M59 197q0 102 68 176l410 456h-459v308h835q95 0 144 -54t49 -143q0 -95 -68 -176l-405 -457h463v-307h-844q-95 0 -144 53.5t-49 143.5z" />
<glyph unicode="{" horiz-adv-x="847" d="M80 569v248q115 0 162 25.5t47 70.5q0 39 -25.5 90t-51.5 112t-26 126q0 134 93.5 208.5t279.5 74.5h205v-301h-96q-103 0 -103 -93q0 -44 45 -129t45 -143q0 -115 -112 -166q112 -51 112 -164q0 -58 -45 -146.5t-45 -133.5q0 -43 24 -63.5t79 -20.5h96v-301h-205 q-186 0 -279.5 74t-93.5 208q0 65 26 126t51.5 112t25.5 90q0 45 -47 70.5t-162 25.5z" />
<glyph unicode="|" horiz-adv-x="655" d="M121 -369v1932h414v-1932h-414z" />
<glyph unicode="}" horiz-adv-x="847" d="M84 -137v301h96q55 0 79 20.5t24 63.5q0 39 -23 86t-46.5 97t-23.5 97q0 114 115 164q-49 22 -82 63t-33 103q0 47 23.5 95.5t46.5 93.5t23 83q0 93 -103 93h-96v301h205q188 0 280.5 -74t92.5 -209q0 -65 -26 -126t-51.5 -112t-25.5 -90q0 -45 47 -70.5t162 -25.5v-248 q-115 0 -162 -25.5t-47 -70.5q0 -39 25.5 -90t51.5 -112t26 -126q0 -135 -92.5 -208.5t-280.5 -73.5h-205z" />
<glyph unicode="~" d="M20 543q64 171 172 250t240 79q123 0 223 -69l56 -37q49 -35 98 -35q41 0 74.5 34.5t68.5 108.5l238 -153q-66 -173 -173.5 -252.5t-240.5 -79.5q-122 0 -223 70l-55 37q-47 34 -99 34q-42 0 -75 -33t-66 -106z" />
<glyph unicode="&#xa1;" horiz-adv-x="577" d="M57 965q0 90 61.5 143t168.5 53q109 0 170 -53t61 -143t-61 -143.5t-170 -53.5q-107 0 -168.5 53.5t-61.5 143.5zM78 -381v991l424 72v-1063h-424z" />
<glyph unicode="&#xa2;" d="M96 567q0 227 102 370.5t283 188.5v275h334v-268q103 -13 172 -37l100 -31l-45 -338l-90 31q-133 45 -237 45q-180 0 -180 -236q0 -237 180 -237q109 0 237 47l90 29l45 -336l-100 -31q-75 -28 -172 -41v-268h-334v276q-181 47 -283 191t-102 370z" />
<glyph unicode="&#xa3;" d="M47 158q0 161 156 161q64 0 101.5 34t37.5 93q0 34 -12 74h-246v250h111q-101 165 -101 299q0 156 68.5 262.5t188.5 156.5t286 50q203 0 389 -63l117 -39l-53 -353l-107 39q-149 54 -276 54q-166 0 -166 -152q0 -23 3 -47.5t13 -58t13.5 -46.5t19 -56.5t16.5 -45.5h248 v-250h-172q8 -54 8 -71q0 -76 -18 -125h80q41 0 76.5 35t35.5 102h316q0 -230 -102.5 -345.5t-321.5 -115.5h-553q-156 0 -156 158z" />
<glyph unicode="&#xa4;" horiz-adv-x="1024" d="M41 178l102 111q-96 110 -96 284q0 180 98 283l-104 111l86 86l104 -103q111 97 279 97q170 0 278 -97l107 103l86 -86l-104 -111q96 -110 96 -283q0 -177 -96 -284l104 -111l-86 -84l-107 103q-111 -97 -278 -97q-171 0 -279 97l-104 -103zM182 573q0 -138 95 -237.5 t233 -99.5t233 99.5t95 237.5q0 137 -96 237.5t-232 100.5q-138 0 -233 -100t-95 -238z" />
<glyph unicode="&#xa5;" d="M2 1524h492l116 -547l105 547h485l-237 -582h194v-252h-297v-100h297v-252h-297v-338h-516v338h-291v252h291v100h-291v252h189z" />
<glyph unicode="&#xa6;" horiz-adv-x="655" d="M121 -369v770h414v-770h-414zM121 795v770h414v-770h-414z" />
<glyph unicode="&#xa7;" d="M51 621v430q0 155 75 265.5t204 165t299 54.5q187 0 379 -66l116 -38l-61 -353l-105 37q-66 24 -149.5 41t-144.5 17q-88 0 -129 -29t-41 -92v-54q42 14 125 22q33 3 65 3q242 0 357.5 -123t115.5 -371v-430q0 -232 -158 -358.5t-417 -126.5q-189 0 -381 66l-117 38 l61 353l105 -37q65 -25 150 -42t147 -16q88 0 129 29t41 92v54h-1q-95 -25 -190 -25q-243 0 -359 123t-116 371zM494 614q0 -82 30 -121.5t99 -39.5q55 1 94 16v66q0 82 -30 122.5t-99 40.5q-46 0 -94 -16v-68z" />
<glyph unicode="&#xa8;" horiz-adv-x="1177" d="M141 1391q0 90 56 141t157 51q98 0 153.5 -51.5t55.5 -140.5q0 -90 -55.5 -142.5t-153.5 -52.5q-100 0 -156.5 52.5t-56.5 142.5zM612 1391q0 90 56 141t155 51q98 0 154.5 -51.5t56.5 -140.5q0 -90 -56.5 -142.5t-154.5 -52.5q-99 0 -155 52.5t-56 142.5z" />
<glyph unicode="&#xa9;" horiz-adv-x="1910" d="M152 752q0 172 63.5 322t171.5 253.5t255.5 163t311.5 59.5q163 0 309.5 -58.5t255 -161.5t172.5 -253.5t64 -324.5q0 -171 -64 -321t-172 -255.5t-255.5 -166t-309.5 -60.5q-164 0 -311.5 60.5t-255.5 166t-171.5 255.5t-63.5 321zM424 752q0 -249 148.5 -402 t381.5 -153q230 0 378.5 153.5t148.5 401.5q0 127 -40 232t-110 175t-167 108t-210 38q-234 0 -382 -150t-148 -403zM555 752q0 205 111 314.5t297 109.5q132 0 239 -37l72 -25l-31 -244l-65 23q-101 33 -170 33q-134 0 -134 -174q0 -170 132 -170q67 0 172 30l65 23 l31 -244l-72 -22q-104 -39 -239 -39q-185 0 -296.5 110.5t-111.5 311.5z" />
<glyph unicode="&#xaa;" d="M158 907q0 289 403 289h109v12q0 42 -25.5 58t-75.5 16q-47 0 -118 -11t-129 -30l-101 -37l-37 244l105 35q167 55 325 55q371 0 371 -313v-346l88 -56l-123 -205l-76 44q-57 29 -133 12l-30 -6q-140 -33 -222 -33q-156 0 -243.5 71.5t-87.5 200.5zM481 920 q0 -31 20.5 -47.5t55.5 -16.5q39 0 80 14l35 11v106h-101q-90 0 -90 -67z" />
<glyph unicode="&#xab;" horiz-adv-x="1236" d="M37 580q0 81 57 143l238 266h399l-375 -409l375 -410h-399l-238 264q-57 60 -57 146zM516 580q0 79 59 143l246 266h400l-383 -409l383 -410h-400l-246 264q-59 62 -59 146z" />
<glyph unicode="&#xac;" d="M80 657v295h1050v-688h-331v393h-719z" />
<glyph unicode="&#xad;" d="M80 446v314h1048v-314h-1048z" />
<glyph unicode="&#xae;" horiz-adv-x="1910" d="M152 752q0 172 63.5 322t171.5 253.5t255.5 163t311.5 59.5q163 0 309.5 -58.5t255 -161.5t172.5 -253.5t64 -324.5q0 -171 -64 -321t-172 -255.5t-255.5 -166t-309.5 -60.5q-164 0 -311.5 60.5t-255.5 166t-171.5 255.5t-63.5 321zM424 752q0 -249 148.5 -402 t381.5 -153q230 0 378.5 153.5t148.5 401.5q0 127 -40 232t-110 175t-167 108t-210 38q-234 0 -382 -150t-148 -403zM594 373v684q0 57 31.5 88t91.5 31h321q133 0 210 -69t77 -189q0 -104 -80 -199l-24 -29l118 -317h-290l-84 243h-86v-243h-285zM879 809h122l23 27 q27 36 27 71q0 34 -19.5 54t-54.5 20h-98v-172z" />
<glyph unicode="&#xaf;" horiz-adv-x="1087" d="M121 1227v299h837v-299h-837z" />
<glyph unicode="&#xb0;" d="M190 1153q0 179 111.5 295.5t296.5 116.5q183 0 290 -116t107 -296q0 -183 -109 -299.5t-292 -116.5q-186 0 -295 116.5t-109 299.5zM475 1149q0 -62 32 -99.5t89 -37.5q56 0 88.5 38t32.5 99q0 62 -33 99.5t-90 37.5t-88 -37t-31 -100z" />
<glyph unicode="&#xb1;" d="M80 0v295h1048v-295h-1048zM80 594v309h340v236h358v-236h350v-309h-350v-225h-358v225h-340z" />
<glyph unicode="&#xb2;" horiz-adv-x="667" d="M23 983q0 63 36 96l217 201q57 53 79 86t22 80q0 43 -26 66.5t-75 23.5q-66 0 -159 -33l-58 -20l-28 188l63 25q122 37 223 37q146 0 227 -68t81 -203q0 -77 -34.5 -143.5t-117.5 -144.5l-125 -117h277v-180h-498q-52 0 -78 29t-26 77z" />
<glyph unicode="&#xb3;" horiz-adv-x="667" d="M14 928l31 190l64 -20q105 -37 184 -37q51 0 77.5 19.5t26.5 52.5q0 34 -24 61l-15 18h-172v174h164l12 19q23 23 23 57q0 74 -100 74q-75 0 -164 -33l-58 -20l-28 188l63 23q112 39 224 39q307 0 307 -244q0 -85 -62 -160l-16 -22l14 -17q78 -75 78 -172 q0 -126 -85.5 -188t-242.5 -62q-123 0 -235 39z" />
<glyph unicode="&#xb4;" horiz-adv-x="1112" d="M258 1321q0 35 11.5 62.5t45.5 58.5l138 121h524l-399 -295q-86 -66 -181 -66q-67 0 -103 35t-36 84z" />
<glyph unicode="&#xb5;" d="M78 -381v1518h430v-707q0 -42 18 -64t66 -22q45 0 100 18v775h438v-883q0 -87 -41.5 -136.5t-130.5 -74.5q-160 -49 -376 -49q-18 0 -52 2h-22v-377h-430z" />
<glyph unicode="&#xb6;" horiz-adv-x="1300" d="M43 977q0 115 35 213.5t102.5 173.5t176.5 117.5t247 42.5h625v-1905h-324v1610h-121v-1610h-335v827q-198 41 -302 185.5t-104 345.5z" />
<glyph unicode="&#xb7;" horiz-adv-x="765" d="M156 739q0 94 61 150.5t170 56.5q107 0 168 -56.5t61 -150.5q0 -96 -60.5 -152.5t-168.5 -56.5q-109 0 -170 56.5t-61 152.5z" />
<glyph unicode="&#xb8;" horiz-adv-x="1087" d="M287 -360l47 147q98 -49 178 -49q39 0 39 29q0 25 -38 33.5t-122 2.5l-26 41l84 156h151l-37 -72q83 0 134 -39t51 -118q0 -88 -61.5 -135.5t-176.5 -47.5q-105 0 -223 52z" />
<glyph unicode="&#xb9;" horiz-adv-x="667" d="M29 877v184h202v469h-12q-25 0 -66 -9.5t-63 -25.5l-31 184q87 45 213 45h78q63 0 98 -33t35 -92v-538h164v-184h-618z" />
<glyph unicode="&#xba;" d="M150 1090q0 216 122.5 334t335.5 118q215 0 335 -117.5t120 -334.5q0 -218 -122.5 -337.5t-336.5 -119.5q-215 0 -334.5 119t-119.5 338zM492 1090q0 -116 28 -170t88 -54q59 0 87 55t28 169q0 111 -29 164t-90 53q-59 0 -85.5 -53.5t-26.5 -163.5z" />
<glyph unicode="&#xbb;" horiz-adv-x="1236" d="M16 170l383 410l-383 409h400l246 -266q59 -64 59 -143q0 -84 -59 -146l-246 -264h-400zM506 170l375 410l-375 409h399l238 -266q57 -65 57 -143q0 -84 -57 -146l-238 -264h-399z" />
<glyph unicode="&#xbc;" horiz-adv-x="1689" d="M31 676v184h202v469h-12q-25 0 -66 -9.5t-63 -25.5l-31 185q87 45 213 45h78q63 0 98 -33t35 -92v-539h164v-184h-618zM442 0l654 1524h268l-651 -1524h-271zM997 231q0 37 29 97l250 438q53 92 160 92q149 0 149 -135v-418h68v-180h-68v-125h-237v125h-246 q-52 0 -78.5 29t-26.5 77zM1253 305h95v178z" />
<glyph unicode="&#xbd;" horiz-adv-x="1689" d="M31 676v184h202v469h-12q-25 0 -66 -9.5t-63 -25.5l-31 185q87 45 213 45h78q63 0 98 -33t35 -92v-539h164v-184h-618zM399 0l654 1524h268l-651 -1524h-271zM1047 106q0 64 36 97l217 200q57 53 79 86t22 80q0 43 -26 66.5t-75 23.5q-69 0 -159 -32l-58 -21l-28 189 l63 24q122 37 223 37q146 0 227 -67.5t81 -202.5q0 -77 -34.5 -144t-117.5 -145l-125 -117h277v-180h-498q-52 0 -78 29t-26 77z" />
<glyph unicode="&#xbe;" horiz-adv-x="1689" d="M14 727l31 191l64 -21q105 -37 184 -37q51 0 77.5 19.5t26.5 52.5q0 34 -24 61l-15 19h-172v174h164l12 18q23 23 23 58q0 73 -100 73q-78 0 -164 -32l-58 -21l-28 188l63 23q112 39 224 39q307 0 307 -244q0 -85 -62 -160l-16 -22l14 -16q78 -75 78 -172 q0 -126 -85.5 -188t-242.5 -62q-123 0 -235 39zM399 -2l654 1524h268l-651 -1524h-271zM1004 231q0 39 28 97l250 438q53 92 160 92q149 0 149 -135v-418h68v-180h-68v-125h-237v125h-246q-52 0 -78 29t-26 77zM1260 305h94v178z" />
<glyph unicode="&#xbf;" horiz-adv-x="974" d="M39 10q0 114 43 201t129 164l117 104v131l415 72v-141q0 -78 -17.5 -129t-68.5 -99l-131 -127q-39 -41 -53 -69t-14 -76q0 -80 102 -80q92 0 191 31l131 39l53 -340l-113 -31q-165 -47 -321 -47q-217 0 -340 105.5t-123 291.5zM307 965q0 90 61 143t169 53t169.5 -53 t61.5 -143t-61.5 -143.5t-169.5 -53.5t-169 53.5t-61 143.5z" />
<glyph unicode="&#xc0;" horiz-adv-x="1550" d="M8 0l416 1309q75 233 367 233q287 0 358 -231l391 -1311h-536l-50 207h-360l-51 -207h-535zM377 1874h493l131 -96q54 -43 54 -97q0 -40 -33.5 -68t-97.5 -28q-97 0 -172 53zM682 578h188l-92 428z" />
<glyph unicode="&#xc1;" horiz-adv-x="1550" d="M8 0l416 1309q75 233 367 233q287 0 358 -231l391 -1311h-536l-50 207h-360l-51 -207h-535zM530 1681q0 28 10 50t42 47l131 96h493l-375 -236q-84 -53 -169 -53q-65 0 -98.5 28t-33.5 68zM682 578h188l-92 428z" />
<glyph unicode="&#xc2;" horiz-adv-x="1550" d="M8 0l416 1309q75 233 367 233q287 0 358 -231l391 -1311h-536l-50 207h-360l-51 -207h-535zM348 1595l232 222q78 67 211 67q137 0 213 -67l235 -222h-381l-67 86l-60 -86h-383zM682 578h188l-92 428z" />
<glyph unicode="&#xc3;" horiz-adv-x="1550" d="M8 0l416 1309q75 233 367 233q287 0 358 -231l391 -1311h-536l-50 207h-360l-51 -207h-535zM346 1683q101 211 309 211q97 0 174 -45l48 -26q43 -19 75 -19q62 0 109 92l184 -98q-101 -213 -309 -213q-97 0 -174 45l-49 27q-32 20 -74 20q-63 0 -111 -92zM682 578h188 l-92 428z" />
<glyph unicode="&#xc4;" horiz-adv-x="1550" d="M8 0l416 1309q75 233 367 233q287 0 358 -231l391 -1311h-536l-50 207h-360l-51 -207h-535zM371 1747q0 76 53 120t147 44q93 0 146 -44t53 -120q0 -75 -53 -118.5t-146 -43.5q-95 0 -147.5 43t-52.5 119zM682 578h188l-92 428zM815 1747q0 76 53.5 120t147.5 44 q93 0 145.5 -44t52.5 -120q0 -75 -52.5 -118.5t-145.5 -43.5q-95 0 -148 43.5t-53 118.5z" />
<glyph unicode="&#xc5;" horiz-adv-x="1550" d="M8 0l416 1309q75 233 367 233q287 0 358 -231l391 -1311h-536l-50 207h-360l-51 -207h-535zM508 1808q0 101 77 161.5t206 60.5q128 0 206 -60.5t78 -161.5q0 -97 -79.5 -160t-204.5 -63t-204 63t-79 160zM682 578h188l-92 428zM696 1808q0 -33 26.5 -54t68.5 -21t69 21 t27 54q0 32 -26.5 53t-69.5 21q-42 0 -68.5 -21.5t-26.5 -52.5z" />
<glyph unicode="&#xc6;" horiz-adv-x="2244" d="M8 0l527 1313q42 111 136.5 161t243.5 50h1268v-379h-641v-191h557v-362h-557v-213h645v-379h-940q-114 0 -177.5 55.5t-63.5 155.5v-4h-392l-69 -207h-537zM733 578h273v565h-86z" />
<glyph unicode="&#xc7;" horiz-adv-x="1423" d="M57 764q0 248 96.5 424.5t265 263t392.5 86.5q233 0 440 -72l133 -41l-57 -415l-135 45q-137 47 -305 47q-273 0 -273 -338q0 -336 273 -336q175 0 305 47l135 43l57 -420l-133 -41q-169 -59 -383 -69l-28 -60q83 0 133.5 -39t50.5 -118q0 -88 -61.5 -135.5t-176.5 -47.5 q-105 0 -223 52l47 147q98 -49 178 -49q39 0 39 29q0 25 -37.5 33.5t-121.5 2.5l-27 41l78 146q-306 24 -484 224.5t-178 549.5z" />
<glyph unicode="&#xc8;" horiz-adv-x="1314" d="M76 225v1073q0 106 63 166t178 60h934v-379h-639v-191h557v-362h-557v-213h643v-379h-938q-115 0 -178 59.5t-63 165.5zM270 1874h494l131 -96q53 -42 53 -97q0 -40 -33.5 -68t-97.5 -28q-97 0 -172 53z" />
<glyph unicode="&#xc9;" horiz-adv-x="1314" d="M76 225v1073q0 106 63 166t178 60h934v-379h-639v-191h557v-362h-557v-213h643v-379h-938q-115 0 -178 59.5t-63 165.5zM457 1681q0 28 9.5 50t41.5 47l131 96h494l-375 -236q-84 -53 -170 -53q-65 0 -98 28t-33 68z" />
<glyph unicode="&#xca;" horiz-adv-x="1314" d="M76 225v1073q0 106 63 166t178 60h934v-379h-639v-191h557v-362h-557v-213h643v-379h-938q-115 0 -178 59.5t-63 165.5zM236 1595l231 222q78 67 211 67q137 0 213 -67l235 -222h-381l-67 86l-60 -86h-382z" />
<glyph unicode="&#xcb;" horiz-adv-x="1314" d="M76 225v1073q0 106 63 166t178 60h934v-379h-639v-191h557v-362h-557v-213h643v-379h-938q-115 0 -178 59.5t-63 165.5zM272 1747q0 76 53.5 120t147.5 44q93 0 146 -44t53 -120q0 -75 -53 -118.5t-146 -43.5q-95 0 -148 43.5t-53 118.5zM717 1747q0 76 53.5 120 t147.5 44q93 0 145.5 -44t52.5 -120q0 -75 -52.5 -118.5t-145.5 -43.5q-95 0 -148 43.5t-53 118.5z" />
<glyph unicode="&#xcc;" horiz-adv-x="698" d="M-59 1874h493l131 -96q53 -42 53 -97q0 -40 -33.5 -68t-97.5 -28q-97 0 -172 53zM76 0v1524h547v-1524h-547z" />
<glyph unicode="&#xcd;" horiz-adv-x="698" d="M76 0v1524h547v-1524h-547zM90 1681q0 28 9.5 50t41.5 47l131 96h494l-375 -236q-84 -53 -170 -53q-65 0 -98 28t-33 68z" />
<glyph unicode="&#xce;" horiz-adv-x="698" d="M-98 1595l231 222q78 67 211 67q137 0 213 -67l236 -222h-381l-68 86l-59 -86h-383zM76 0v1524h547v-1524h-547z" />
<glyph unicode="&#xcf;" horiz-adv-x="698" d="M-66 1747q0 76 53.5 120t147.5 44q93 0 146 -44t53 -120q0 -75 -53 -118.5t-146 -43.5q-95 0 -148 43.5t-53 118.5zM76 0v1524h547v-1524h-547zM379 1747q0 76 53.5 120t147.5 44q93 0 145.5 -44t52.5 -120q0 -75 -52.5 -118.5t-145.5 -43.5q-95 0 -148 43.5t-53 118.5z " />
<glyph unicode="&#xd0;" horiz-adv-x="1581" d="M20 645v246h103v407q0 106 63.5 166t178.5 60h399q353 0 555.5 -203.5t202.5 -562.5q0 -358 -205.5 -558t-556.5 -200h-395q-115 0 -178.5 59.5t-63.5 165.5v420h-103zM659 395h95q116 0 178.5 92t62.5 271t-67 277t-187 98h-82v-242h213v-246h-213v-250z" />
<glyph unicode="&#xd1;" horiz-adv-x="1579" d="M76 0v1219q0 153 100 236t283 83q72 0 129 -14.5t95.5 -38.5t71 -64.5t53.5 -80.5t44 -99l192 -514v797h459v-1219q0 -155 -99.5 -237t-283.5 -82q-72 0 -128.5 15t-95 38t-71 64t-53.5 80.5t-45 99.5l-192 512v-795h-459zM369 1683q101 211 309 211q97 0 174 -45l47 -26 q43 -19 76 -19q61 0 108 92l185 -98q-101 -213 -310 -213q-97 0 -174 45l-49 27q-32 20 -73 20q-63 0 -111 -92z" />
<glyph unicode="&#xd2;" horiz-adv-x="1681" d="M57 760q0 243 99 419.5t276 266.5t412 90q359 0 569.5 -204.5t210.5 -571.5q0 -185 -57 -331.5t-160.5 -243.5t-248.5 -148t-322 -51q-358 0 -568.5 204t-210.5 570zM446 1874h494l131 -96q53 -42 53 -97q0 -40 -33.5 -68t-97.5 -28q-97 0 -172 53zM598 760 q0 -195 62.5 -299.5t183.5 -104.5q116 0 175.5 103.5t59.5 300.5q0 194 -62 299.5t-181 105.5q-117 0 -177.5 -105.5t-60.5 -299.5z" />
<glyph unicode="&#xd3;" horiz-adv-x="1681" d="M57 760q0 243 99 419.5t276 266.5t412 90q359 0 569.5 -204.5t210.5 -571.5q0 -185 -57 -331.5t-160.5 -243.5t-248.5 -148t-322 -51q-358 0 -568.5 204t-210.5 570zM598 760q0 -195 62.5 -299.5t183.5 -104.5q116 0 175.5 103.5t59.5 300.5q0 194 -62 299.5t-181 105.5 q-117 0 -177.5 -105.5t-60.5 -299.5zM627 1681q0 28 9.5 50t41.5 47l131 96h494l-375 -236q-84 -53 -170 -53q-65 0 -98 28t-33 68z" />
<glyph unicode="&#xd4;" horiz-adv-x="1681" d="M57 760q0 243 99 419.5t276 266.5t412 90q359 0 569.5 -204.5t210.5 -571.5q0 -185 -57 -331.5t-160.5 -243.5t-248.5 -148t-322 -51q-358 0 -568.5 204t-210.5 570zM406 1595l231 222q78 67 211 67q137 0 213 -67l235 -222h-381l-67 86l-60 -86h-382zM598 760 q0 -195 62.5 -299.5t183.5 -104.5q116 0 175.5 103.5t59.5 300.5q0 194 -62 299.5t-181 105.5q-117 0 -177.5 -105.5t-60.5 -299.5z" />
<glyph unicode="&#xd5;" horiz-adv-x="1681" d="M57 760q0 243 99 419.5t276 266.5t412 90q359 0 569.5 -204.5t210.5 -571.5q0 -185 -57 -331.5t-160.5 -243.5t-248.5 -148t-322 -51q-358 0 -568.5 204t-210.5 570zM414 1683q101 211 309 211q97 0 174 -45l47 -26q43 -19 76 -19q61 0 108 92l185 -98 q-101 -213 -309 -213q-98 0 -175 45l-49 27q-32 20 -73 20q-63 0 -111 -92zM598 760q0 -195 62.5 -299.5t183.5 -104.5q116 0 175.5 103.5t59.5 300.5q0 194 -62 299.5t-181 105.5q-117 0 -177.5 -105.5t-60.5 -299.5z" />
<glyph unicode="&#xd6;" horiz-adv-x="1681" d="M57 760q0 243 99 419.5t276 266.5t412 90q359 0 569.5 -204.5t210.5 -571.5q0 -185 -57 -331.5t-160.5 -243.5t-248.5 -148t-322 -51q-358 0 -568.5 204t-210.5 570zM422 1747q0 76 53.5 120t147.5 44q93 0 145.5 -44t52.5 -120q0 -75 -52.5 -118.5t-145.5 -43.5 q-95 0 -148 43.5t-53 118.5zM598 760q0 -195 62.5 -299.5t183.5 -104.5q116 0 175.5 103.5t59.5 300.5q0 194 -62 299.5t-181 105.5q-117 0 -177.5 -105.5t-60.5 -299.5zM866 1747q0 76 53.5 120t147.5 44q93 0 146 -44t53 -120q0 -75 -53 -118.5t-146 -43.5 q-95 0 -148 43.5t-53 118.5z" />
<glyph unicode="&#xd7;" d="M57 307l285 287l-285 287l254 254l287 -285l287 285l254 -254l-285 -287l285 -287l-254 -254l-287 285l-287 -285z" />
<glyph unicode="&#xd8;" horiz-adv-x="1681" d="M57 760q0 243 99 419.5t276 266.5t412 90q119 0 241 -29l64 115h336l-133 -240q131 -100 201.5 -257.5t70.5 -364.5q0 -185 -57 -331.5t-160.5 -243.5t-248.5 -148t-322 -51q-122 0 -242 26l-66 -118h-340l138 245q-130 100 -199.5 257.5t-69.5 363.5zM598 760 q0 -64 6 -117l287 514q-36 8 -55 8q-117 0 -177.5 -105.5t-60.5 -299.5zM788 362q24 -6 56 -6q116 0 175.5 103.5t59.5 300.5q0 62 -6 117z" />
<glyph unicode="&#xd9;" horiz-adv-x="1511" d="M66 578v946h542v-944q0 -168 146 -168q151 0 151 168v944h541v-946q0 -288 -178 -445.5t-516 -157.5q-335 0 -510.5 156.5t-175.5 446.5zM279 1874h493l131 -96q53 -42 53 -97q0 -40 -33.5 -68t-97.5 -28q-97 0 -172 53z" />
<glyph unicode="&#xda;" horiz-adv-x="1511" d="M66 578v946h542v-944q0 -168 146 -168q151 0 151 168v944h541v-946q0 -288 -178 -445.5t-516 -157.5q-335 0 -510.5 156.5t-175.5 446.5zM580 1681q0 28 9.5 50t41.5 47l131 96h493l-374 -236q-84 -53 -170 -53q-65 0 -98 28t-33 68z" />
<glyph unicode="&#xdb;" horiz-adv-x="1511" d="M66 578v946h542v-944q0 -168 146 -168q151 0 151 168v944h541v-946q0 -288 -178 -445.5t-516 -157.5q-335 0 -510.5 156.5t-175.5 446.5zM307 1595l232 222q78 67 211 67q137 0 213 -67l235 -222h-381l-67 86l-60 -86h-383z" />
<glyph unicode="&#xdc;" horiz-adv-x="1511" d="M66 578v946h542v-944q0 -168 146 -168q151 0 151 168v944h541v-946q0 -288 -178 -445.5t-516 -157.5q-335 0 -510.5 156.5t-175.5 446.5zM336 1747q0 76 53.5 120t147.5 44q93 0 145.5 -44t52.5 -120q0 -75 -52.5 -118.5t-145.5 -43.5q-95 0 -148 43.5t-53 118.5z M780 1747q0 76 53.5 120t147.5 44q93 0 146 -44t53 -120q0 -75 -53 -118.5t-146 -43.5q-95 0 -148 43.5t-53 118.5z" />
<glyph unicode="&#xdd;" horiz-adv-x="1607" d="M10 1524h578l223 -473l213 473h573l-524 -924v-600h-538v598zM606 1681q0 28 9.5 50t41.5 47l131 96h494l-375 -236q-84 -53 -170 -53q-65 0 -98 28t-33 68z" />
<glyph unicode="&#xde;" horiz-adv-x="1409" d="M76 0v1524h528v-224h195q256 0 403.5 -138.5t147.5 -377.5q0 -242 -152.5 -381t-415.5 -139h-178v-264h-528zM604 639h121q64 0 101.5 38t37.5 105t-37.5 106.5t-99.5 39.5h-123v-289z" />
<glyph unicode="&#xdf;" horiz-adv-x="1216" d="M78 0v1149q0 116 37.5 204.5t106 142t157 80t196.5 26.5q229 0 363.5 -108t134.5 -306q0 -77 -24.5 -157.5t-57.5 -133.5l-45 -72l74 -75q76 -77 111.5 -157t35.5 -183q0 -193 -126.5 -301.5t-356.5 -108.5h-109v338h82q43 0 71 30t28 76q0 39 -11.5 66t-37.5 59l-95 117 q-80 96 -20 232l41 108q24 52 24 143q0 50 -19.5 77.5t-55.5 27.5q-33 0 -52.5 -29t-19.5 -84v-1161h-432z" />
<glyph unicode="&#xe0;" horiz-adv-x="1253" d="M59 342q0 369 519 369h139v14q0 53 -32 73.5t-95 20.5q-62 0 -153 -14.5t-167 -40.5l-131 -45l-47 317l133 43q229 72 422 72q477 0 477 -401v-449l111 -70l-156 -264l-102 51q-65 39 -172 17l-45 -8q-178 -39 -277 -39q-198 0 -311 94t-113 260zM215 1563h524l138 -121 q34 -31 45.5 -58.5t11.5 -62.5q0 -49 -36 -84t-103 -35q-95 0 -181 66zM477 354q0 -40 26.5 -60t69.5 -20q41 0 101 17l47 14v137h-127q-117 0 -117 -88z" />
<glyph unicode="&#xe1;" horiz-adv-x="1253" d="M59 342q0 369 519 369h139v14q0 53 -32 73.5t-95 20.5q-62 0 -153 -14.5t-167 -40.5l-131 -45l-47 317l133 43q229 72 422 72q477 0 477 -401v-449l111 -70l-156 -264l-102 51q-65 39 -172 17l-45 -8q-178 -39 -277 -39q-198 0 -311 94t-113 260zM403 1321q0 68 58 121 l137 121h524l-399 -295q-43 -33 -83.5 -49.5t-96.5 -16.5q-67 0 -103.5 35t-36.5 84zM477 354q0 -40 26.5 -60t69.5 -20q41 0 101 17l47 14v137h-127q-117 0 -117 -88z" />
<glyph unicode="&#xe2;" horiz-adv-x="1253" d="M59 342q0 369 519 369h139v14q0 53 -32 73.5t-95 20.5q-62 0 -153 -14.5t-167 -40.5l-131 -45l-47 317l133 43q229 72 422 72q477 0 477 -401v-449l111 -70l-156 -264l-102 51q-65 39 -172 17l-45 -8q-178 -39 -277 -39q-198 0 -311 94t-113 260zM166 1210l244 277 q79 82 221 82q144 0 223 -82l248 -277h-402l-69 107l-64 -107h-401zM477 354q0 -40 26.5 -60t69.5 -20q41 0 101 17l47 14v137h-127q-117 0 -117 -88z" />
<glyph unicode="&#xe3;" horiz-adv-x="1253" d="M59 342q0 369 519 369h139v14q0 53 -32 73.5t-95 20.5q-62 0 -153 -14.5t-167 -40.5l-131 -45l-47 317l133 43q229 72 422 72q477 0 477 -401v-449l111 -70l-156 -264l-102 51q-65 39 -172 17l-45 -8q-178 -39 -277 -39q-198 0 -311 94t-113 260zM166 1317 q104 268 334 268q96 0 182 -59l43 -29q39 -27 80 -27q34 0 61 27.5t54 87.5l190 -125q-104 -266 -332 -266q-102 0 -182 57l-43 29q-41 29 -80 29q-35 0 -61.5 -27t-53.5 -86zM477 354q0 -40 26.5 -60t69.5 -20q41 0 101 17l47 14v137h-127q-117 0 -117 -88z" />
<glyph unicode="&#xe4;" horiz-adv-x="1253" d="M59 342q0 369 519 369h139v14q0 53 -32 73.5t-95 20.5q-62 0 -153 -14.5t-167 -40.5l-131 -45l-47 317l133 43q229 72 422 72q477 0 477 -401v-449l111 -70l-156 -264l-102 51q-65 39 -172 17l-45 -8q-178 -39 -277 -39q-198 0 -311 94t-113 260zM186 1391q0 90 56 141 t157 51q98 0 153.5 -51.5t55.5 -140.5q0 -90 -55.5 -142.5t-153.5 -52.5q-100 0 -156.5 52.5t-56.5 142.5zM477 354q0 -40 26.5 -60t69.5 -20q41 0 101 17l47 14v137h-127q-117 0 -117 -88zM657 1391q0 90 56 141t155 51q98 0 154.5 -51.5t56.5 -140.5q0 -90 -56.5 -142.5 t-154.5 -52.5q-99 0 -155 52.5t-56 142.5z" />
<glyph unicode="&#xe5;" horiz-adv-x="1253" d="M59 342q0 369 519 369h139v14q0 53 -32 73.5t-95 20.5q-62 0 -153 -14.5t-167 -40.5l-131 -45l-47 317l133 43q229 72 422 72q477 0 477 -401v-449l111 -70l-156 -264l-102 51q-65 39 -172 17l-45 -8q-178 -39 -277 -39q-198 0 -311 94t-113 260zM346 1475 q0 124 84.5 201t212.5 77q127 0 213 -77t86 -201q0 -122 -87 -201.5t-212 -79.5t-211 79t-86 202zM477 354q0 -40 26.5 -60t69.5 -20q41 0 101 17l47 14v137h-127q-117 0 -117 -88zM547 1475q0 -42 26 -68.5t70 -26.5t71 26.5t27 68.5q0 38 -27 65t-71 27t-70 -27t-26 -65z " />
<glyph unicode="&#xe6;" horiz-adv-x="1853" d="M59 342q0 369 519 369h139v14q0 53 -32 73.5t-95 20.5q-62 0 -153 -14.5t-167 -40.5l-131 -45l-47 317l133 43q229 72 422 72q203 0 314 -84q137 84 311 84q254 0 393 -139t139 -418q0 -79 -36 -113.5t-119 -34.5h-523q27 -133 211 -133q161 0 303 43l107 33l43 -301 l-109 -35q-205 -65 -381 -65q-167 0 -280 51q-69 30 -131 16l-129 -28q-178 -39 -277 -39q-198 0 -311 94t-113 260zM477 354q0 -40 26.5 -60t69.5 -20q44 0 101 13l86 18q-23 63 -35 137h-131q-117 0 -117 -88zM1124 707h269q0 67 -34 109t-102 42q-59 0 -93 -39.5 t-40 -111.5z" />
<glyph unicode="&#xe7;" horiz-adv-x="1099" d="M59 567q0 280 154 431t410 151q176 0 327 -53l99 -31l-43 -338l-91 29q-128 47 -237 47q-180 0 -180 -236q0 -237 180 -237q109 0 237 47l91 29l43 -336l-99 -31q-127 -45 -282 -51l-29 -60q83 0 133.5 -39t50.5 -118q0 -88 -61 -135.5t-176 -47.5q-106 0 -224 52l48 147 q98 -49 178 -49q39 0 39 29q0 25 -38 33.5t-122 2.5l-27 41l80 150q-213 29 -337 176.5t-124 396.5z" />
<glyph unicode="&#xe8;" horiz-adv-x="1200" d="M59 565q0 145 44.5 259t122 184.5t177 106.5t215.5 36q254 0 393.5 -139t139.5 -418q0 -79 -36.5 -113.5t-119.5 -34.5h-522q27 -133 211 -133q161 0 303 43l107 33l43 -301l-109 -35q-205 -65 -381 -65q-275 0 -431.5 148t-156.5 429zM147 1563h525l137 -121 q34 -31 45.5 -58.5t11.5 -62.5q0 -49 -36 -84t-103 -35q-56 0 -96.5 16.5t-83.5 49.5zM471 707h268q0 68 -33.5 109.5t-101.5 41.5q-59 0 -93 -39.5t-40 -111.5z" />
<glyph unicode="&#xe9;" horiz-adv-x="1200" d="M59 565q0 145 44.5 259t122 184.5t177 106.5t215.5 36q254 0 393.5 -139t139.5 -418q0 -79 -36.5 -113.5t-119.5 -34.5h-522q27 -133 211 -133q161 0 303 43l107 33l43 -301l-109 -35q-205 -65 -381 -65q-275 0 -431.5 148t-156.5 429zM377 1321q0 35 11.5 62.5 t45.5 58.5l137 121h525l-400 -295q-43 -33 -83.5 -49.5t-96.5 -16.5q-67 0 -103 35t-36 84zM471 707h268q0 68 -33.5 109.5t-101.5 41.5q-59 0 -93 -39.5t-40 -111.5z" />
<glyph unicode="&#xea;" horiz-adv-x="1200" d="M59 565q0 145 44.5 259t122 184.5t177 106.5t215.5 36q254 0 393.5 -139t139.5 -418q0 -79 -36.5 -113.5t-119.5 -34.5h-522q27 -133 211 -133q161 0 303 43l107 33l43 -301l-109 -35q-205 -65 -381 -65q-275 0 -431.5 148t-156.5 429zM152 1210l243 277q79 82 221 82 q145 0 224 -82l247 -277h-401l-70 107l-63 -107h-401zM471 707h268q0 68 -33.5 109.5t-101.5 41.5q-59 0 -93 -39.5t-40 -111.5z" />
<glyph unicode="&#xeb;" horiz-adv-x="1200" d="M59 565q0 145 44.5 259t122 184.5t177 106.5t215.5 36q254 0 393.5 -139t139.5 -418q0 -79 -36.5 -113.5t-119.5 -34.5h-522q27 -133 211 -133q161 0 303 43l107 33l43 -301l-109 -35q-205 -65 -381 -65q-275 0 -431.5 148t-156.5 429zM176 1391q0 90 56 141t157 51 q98 0 153.5 -51.5t55.5 -140.5q0 -90 -55.5 -142.5t-153.5 -52.5q-100 0 -156.5 52.5t-56.5 142.5zM471 707h268q0 68 -33.5 109.5t-101.5 41.5q-59 0 -93 -39.5t-40 -111.5zM647 1391q0 90 56 141t155 51q98 0 154.5 -51.5t56.5 -140.5q0 -90 -56.5 -142.5t-154.5 -52.5 q-99 0 -155 52.5t-56 142.5z" />
<glyph unicode="&#xec;" horiz-adv-x="573" d="M-152 1563h525l137 -121q34 -31 45.5 -58.5t11.5 -62.5q0 -49 -36 -84t-103 -35q-56 0 -96.5 16.5t-83.5 49.5zM74 0v1137h424v-1137h-424z" />
<glyph unicode="&#xed;" horiz-adv-x="573" d="M-14 1321q0 35 11.5 62.5t45.5 58.5l137 121h525l-400 -295q-43 -33 -83.5 -49.5t-96.5 -16.5q-67 0 -103 35t-36 84zM74 0v1137h424v-1137h-424z" />
<glyph unicode="&#xee;" horiz-adv-x="573" d="M-174 1210l244 277q79 82 221 82q144 0 223 -82l248 -277h-402l-69 107l-64 -107h-401zM74 0v1137h424v-1137h-424z" />
<glyph unicode="&#xef;" horiz-adv-x="573" d="M-158 1391q0 90 56 141t157 51q98 0 153.5 -51.5t55.5 -140.5q0 -90 -55.5 -142.5t-153.5 -52.5q-100 0 -156.5 52.5t-56.5 142.5zM74 0v1137h424v-1137h-424zM313 1391q0 90 56 141t155 51q98 0 154.5 -51.5t56.5 -140.5q0 -90 -56.5 -142.5t-154.5 -52.5 q-99 0 -155 52.5t-56 142.5z" />
<glyph unicode="&#xf0;" horiz-adv-x="1282" d="M57 532q0 236 128.5 371t346.5 135q63 0 120.5 -10t83.5 -20l26 -9v60q0 63 -25 121l-266 -121v186l143 66q-57 26 -125 26h-106v226h227q221 0 363 -90l252 112v-186l-119 -53q94 -134 94 -332v-504q0 -239 -150.5 -379.5t-426.5 -140.5q-271 0 -418.5 145.5 t-147.5 396.5zM498 526q0 -231 133 -231q67 0 98 52.5t31 168.5v203l-38 10q-44 8 -81 8q-73 0 -108 -56t-35 -155z" />
<glyph unicode="&#xf1;" horiz-adv-x="1206" d="M78 0v883q0 87 40.5 135.5t129.5 75.5q190 55 377 55q259 0 382 -106.5t123 -297.5v-745h-430v707q0 86 -86 86q-40 0 -98 -19v-774h-438zM131 1317q104 268 334 268q96 0 182 -59l43 -29q39 -27 80 -27q34 0 61 27.5t54 87.5l190 -125q-104 -266 -332 -266 q-102 0 -182 57l-43 29q-41 29 -80 29q-35 0 -61 -26.5t-53 -86.5z" />
<glyph unicode="&#xf2;" horiz-adv-x="1280" d="M59 567q0 277 156.5 429.5t427.5 152.5q273 0 425.5 -152t152.5 -430q0 -276 -155.5 -427.5t-426.5 -151.5q-275 0 -427.5 151.5t-152.5 427.5zM217 1563h524l138 -121q34 -31 45.5 -58.5t11.5 -62.5q0 -49 -36 -84t-103 -35q-95 0 -181 66zM498 567q0 -145 35 -212.5 t110 -67.5q74 0 108.5 68.5t34.5 211.5t-36 212t-111 69t-108 -69.5t-33 -211.5z" />
<glyph unicode="&#xf3;" horiz-adv-x="1280" d="M59 567q0 277 156.5 429.5t427.5 152.5q273 0 425.5 -152t152.5 -430q0 -276 -155.5 -427.5t-426.5 -151.5q-275 0 -427.5 151.5t-152.5 427.5zM375 1321q0 35 11.5 62.5t45.5 58.5l137 121h525l-400 -295q-43 -33 -83.5 -49.5t-96.5 -16.5q-67 0 -103 35t-36 84z M498 567q0 -145 35 -212.5t110 -67.5q74 0 108.5 68.5t34.5 211.5t-36 212t-111 69t-108 -69.5t-33 -211.5z" />
<glyph unicode="&#xf4;" horiz-adv-x="1280" d="M59 567q0 277 156.5 429.5t427.5 152.5q273 0 425.5 -152t152.5 -430q0 -276 -155.5 -427.5t-426.5 -151.5q-275 0 -427.5 151.5t-152.5 427.5zM172 1210l244 277q79 82 221 82q144 0 223 -82l248 -277h-401l-70 107l-64 -107h-401zM498 567q0 -145 35 -212.5t110 -67.5 q74 0 108.5 68.5t34.5 211.5t-36 212t-111 69t-108 -69.5t-33 -211.5z" />
<glyph unicode="&#xf5;" horiz-adv-x="1280" d="M59 567q0 277 156.5 429.5t427.5 152.5q273 0 425.5 -152t152.5 -430q0 -276 -155.5 -427.5t-426.5 -151.5q-275 0 -427.5 151.5t-152.5 427.5zM188 1317q104 268 334 268q97 0 183 -59l43 -29q39 -27 79 -27q34 0 61 27.5t54 87.5l191 -125q-104 -266 -332 -266 q-103 0 -183 57l-43 29q-41 29 -79 29q-35 0 -61.5 -27t-53.5 -86zM498 567q0 -145 35 -212.5t110 -67.5q74 0 108.5 68.5t34.5 211.5t-36 212t-111 69t-108 -69.5t-33 -211.5z" />
<glyph unicode="&#xf6;" horiz-adv-x="1280" d="M59 567q0 277 156.5 429.5t427.5 152.5q273 0 425.5 -152t152.5 -430q0 -276 -155.5 -427.5t-426.5 -151.5q-275 0 -427.5 151.5t-152.5 427.5zM199 1391q0 90 56 141t157 51q98 0 153.5 -51.5t55.5 -140.5q0 -90 -55.5 -142.5t-153.5 -52.5q-100 0 -156.5 52.5 t-56.5 142.5zM498 567q0 -145 35 -212.5t110 -67.5q74 0 108.5 68.5t34.5 211.5t-36 212t-111 69t-108 -69.5t-33 -211.5zM670 1391q0 90 56 141t155 51q98 0 154.5 -51.5t56.5 -140.5q0 -90 -56.5 -142.5t-154.5 -52.5q-99 0 -155 52.5t-56 142.5z" />
<glyph unicode="&#xf7;" d="M80 444v312h1048v-312h-1048zM373 211q0 85 61 135.5t168 50.5q108 0 168.5 -50t60.5 -136q0 -87 -60.5 -137.5t-168.5 -50.5q-107 0 -168 50.5t-61 137.5zM373 987q0 85 61.5 137t167.5 52q107 0 168 -52t61 -137q0 -87 -60.5 -137.5t-168.5 -50.5q-107 0 -168 50.5 t-61 137.5z" />
<glyph unicode="&#xf8;" horiz-adv-x="1280" d="M59 567q0 277 156.5 429.5t427.5 152.5q82 0 178 -21l58 101h262l-111 -199q191 -152 191 -463q0 -276 -155.5 -427.5t-426.5 -151.5q-90 0 -182 20l-62 -112h-266l119 210q-189 151 -189 461zM498 551l166 295q-4 0 -12.5 1t-12.5 1q-75 0 -108 -69.5t-33 -211.5v-16z M614 289q10 -2 29 -2q74 0 108.5 68.5t34.5 211.5v27z" />
<glyph unicode="&#xf9;" horiz-adv-x="1206" d="M78 391v746h430v-707q0 -42 18 -64t66 -22q45 0 100 18v775h438v-883q0 -87 -41.5 -135.5t-130.5 -75.5q-180 -55 -376 -55q-258 0 -381 105.5t-123 297.5zM145 1563h525l137 -121q34 -31 45.5 -58.5t11.5 -62.5q0 -49 -36 -84t-103 -35q-56 0 -96.5 16.5t-83.5 49.5z " />
<glyph unicode="&#xfa;" horiz-adv-x="1206" d="M78 391v746h430v-707q0 -42 18 -64t66 -22q45 0 100 18v775h438v-883q0 -87 -41.5 -135.5t-130.5 -75.5q-180 -55 -376 -55q-258 0 -381 105.5t-123 297.5zM336 1321q0 35 11.5 62.5t45.5 58.5l137 121h525l-400 -295q-43 -33 -83.5 -49.5t-96.5 -16.5q-67 0 -103 35 t-36 84z" />
<glyph unicode="&#xfb;" horiz-adv-x="1206" d="M78 391v746h430v-707q0 -42 18 -64t66 -22q45 0 100 18v775h438v-883q0 -87 -41.5 -135.5t-130.5 -75.5q-180 -55 -376 -55q-258 0 -381 105.5t-123 297.5zM131 1210l244 277q79 82 221 82q144 0 223 -82l248 -277h-401l-70 107l-64 -107h-401z" />
<glyph unicode="&#xfc;" horiz-adv-x="1206" d="M78 391v746h430v-707q0 -42 18 -64t66 -22q45 0 100 18v775h438v-883q0 -87 -41.5 -135.5t-130.5 -75.5q-180 -55 -376 -55q-258 0 -381 105.5t-123 297.5zM158 1391q0 90 56 141t157 51q98 0 153.5 -51.5t55.5 -140.5q0 -90 -55.5 -142.5t-153.5 -52.5 q-100 0 -156.5 52.5t-56.5 142.5zM629 1391q0 90 56 141t155 51q98 0 154.5 -51.5t56.5 -140.5q0 -90 -56.5 -142.5t-154.5 -52.5q-99 0 -155 52.5t-56 142.5z" />
<glyph unicode="&#xfd;" horiz-adv-x="1255" d="M18 1137h476l157 -600l142 600h444l-389 -1178q-104 -334 -457 -334q-145 0 -309 53l51 299q101 -36 193 -36q52 0 81 23t37 59l5 22zM436 1321q0 68 58 121l137 121h524l-399 -295q-86 -66 -181 -66q-67 0 -103 35t-36 84z" />
<glyph unicode="&#xfe;" horiz-adv-x="1236" d="M78 -381v1901l432 75v-481q88 29 174 29q259 0 377.5 -143.5t118.5 -426.5q0 -279 -127 -429t-381 -150q-38 0 -78.5 6.5t-61.5 13.5l-22 6v-327zM510 344q50 -18 94 -18q79 0 115.5 56.5t36.5 186.5q0 131 -36 185.5t-116 54.5q-48 0 -94 -18v-447z" />
<glyph unicode="&#xff;" horiz-adv-x="1255" d="M18 1137h476l157 -600l142 600h444l-389 -1178q-104 -334 -457 -334q-145 0 -309 53l51 299q101 -36 193 -36q52 0 81 23t37 59l5 22zM199 1391q0 90 56 141t157 51q98 0 153.5 -51.5t55.5 -140.5q0 -90 -55.5 -142.5t-153.5 -52.5q-100 0 -156.5 52.5t-56.5 142.5z M670 1391q0 90 56 141t155 51q98 0 154.5 -51.5t56.5 -140.5q0 -90 -56.5 -142.5t-154.5 -52.5q-99 0 -155 52.5t-56 142.5z" />
<glyph unicode="&#x100;" horiz-adv-x="1550" d="M8 0l416 1309q75 233 367 233q287 0 358 -231l391 -1311h-536l-50 207h-360l-51 -207h-535zM393 1593v238h795v-238h-795zM682 578h188l-92 428z" />
<glyph unicode="&#x101;" horiz-adv-x="1253" d="M59 342q0 369 519 369h139v14q0 53 -32 73.5t-95 20.5q-62 0 -153 -14.5t-167 -40.5l-131 -45l-47 317l133 43q229 72 422 72q477 0 477 -401v-449l111 -70l-156 -264l-102 51q-65 39 -172 17l-45 -8q-178 -39 -277 -39q-198 0 -311 94t-113 260zM205 1227v299h837v-299 h-837zM477 354q0 -40 26.5 -60t69.5 -20q41 0 101 17l47 14v137h-127q-117 0 -117 -88z" />
<glyph unicode="&#x102;" horiz-adv-x="1550" d="M8 0l416 1309q75 233 367 233q287 0 358 -231l391 -1311h-536l-50 207h-360l-51 -207h-535zM379 1874h340q0 -49 20 -78t54 -29q36 0 55.5 28.5t19.5 78.5h338q0 -130 -117.5 -209.5t-295.5 -79.5q-180 0 -297 79.5t-117 209.5zM682 578h188l-92 428z" />
<glyph unicode="&#x103;" horiz-adv-x="1253" d="M59 342q0 369 519 369h139v14q0 53 -32 73.5t-95 20.5q-62 0 -153 -14.5t-167 -40.5l-131 -45l-47 317l133 43q229 72 422 72q477 0 477 -401v-449l111 -70l-156 -264l-102 51q-65 39 -172 17l-45 -8q-178 -39 -277 -39q-198 0 -311 94t-113 260zM182 1563h361 q0 -60 20 -94.5t55 -34.5q38 0 59 34.5t21 94.5h359q0 -108 -58.5 -191t-158 -126.5t-222.5 -43.5q-188 0 -312 99t-124 262zM477 354q0 -40 26.5 -60t69.5 -20q41 0 101 17l47 14v137h-127q-117 0 -117 -88z" />
<glyph unicode="&#x104;" horiz-adv-x="1550" d="M8 0l416 1309q75 233 367 233q287 0 358 -231l391 -1311h-2q-84 -51 -84 -111q0 -53 66 -53q94 0 204 49l45 -180q-138 -55 -284 -55q-113 0 -183.5 42.5t-70.5 127.5q0 60 34 108t83 72h-344l-50 207h-360l-51 -207h-535zM682 578h188l-92 428z" />
<glyph unicode="&#x105;" horiz-adv-x="1253" d="M59 342q0 369 519 369h139v14q0 53 -32 73.5t-95 20.5q-62 0 -153 -14.5t-167 -40.5l-131 -45l-47 317l133 43q229 72 422 72q477 0 477 -401v-449l111 -70l-156 -264q-27 -16 -45 -43t-18 -57q0 -51 65 -51q94 0 207 47l43 -178q-146 -58 -284 -58q-121 0 -187.5 50.5 t-66.5 140.5q0 74 35.5 132t91.5 89q-55 9 -115 -4l-45 -8q-178 -39 -277 -39q-198 0 -311 94t-113 260zM477 354q0 -40 26.5 -60t69.5 -20q41 0 101 17l47 14v137h-127q-117 0 -117 -88z" />
<glyph unicode="&#x106;" horiz-adv-x="1423" d="M57 764q0 248 96.5 424.5t265 263t392.5 86.5q233 0 440 -72l133 -41l-57 -415l-135 45q-137 47 -305 47q-273 0 -273 -338q0 -336 273 -336q175 0 305 47l135 43l57 -420l-133 -41q-204 -71 -446 -71q-168 0 -305 50.5t-236 147.5t-153 245t-54 335zM563 1681 q0 28 9.5 50t41.5 47l131 96h494l-375 -236q-84 -53 -170 -53q-65 0 -98 28t-33 68z" />
<glyph unicode="&#x107;" horiz-adv-x="1099" d="M59 567q0 280 154 431t410 151q176 0 327 -53l99 -31l-43 -338l-91 29q-128 47 -237 47q-180 0 -180 -236q0 -237 180 -237q109 0 237 47l91 29l43 -336l-99 -31q-151 -53 -327 -53q-168 0 -294 65.5t-198 198t-72 317.5zM367 1321q0 35 11.5 62.5t45.5 58.5l137 121h524 l-399 -295q-43 -33 -83.5 -49.5t-96.5 -16.5q-67 0 -103 35t-36 84z" />
<glyph unicode="&#x108;" horiz-adv-x="1423" d="M57 764q0 248 96.5 424.5t265 263t392.5 86.5q233 0 440 -72l133 -41l-57 -415l-135 45q-137 47 -305 47q-273 0 -273 -338q0 -336 273 -336q175 0 305 47l135 43l57 -420l-133 -41q-204 -71 -446 -71q-168 0 -305 50.5t-236 147.5t-153 245t-54 335zM373 1595l231 222 q78 67 211 67q137 0 213 -67l236 -222h-381l-68 86l-59 -86h-383z" />
<glyph unicode="&#x109;" horiz-adv-x="1099" d="M59 567q0 280 154 431t410 151q176 0 327 -53l99 -31l-43 -338l-91 29q-128 47 -237 47q-180 0 -180 -236q0 -237 180 -237q109 0 237 47l91 29l43 -336l-99 -31q-151 -53 -327 -53q-168 0 -294 65.5t-198 198t-72 317.5zM158 1210l243 277q79 82 222 82q144 0 223 -82 l248 -277h-402l-69 107l-64 -107h-401z" />
<glyph unicode="&#x10a;" horiz-adv-x="1423" d="M57 764q0 248 96.5 424.5t265 263t392.5 86.5q233 0 440 -72l133 -41l-57 -415l-135 45q-137 47 -305 47q-273 0 -273 -338q0 -336 273 -336q175 0 305 47l135 43l57 -420l-133 -41q-204 -71 -446 -71q-168 0 -305 50.5t-236 147.5t-153 245t-54 335zM594 1751 q0 76 59 121t162 45q102 0 160.5 -45t58.5 -121q0 -77 -58.5 -121.5t-160.5 -44.5q-104 0 -162.5 44.5t-58.5 121.5z" />
<glyph unicode="&#x10b;" horiz-adv-x="1099" d="M59 567q0 280 154 431t410 151q176 0 327 -53l99 -31l-43 -338l-91 29q-128 47 -237 47q-180 0 -180 -236q0 -237 180 -237q109 0 237 47l91 29l43 -336l-99 -31q-151 -53 -327 -53q-168 0 -294 65.5t-198 198t-72 317.5zM399 1389q0 89 61.5 141.5t170.5 52.5 q108 0 168.5 -52.5t60.5 -141.5q0 -92 -60.5 -145.5t-168.5 -53.5q-109 0 -170.5 53.5t-61.5 145.5z" />
<glyph unicode="&#x10c;" horiz-adv-x="1423" d="M57 764q0 248 96.5 424.5t265 263t392.5 86.5q233 0 440 -72l133 -41l-57 -415l-135 45q-137 47 -305 47q-273 0 -273 -338q0 -336 273 -336q175 0 305 47l135 43l57 -420l-133 -41q-204 -71 -446 -71q-168 0 -305 50.5t-236 147.5t-153 245t-54 335zM377 1872h383 l65 -88l60 88h383l-232 -221q-69 -66 -211 -66q-141 0 -213 66z" />
<glyph unicode="&#x10d;" horiz-adv-x="1099" d="M59 567q0 280 154 431t410 151q176 0 327 -53l99 -31l-43 -338l-91 29q-128 47 -237 47q-180 0 -180 -236q0 -237 180 -237q109 0 237 47l91 29l43 -336l-99 -31q-151 -53 -327 -53q-168 0 -294 65.5t-198 198t-72 317.5zM160 1567h401l70 -107l63 107h402l-244 -275 q-74 -84 -221 -84q-148 0 -223 84z" />
<glyph unicode="&#x10e;" horiz-adv-x="1533" d="M76 225v1073q0 106 63 166t178 60h400q353 0 556.5 -203.5t203.5 -562.5q0 -358 -206 -558t-558 -200h-396q-115 0 -178 59.5t-63 165.5zM276 1872h383l66 -88l59 88h383l-231 -221q-69 -66 -211 -66q-141 0 -213 66zM612 395h95q117 0 179 91.5t62 271.5t-66 277.5 t-186 97.5h-84v-738z" />
<glyph unicode="&#x10f;" horiz-adv-x="1677" d="M59 561q0 280 126.5 431t381.5 151q37 0 77.5 -6.5t62.5 -13.5l22 -7v404l432 75v-1343q0 -85 -35 -131.5t-122 -77.5q-154 -55 -371 -55q-269 0 -421.5 151t-152.5 422zM481 565q0 -252 168 -252q27 0 80 9v471q-53 18 -94 18q-79 0 -116.5 -57.5t-37.5 -188.5z M1257 1233l76 348h365l-125 -420q-18 -64 -58 -97.5t-112 -33.5q-100 0 -134 56.5t-12 146.5z" />
<glyph unicode="&#x110;" horiz-adv-x="1581" d="M20 645v246h103v407q0 106 63.5 166t178.5 60h399q353 0 555.5 -203.5t202.5 -562.5q0 -358 -205.5 -558t-556.5 -200h-395q-115 0 -178.5 59.5t-63.5 165.5v420h-103zM659 395h95q116 0 178.5 92t62.5 271t-67 277t-187 98h-82v-242h213v-246h-213v-250z" />
<glyph unicode="&#x111;" horiz-adv-x="1236" d="M59 561q0 280 126.5 431t381.5 151q37 0 77.5 -6.5t62.5 -13.5l22 -7v90h-289v250h289v64l432 75v-139h70v-250h-70v-954q0 -85 -35 -131.5t-122 -77.5q-154 -55 -371 -55q-269 0 -421.5 151t-152.5 422zM481 565q0 -252 168 -252q27 0 80 9v471q-53 18 -94 18 q-79 0 -116.5 -57.5t-37.5 -188.5z" />
<glyph unicode="&#x112;" horiz-adv-x="1314" d="M76 225v1073q0 106 63 166t178 60h934v-379h-639v-191h557v-362h-557v-213h643v-379h-938q-115 0 -178 59.5t-63 165.5zM299 1593v238h795v-238h-795z" />
<glyph unicode="&#x113;" horiz-adv-x="1200" d="M59 565q0 145 44.5 259t122 184.5t177 106.5t215.5 36q254 0 393.5 -139t139.5 -418q0 -79 -36.5 -113.5t-119.5 -34.5h-522q27 -133 211 -133q161 0 303 43l107 33l43 -301l-109 -35q-205 -65 -381 -65q-275 0 -431.5 148t-156.5 429zM188 1227v299h838v-299h-838z M471 707h268q0 68 -33.5 109.5t-101.5 41.5q-59 0 -93 -39.5t-40 -111.5z" />
<glyph unicode="&#x114;" horiz-adv-x="1314" d="M76 225v1073q0 106 63 166t178 60h934v-379h-639v-191h557v-362h-557v-213h643v-379h-938q-115 0 -178 59.5t-63 165.5zM285 1874h340q0 -49 19.5 -78t53.5 -29q36 0 56 28.5t20 78.5h338q0 -130 -118 -209.5t-296 -79.5q-180 0 -296.5 79.5t-116.5 209.5z" />
<glyph unicode="&#x115;" horiz-adv-x="1200" d="M59 565q0 145 44.5 259t122 184.5t177 106.5t215.5 36q254 0 393.5 -139t139.5 -418q0 -79 -36.5 -113.5t-119.5 -34.5h-522q27 -133 211 -133q161 0 303 43l107 33l43 -301l-109 -35q-205 -65 -381 -65q-275 0 -431.5 148t-156.5 429zM174 1563h361q0 -60 20 -94.5 t55 -34.5q38 0 59 34.5t21 94.5h359q0 -108 -58.5 -191t-158 -126.5t-222.5 -43.5q-188 0 -312 99t-124 262zM471 707h268q0 68 -33.5 109.5t-101.5 41.5q-59 0 -93 -39.5t-40 -111.5z" />
<glyph unicode="&#x116;" horiz-adv-x="1314" d="M76 225v1073q0 106 63 166t178 60h934v-379h-639v-191h557v-362h-557v-213h643v-379h-938q-115 0 -178 59.5t-63 165.5zM502 1751q0 76 59 121t162 45q102 0 160.5 -45t58.5 -121q0 -77 -58.5 -121.5t-160.5 -44.5q-104 0 -162.5 44.5t-58.5 121.5z" />
<glyph unicode="&#x117;" horiz-adv-x="1200" d="M59 565q0 145 44.5 259t122 184.5t177 106.5t215.5 36q254 0 393.5 -139t139.5 -418q0 -79 -36.5 -113.5t-119.5 -34.5h-522q27 -133 211 -133q161 0 303 43l107 33l43 -301l-109 -35q-205 -65 -381 -65q-275 0 -431.5 148t-156.5 429zM383 1389q0 89 61 141.5t170 52.5 q108 0 169 -52.5t61 -141.5q0 -92 -61 -145.5t-169 -53.5q-109 0 -170 53.5t-61 145.5zM471 707h268q0 68 -33.5 109.5t-101.5 41.5q-59 0 -93 -39.5t-40 -111.5z" />
<glyph unicode="&#x118;" horiz-adv-x="1314" d="M76 225v1073q0 106 63 166t178 60h934v-379h-639v-191h557v-362h-557v-213h643v-379h-172q-84 -51 -84 -111q0 -53 66 -53q95 0 205 49l45 -180q-138 -55 -285 -55q-113 0 -183.5 42.5t-70.5 127.5q0 60 34 108t83 72h-576q-115 0 -178 59.5t-63 165.5z" />
<glyph unicode="&#x119;" horiz-adv-x="1200" d="M59 565q0 145 44.5 259t122 184.5t177 106.5t215.5 36q254 0 393.5 -139t139.5 -418q0 -79 -36.5 -113.5t-119.5 -34.5h-522q27 -133 211 -133q161 0 303 43l107 33l43 -301l-109 -35q-121 -40 -219 -53l2 -2q-84 -51 -84 -111q0 -53 66 -53q94 0 204 49l45 -180 q-138 -55 -284 -55q-113 0 -183.5 42.5t-70.5 127.5q0 55 27.5 100t70.5 72q-255 11 -399 158.5t-144 416.5zM471 707h268q0 68 -33.5 109.5t-101.5 41.5q-59 0 -93 -39.5t-40 -111.5z" />
<glyph unicode="&#x11a;" horiz-adv-x="1314" d="M76 225v1073q0 106 63 166t178 60h934v-379h-639v-191h557v-362h-557v-213h643v-379h-938q-115 0 -178 59.5t-63 165.5zM242 1872h383l65 -88l60 88h383l-232 -221q-69 -66 -211 -66q-141 0 -213 66z" />
<glyph unicode="&#x11b;" horiz-adv-x="1200" d="M59 565q0 145 44.5 259t122 184.5t177 106.5t215.5 36q254 0 393.5 -139t139.5 -418q0 -79 -36.5 -113.5t-119.5 -34.5h-522q27 -133 211 -133q161 0 303 43l107 33l43 -301l-109 -35q-205 -65 -381 -65q-275 0 -431.5 148t-156.5 429zM139 1567h402l69 -107l64 107h401 l-244 -275q-74 -84 -221 -84q-148 0 -223 84zM471 707h268q0 68 -33.5 109.5t-101.5 41.5q-59 0 -93 -39.5t-40 -111.5z" />
<glyph unicode="&#x11c;" horiz-adv-x="1558" d="M57 764q0 367 209.5 570.5t562.5 203.5q218 0 471 -74l140 -41l-64 -419l-141 45q-178 53 -342 53q-150 0 -229.5 -91.5t-79.5 -260.5q0 -193 75 -289t232 -96l88 4v161h-234v353h482q114 0 177.5 -60t63.5 -166v-387q0 -113 -125 -180q-181 -102 -526 -102 q-353 0 -556.5 204t-203.5 572zM385 1595l231 222q78 67 211 67q137 0 213 -67l236 -222h-381l-68 86l-59 -86h-383z" />
<glyph unicode="&#x11d;" horiz-adv-x="1265" d="M59 758q0 188 139.5 278t387.5 90h104q97 0 193 29l295 86l69 -297l-155 -41q5 -6 12.5 -16.5t20 -48t12.5 -80.5q0 -171 -134.5 -256.5t-375.5 -85.5l-60 4q-1 0 0.5 -5.5t3.5 -17t2 -22.5q0 -16 -4 -30t-8 -20l-4 -6h246q420 0 420 -311q0 -178 -150.5 -274t-437.5 -96 q-178 0 -304 35t-198 113t-72 196q0 116 76 213l82 108q35 46 35 92q0 30 -11.5 51t-39.5 43q-27 22 -46.5 42t-45 53.5t-39 78t-13.5 95.5zM150 1241l243 277q78 81 221 81q146 0 224 -81l247 -277h-401l-70 107l-63 -107h-401zM440 -12q0 -50 45 -69t152 -19q213 0 213 90 q0 61 -84 61h-313q1 0 0 -2.5t-3 -9t-4.5 -13.5t-4 -17.5t-1.5 -20.5zM459 760q0 -105 137 -105q63 0 101 26.5t38 78.5q0 98 -139 98q-137 0 -137 -98z" />
<glyph unicode="&#x11e;" horiz-adv-x="1558" d="M57 764q0 367 209.5 570.5t562.5 203.5q218 0 471 -74l140 -41l-64 -419l-141 45q-178 53 -342 53q-150 0 -229.5 -91.5t-79.5 -260.5q0 -193 75 -289t232 -96l88 4v161h-234v353h482q114 0 177.5 -60t63.5 -166v-387q0 -113 -125 -180q-181 -102 -526 -102 q-353 0 -556.5 204t-203.5 572zM403 1874h340q0 -49 20 -78t54 -29q36 0 56 28.5t20 78.5h338q0 -130 -118 -209.5t-296 -79.5q-180 0 -297 79.5t-117 209.5z" />
<glyph unicode="&#x11f;" horiz-adv-x="1265" d="M59 758q0 188 139.5 278t387.5 90h104q97 0 193 29l295 86l69 -297l-155 -41q5 -6 12.5 -16.5t20 -48t12.5 -80.5q0 -171 -134.5 -256.5t-375.5 -85.5l-60 4q-1 0 0.5 -5.5t3.5 -17t2 -22.5q0 -16 -4 -30t-8 -20l-4 -6h246q420 0 420 -311q0 -178 -150.5 -274t-437.5 -96 q-178 0 -304 35t-198 113t-72 196q0 116 76 213l82 108q35 46 35 92q0 30 -11.5 51t-39.5 43q-27 22 -46.5 42t-45 53.5t-39 78t-13.5 95.5zM184 1563h361q0 -60 20.5 -94.5t55.5 -34.5q38 0 58.5 34t20.5 95h359q0 -163 -125 -262t-313 -99t-312.5 99t-124.5 262zM440 -12 q0 -50 45 -69t152 -19q213 0 213 90q0 61 -84 61h-313q1 0 0 -2.5t-3 -9t-4.5 -13.5t-4 -17.5t-1.5 -20.5zM459 760q0 -105 137 -105q63 0 101 26.5t38 78.5q0 98 -139 98q-137 0 -137 -98z" />
<glyph unicode="&#x120;" horiz-adv-x="1558" d="M57 764q0 367 209.5 570.5t562.5 203.5q218 0 471 -74l140 -41l-64 -419l-141 45q-178 53 -342 53q-150 0 -229.5 -91.5t-79.5 -260.5q0 -193 75 -289t232 -96l88 4v161h-234v353h482q114 0 177.5 -60t63.5 -166v-387q0 -113 -125 -180q-181 -102 -526 -102 q-353 0 -556.5 204t-203.5 572zM600 1751q0 76 59 121t162 45q102 0 160.5 -45t58.5 -121q0 -77 -58.5 -121.5t-160.5 -44.5q-104 0 -162.5 44.5t-58.5 121.5z" />
<glyph unicode="&#x121;" horiz-adv-x="1265" d="M59 758q0 188 139.5 278t387.5 90h104q97 0 193 29l295 86l69 -297l-155 -41q5 -6 12.5 -16.5t20 -48t12.5 -80.5q0 -171 -134.5 -256.5t-375.5 -85.5l-60 4q-1 0 0.5 -5.5t3.5 -17t2 -22.5q0 -16 -4 -30t-8 -20l-4 -6h246q420 0 420 -311q0 -178 -150.5 -274t-437.5 -96 q-178 0 -304 35t-198 113t-72 196q0 116 76 213l82 108q35 46 35 92q0 30 -11.5 51t-39.5 43q-27 22 -46.5 42t-45 53.5t-39 78t-13.5 95.5zM395 1389q0 89 61.5 141.5t170.5 52.5q108 0 168.5 -52.5t60.5 -141.5q0 -92 -60.5 -145.5t-168.5 -53.5q-109 0 -170.5 53.5 t-61.5 145.5zM440 -12q0 -50 45 -69t152 -19q213 0 213 90q0 61 -84 61h-313q1 0 0 -2.5t-3 -9t-4.5 -13.5t-4 -17.5t-1.5 -20.5zM459 760q0 -105 137 -105q63 0 101 26.5t38 78.5q0 98 -139 98q-137 0 -137 -98z" />
<glyph unicode="&#x122;" horiz-adv-x="1558" d="M57 764q0 367 209.5 570.5t562.5 203.5q218 0 471 -74l140 -41l-64 -419l-141 45q-178 53 -342 53q-150 0 -229.5 -91.5t-79.5 -260.5q0 -193 75 -289t232 -96l88 4v161h-234v353h482q114 0 177.5 -60t63.5 -166v-387q0 -113 -125 -180q-181 -102 -526 -102 q-353 0 -556.5 204t-203.5 572zM553 -248l45 172h393l-76 -243q-20 -65 -62.5 -98.5t-125.5 -33.5q-105 0 -150 58t-24 145z" />
<glyph unicode="&#x123;" horiz-adv-x="1265" d="M59 758q0 188 139.5 278t387.5 90h104q97 0 193 29l295 86l69 -297l-155 -41q5 -6 12.5 -16.5t20 -48t12.5 -80.5q0 -171 -134.5 -256.5t-375.5 -85.5l-60 4q-1 0 0.5 -5.5t3.5 -17t2 -22.5q0 -16 -4 -30t-8 -20l-4 -6h246q420 0 420 -311q0 -178 -150.5 -274t-437.5 -96 q-178 0 -304 35t-198 113t-72 196q0 116 76 213l82 108q35 46 35 92q0 30 -11.5 51t-39.5 43q-27 22 -46.5 42t-45 53.5t-39 78t-13.5 95.5zM391 1212l103 340q41 131 194 131q105 0 146.5 -57t23.5 -145l-55 -269h-412zM440 -12q0 -50 45 -69t152 -19q213 0 213 90 q0 61 -84 61h-313q1 0 0 -2.5t-3 -9t-4.5 -13.5t-4 -17.5t-1.5 -20.5zM459 760q0 -105 137 -105q63 0 101 26.5t38 78.5q0 98 -139 98q-137 0 -137 -98z" />
<glyph unicode="&#x124;" horiz-adv-x="1501" d="M76 0v1524h538v-561h273v561h538v-1524h-538v582h-273v-582h-538zM311 1595l232 222q78 67 211 67q137 0 213 -67l235 -222h-381l-67 86l-60 -86h-383z" />
<glyph unicode="&#x125;" d="M78 0v1520l438 75v-479q84 27 182 27q122 0 208.5 -29.5t134 -86t68.5 -126.5t21 -162v-739h-430v700q0 41 -18.5 63.5t-67.5 22.5q-45 0 -98 -18v-768h-438zM162 1638l231 222q78 67 211 67q137 0 213 -67l236 -222h-381l-68 86l-59 -86h-383z" />
<glyph unicode="&#x126;" horiz-adv-x="1501" d="M0 1092v266h76v166h538v-166h273v166h538v-166h76v-266h-76v-1092h-538v582h-273v-582h-538v1092h-76zM614 963h273v129h-273v-129z" />
<glyph unicode="&#x127;" d="M6 1206v250h72v64l438 75v-139h281v-250h-281v-90q1 0 14 3.5t30 7t39 7.5t48.5 6.5t50.5 2.5q122 0 208.5 -29.5t134 -86t68.5 -126.5t21 -162v-739h-430v700q0 41 -18.5 63.5t-67.5 22.5q-45 0 -98 -18v-768h-438v1206h-72z" />
<glyph unicode="&#x128;" horiz-adv-x="698" d="M-96 1683q101 211 309 211q97 0 174 -45l47 -26q43 -19 76 -19q61 0 108 92l185 -98q-101 -213 -309 -213q-98 0 -175 45l-49 27q-32 20 -73 20q-63 0 -111 -92zM76 0v1524h547v-1524h-547z" />
<glyph unicode="&#x129;" horiz-adv-x="573" d="M-178 1317q104 268 334 268q96 0 182 -59l43 -29q39 -27 80 -27q34 0 60.5 27.5t53.5 87.5l191 -125q-104 -266 -332 -266q-102 0 -182 57l-43 29q-41 29 -80 29q-35 0 -61.5 -27t-53.5 -86zM74 0v1137h424v-1137h-424z" />
<glyph unicode="&#x12a;" horiz-adv-x="698" d="M-47 1593v238h795v-238h-795zM76 0v1524h547v-1524h-547z" />
<glyph unicode="&#x12b;" horiz-adv-x="573" d="M-127 1227v299h838v-299h-838zM74 0v1137h424v-1137h-424z" />
<glyph unicode="&#x12c;" horiz-adv-x="698" d="M-55 1874h340q0 -49 19.5 -78t53.5 -29q36 0 56 28.5t20 78.5h338q0 -130 -118 -209.5t-296 -79.5q-180 0 -296.5 79.5t-116.5 209.5zM76 0v1524h547v-1524h-547z" />
<glyph unicode="&#x12d;" horiz-adv-x="573" d="M-147 1563h360q0 -60 20.5 -94.5t55.5 -34.5q38 0 59 34.5t21 94.5h358q0 -163 -125 -262t-313 -99t-312 99t-124 262zM74 0v1137h424v-1137h-424z" />
<glyph unicode="&#x12e;" horiz-adv-x="698" d="M76 0v1524h547v-1524h-2q-84 -51 -84 -111q0 -53 65 -53q95 0 205 49l45 -180q-138 -55 -285 -55q-113 0 -183.5 42.5t-70.5 127.5q0 60 34 108t83 72h-354z" />
<glyph unicode="&#x12f;" horiz-adv-x="573" d="M55 1389q0 89 62 141.5t170 52.5t168.5 -52.5t60.5 -141.5q0 -92 -60.5 -145.5t-168.5 -53.5t-170 54t-62 145zM74 0v1137h424v-1137h-2q-84 -51 -84 -111q0 -53 65 -53q95 0 205 49l45 -180q-138 -55 -285 -55q-113 0 -183.5 42.5t-70.5 127.5q0 60 34 108t83 72h-231z " />
<glyph unicode="&#x130;" horiz-adv-x="698" d="M76 0v1524h547v-1524h-547zM135 1751q0 76 59 121t162 45q102 0 160.5 -45t58.5 -121q0 -77 -58.5 -121.5t-160.5 -44.5q-104 0 -162.5 44.5t-58.5 121.5z" />
<glyph unicode="&#x131;" horiz-adv-x="573" d="M74 0v1137h424v-1137h-424z" />
<glyph unicode="&#x134;" horiz-adv-x="1093" d="M41 72l61 385q137 -45 224 -45q80 0 115.5 33.5t35.5 111.5v967h539v-1012q0 -248 -150 -380t-415 -132q-180 0 -410 72zM299 1595l231 222q78 67 211 67q137 0 213 -67l236 -222h-381l-68 86l-59 -86h-383z" />
<glyph unicode="&#x135;" horiz-adv-x="581" d="M-174 1210l244 277q79 82 221 82q144 0 223 -82l248 -277h-402l-69 107l-64 -107h-401zM-33 -74q63 1 90 27t27 78v1106h422v-1112q0 -396 -539 -396v297z" />
<glyph unicode="&#x136;" horiz-adv-x="1529" d="M76 0v1524h528v-471l324 471h585l-397 -531l377 -993h-569l-195 563l-47 -65q-41 -51 -59.5 -96.5t-18.5 -120.5v-281h-528zM506 -248l45 172h393l-76 -243q-20 -65 -62.5 -98.5t-125.5 -33.5q-105 0 -150 58t-24 145z" />
<glyph unicode="&#x137;" horiz-adv-x="1128" d="M78 0v1520l428 75v-786l227 328h502l-287 -373l287 -764h-487l-134 395l-45 -63q-33 -44 -48 -82t-15 -100v-150h-428zM373 -248l45 172h393l-76 -243q-20 -65 -62.5 -98.5t-125.5 -33.5q-105 0 -150 58t-24 145z" />
<glyph unicode="&#x138;" horiz-adv-x="1296" d="M78 0v1137h428v-430q28 4 55 21.5t50 43t47.5 57.5t53 66.5t62 68.5t78.5 64.5t97.5 54t124 37t153.5 13.5v-396q-128 0 -234 -86l242 -651h-487l-113 336q-65 -25 -129 -39v-297h-428z" />
<glyph unicode="&#x139;" horiz-adv-x="1273" d="M76 225v1299h542v-1102h596v-422h-897q-115 0 -178 59.5t-63 165.5zM352 1681q0 28 9.5 50t41.5 47l132 96h493l-375 -236q-84 -53 -170 -53q-65 0 -98 28t-33 68z" />
<glyph unicode="&#x13a;" horiz-adv-x="595" d="M39 1694q0 28 9.5 49.5t41.5 46.5l131 96h494l-375 -235q-85 -54 -170 -54q-65 0 -98 28.5t-33 68.5zM78 0v1520l442 75v-1595h-442z" />
<glyph unicode="&#x13b;" horiz-adv-x="1273" d="M76 225v1299h542v-1102h596v-422h-897q-115 0 -178 59.5t-63 165.5zM403 -248l46 172h393l-76 -243q-20 -65 -62.5 -98.5t-125.5 -33.5q-105 0 -150.5 58t-24.5 145z" />
<glyph unicode="&#x13c;" horiz-adv-x="595" d="M41 -248l45 172h393l-76 -243q-20 -65 -62.5 -98.5t-125.5 -33.5q-105 0 -150 58t-24 145zM78 0v1520l442 75v-1595h-442z" />
<glyph unicode="&#x13d;" horiz-adv-x="1273" d="M76 225v1299h542v-1102h596v-422h-897q-115 0 -178 59.5t-63 165.5zM760 1190l82 373h377l-123 -437q-33 -114 -178 -114q-97 0 -137.5 50.5t-20.5 127.5z" />
<glyph unicode="&#x13e;" horiz-adv-x="1030" d="M78 0v1520l442 75v-1595h-442zM612 1233l76 348h363l-123 -420q-18 -64 -58 -97.5t-112 -33.5q-101 0 -135.5 56.5t-10.5 146.5z" />
<glyph unicode="&#x13f;" horiz-adv-x="1273" d="M76 225v1299h542v-1102h596v-422h-897q-115 0 -178 59.5t-63 165.5zM715 739q0 94 61 150.5t170 56.5q107 0 168.5 -56.5t61.5 -150.5q0 -96 -61 -152.5t-169 -56.5q-109 0 -170 56.5t-61 152.5z" />
<glyph unicode="&#x140;" horiz-adv-x="1003" d="M78 0v1520l442 75v-1595h-442zM565 739q0 94 61.5 150.5t170.5 56.5q107 0 168 -56.5t61 -150.5q0 -96 -60.5 -152.5t-168.5 -56.5q-109 0 -170.5 56.5t-61.5 152.5z" />
<glyph unicode="&#x141;" horiz-adv-x="1316" d="M20 584v272l101 33v635h543v-449l305 105v-275l-305 -104v-379h593v-422h-895q-115 0 -178 59.5t-63 165.5v391z" />
<glyph unicode="&#x142;" horiz-adv-x="688" d="M20 592v285l99 45v598l444 73v-463l105 50v-285l-105 -49v-846h-444v637z" />
<glyph unicode="&#x143;" horiz-adv-x="1509" d="M76 0v1219q0 153 100 236t283 83q72 0 129 -14.5t95.5 -38.5t71 -64.5t53.5 -80.5t44 -99l192 -514v797h459v-1219q0 -155 -99.5 -237t-283.5 -82q-72 0 -128.5 15t-95 38t-71 64t-53.5 80.5t-45 99.5l-192 512v-795h-459zM508 1681q0 28 9.5 50t41.5 47l131 96h494 l-375 -236q-84 -53 -170 -53q-65 0 -98 28t-33 68z" />
<glyph unicode="&#x144;" horiz-adv-x="1206" d="M78 0v883q0 87 40.5 135.5t129.5 75.5q190 55 377 55q259 0 382 -106.5t123 -297.5v-745h-430v707q0 86 -86 86q-40 0 -98 -19v-774h-438zM299 1321q0 35 11.5 62.5t45.5 58.5l138 121h524l-400 -295q-43 -33 -83.5 -49.5t-96.5 -16.5q-67 0 -103 35t-36 84z" />
<glyph unicode="&#x145;" horiz-adv-x="1509" d="M76 0v1219q0 153 100 236t283 83q72 0 129 -14.5t95.5 -38.5t71 -64.5t53.5 -80.5t44 -99l192 -514v797h459v-1219q0 -155 -99.5 -237t-283.5 -82q-72 0 -128.5 15t-95 38t-71 64t-53.5 80.5t-45 99.5l-192 512v-795h-459zM522 -248l45 172h394l-76 -243 q-20 -65 -63 -98.5t-126 -33.5q-105 0 -150 58t-24 145z" />
<glyph unicode="&#x146;" horiz-adv-x="1206" d="M78 0v883q0 87 40.5 135.5t129.5 75.5q190 55 377 55q259 0 382 -106.5t123 -297.5v-745h-430v707q0 86 -86 86q-40 0 -98 -19v-774h-438zM367 -248l45 172h393l-76 -243q-20 -65 -62.5 -98.5t-125.5 -33.5q-105 0 -150 58t-24 145z" />
<glyph unicode="&#x147;" horiz-adv-x="1509" d="M76 0v1219q0 153 100 236t283 83q72 0 129 -14.5t95.5 -38.5t71 -64.5t53.5 -80.5t44 -99l192 -514v797h459v-1219q0 -155 -99.5 -237t-283.5 -82q-72 0 -128.5 15t-95 38t-71 64t-53.5 80.5t-45 99.5l-192 512v-795h-459zM315 1872h383l66 -88l59 88h383l-231 -221 q-69 -66 -211 -66q-141 0 -213 66z" />
<glyph unicode="&#x148;" horiz-adv-x="1206" d="M78 0v883q0 87 40.5 135.5t129.5 75.5q190 55 377 55q259 0 382 -106.5t123 -297.5v-745h-430v707q0 86 -86 86q-40 0 -98 -19v-774h-438zM137 1567h402l69 -107l64 107h401l-244 -275q-74 -84 -221 -84q-148 0 -223 84z" />
<glyph unicode="&#x14a;" horiz-adv-x="1579" d="M76 0v1219q0 153 100 236t283 83q89 0 154 -16t109.5 -50.5t72 -72t57.5 -96.5l192 -390v611h459v-1518q0 -195 -141.5 -290t-433.5 -95v275q65 1 90.5 19.5t25.5 61.5v21l-509 844v-842h-459z" />
<glyph unicode="&#x14b;" horiz-adv-x="1206" d="M78 0v883q0 87 40.5 135.5t129.5 75.5q190 55 377 55q259 0 382 -106.5t123 -297.5v-720q0 -396 -546 -396v297q63 1 89.5 26.5t26.5 78.5v676q0 86 -86 86q-40 0 -98 -19v-774h-438z" />
<glyph unicode="&#x14c;" horiz-adv-x="1681" d="M57 760q0 243 99 419.5t276 266.5t412 90q359 0 569.5 -204.5t210.5 -571.5q0 -185 -57 -331.5t-160.5 -243.5t-248.5 -148t-322 -51q-358 0 -568.5 204t-210.5 570zM449 1593v238h794v-238h-794zM598 760q0 -195 62.5 -299.5t183.5 -104.5q116 0 175.5 103.5t59.5 300.5 q0 194 -62 299.5t-181 105.5q-117 0 -177.5 -105.5t-60.5 -299.5z" />
<glyph unicode="&#x14d;" horiz-adv-x="1280" d="M59 567q0 277 156.5 429.5t427.5 152.5q273 0 425.5 -152t152.5 -430q0 -276 -155.5 -427.5t-426.5 -151.5q-275 0 -427.5 151.5t-152.5 427.5zM227 1227v299h838v-299h-838zM498 567q0 -145 35 -212.5t110 -67.5q74 0 108.5 68.5t34.5 211.5t-36 212t-111 69t-108 -69.5 t-33 -211.5z" />
<glyph unicode="&#x14e;" horiz-adv-x="1681" d="M57 760q0 243 99 419.5t276 266.5t412 90q359 0 569.5 -204.5t210.5 -571.5q0 -185 -57 -331.5t-160.5 -243.5t-248.5 -148t-322 -51q-358 0 -568.5 204t-210.5 570zM440 1874h340q0 -49 20 -78t54 -29q36 0 56 28.5t20 78.5h338q0 -130 -118 -209.5t-296 -79.5 q-180 0 -297 79.5t-117 209.5zM598 760q0 -195 62.5 -299.5t183.5 -104.5q116 0 175.5 103.5t59.5 300.5q0 194 -62 299.5t-181 105.5q-117 0 -177.5 -105.5t-60.5 -299.5z" />
<glyph unicode="&#x14f;" horiz-adv-x="1280" d="M59 567q0 277 156.5 429.5t427.5 152.5q273 0 425.5 -152t152.5 -430q0 -276 -155.5 -427.5t-426.5 -151.5q-275 0 -427.5 151.5t-152.5 427.5zM203 1563h360q0 -60 20.5 -94.5t55.5 -34.5q38 0 59 34.5t21 94.5h358q0 -163 -125 -262t-313 -99t-312 99t-124 262z M498 567q0 -145 35 -212.5t110 -67.5q74 0 108.5 68.5t34.5 211.5t-36 212t-111 69t-108 -69.5t-33 -211.5z" />
<glyph unicode="&#x150;" horiz-adv-x="1681" d="M57 760q0 243 99 419.5t276 266.5t412 90q359 0 569.5 -204.5t210.5 -571.5q0 -185 -57 -331.5t-160.5 -243.5t-248.5 -148t-322 -51q-358 0 -568.5 204t-210.5 570zM492 1681q0 48 34 80l125 113h379l-248 -227q-65 -62 -166 -62q-59 0 -91.5 27t-32.5 69zM598 760 q0 -195 62.5 -299.5t183.5 -104.5q116 0 175.5 103.5t59.5 300.5q0 194 -62 299.5t-181 105.5q-117 0 -177.5 -105.5t-60.5 -299.5zM952 1681q0 48 37 80l119 113h381l-242 -227q-68 -62 -168 -62q-59 0 -93 27.5t-34 68.5z" />
<glyph unicode="&#x151;" horiz-adv-x="1280" d="M59 567q0 277 156.5 429.5t427.5 152.5q273 0 425.5 -152t152.5 -430q0 -276 -155.5 -427.5t-426.5 -151.5q-275 0 -427.5 151.5t-152.5 427.5zM258 1323q0 55 37 100l133 140h399l-260 -283q-69 -78 -178 -78q-61 0 -96 34t-35 87zM498 567q0 -145 35 -212.5t110 -67.5 q74 0 108.5 68.5t34.5 211.5t-36 212t-111 69t-108 -69.5t-33 -211.5zM745 1323q0 59 41 100l123 140h406l-260 -283q-72 -78 -176 -78q-62 0 -98 34.5t-36 86.5z" />
<glyph unicode="&#x152;" horiz-adv-x="2158" d="M57 758q0 359 203.5 562.5t556.5 203.5h1280v-379h-639v-191h557v-362h-557v-213h643v-379h-1280q-352 0 -558 200t-206 558zM586 758q0 -179 62.5 -271t178.5 -92h95v738h-82q-120 0 -187 -98t-67 -277z" />
<glyph unicode="&#x153;" horiz-adv-x="1931" d="M59 567q0 277 156.5 429.5t427.5 152.5q224 0 363 -102q140 104 344 104q254 0 393 -139t139 -418q0 -79 -36.5 -113.5t-119.5 -34.5h-522q27 -133 211 -133q161 0 303 43l107 33l43 -301l-109 -35q-205 -65 -381 -65q-237 0 -374 102q-138 -102 -365 -102 q-275 0 -427.5 151.5t-152.5 427.5zM498 567q0 -145 35 -212.5t110 -67.5q74 0 108.5 68.5t34.5 211.5t-36 212t-111 69t-108 -69.5t-33 -211.5zM1202 707h268q0 68 -33.5 109.5t-101.5 41.5q-59 0 -93 -39.5t-40 -111.5z" />
<glyph unicode="&#x154;" horiz-adv-x="1499" d="M76 0v1298q0 106 63 166t178 60h566q251 0 392.5 -125t141.5 -350q0 -96 -40.5 -188.5t-106.5 -164.5l-49 -55l260 -641h-563l-175 494h-131v-494h-536zM496 1681q0 28 9.5 50t41.5 47l131 96h493l-374 -236q-84 -53 -170 -53q-65 0 -98 28t-33 68zM612 860h209l39 51 q45 59 45 119q0 125 -131 125h-162v-295z" />
<glyph unicode="&#x155;" horiz-adv-x="849" d="M78 0v874q0 89 41 138.5t129 74.5q207 58 559 58v-334q-191 0 -307 -33v-778h-422zM203 1321q0 35 11.5 62.5t45.5 58.5l137 121h525l-400 -295q-43 -33 -83.5 -49.5t-96.5 -16.5q-67 0 -103 35t-36 84z" />
<glyph unicode="&#x156;" horiz-adv-x="1499" d="M76 0v1298q0 106 63 166t178 60h566q251 0 392.5 -125t141.5 -350q0 -96 -40.5 -188.5t-106.5 -164.5l-49 -55l260 -641h-563l-175 494h-131v-494h-536zM510 -248l45 172h393l-76 -243q-20 -65 -62.5 -98.5t-125.5 -33.5q-105 0 -150 58t-24 145zM612 860h209l39 51 q45 59 45 119q0 125 -131 125h-162v-295z" />
<glyph unicode="&#x157;" horiz-adv-x="849" d="M41 -248l45 172h393l-76 -243q-20 -65 -62.5 -98.5t-125.5 -33.5q-105 0 -150 58t-24 145zM78 0v874q0 89 41 138.5t129 74.5q207 58 559 58v-334q-191 0 -307 -33v-778h-422z" />
<glyph unicode="&#x158;" horiz-adv-x="1499" d="M76 0v1298q0 106 63 166t178 60h566q251 0 392.5 -125t141.5 -350q0 -96 -40.5 -188.5t-106.5 -164.5l-49 -55l260 -641h-563l-175 494h-131v-494h-536zM291 1872h383l65 -88l60 88h383l-232 -221q-69 -66 -211 -66q-141 0 -213 66zM612 860h209l39 51q45 59 45 119 q0 125 -131 125h-162v-295z" />
<glyph unicode="&#x159;" horiz-adv-x="849" d="M10 1567h402l69 -107l64 107h401l-244 -275q-74 -84 -221 -84q-148 0 -223 84zM78 0v874q0 89 41 138.5t129 74.5q207 58 559 58v-334q-191 0 -307 -33v-778h-422z" />
<glyph unicode="&#x15a;" horiz-adv-x="1374" d="M57 102l74 430l158 -57q233 -86 418 -86q108 0 108 76q0 32 -23 50.5t-71 29.5l-234 43q-217 42 -322.5 147.5t-105.5 298.5q0 248 161.5 375t445.5 127q266 0 493 -70l158 -51l-78 -436l-158 61q-229 88 -411 88q-109 0 -109 -75q0 -66 94 -80l232 -43 q216 -41 322 -144.5t106 -296.5q0 -165 -78.5 -280.5t-213 -171t-314.5 -55.5q-142 0 -255 13.5t-237 53.5zM436 1681q0 28 9.5 50t41.5 47l131 96h494l-375 -236q-84 -53 -170 -53q-65 0 -98 28t-33 68z" />
<glyph unicode="&#x15b;" horiz-adv-x="1130" d="M57 86l56 324l129 -45q201 -74 333 -74q89 0 89 57q0 54 -76 60l-189 28q-172 25 -256 105.5t-84 228.5q0 185 131 282t355 97q216 0 401 -59l127 -41l-53 -322l-131 45q-208 74 -334 74q-88 0 -88 -60q0 -51 76 -57l188 -29q173 -25 257.5 -103.5t84.5 -225.5 q0 -185 -131.5 -284t-355.5 -99q-217 0 -402 59zM319 1321q0 68 58 121l137 121h524l-399 -295q-43 -33 -83.5 -49.5t-96.5 -16.5q-67 0 -103.5 35t-36.5 84z" />
<glyph unicode="&#x15c;" horiz-adv-x="1374" d="M57 102l74 430l158 -57q233 -86 418 -86q108 0 108 76q0 32 -23 50.5t-71 29.5l-234 43q-217 42 -322.5 147.5t-105.5 298.5q0 248 161.5 375t445.5 127q266 0 493 -70l158 -51l-78 -436l-158 61q-229 88 -411 88q-109 0 -109 -75q0 -66 94 -80l232 -43 q216 -41 322 -144.5t106 -296.5q0 -165 -78.5 -280.5t-213 -171t-314.5 -55.5q-142 0 -255 13.5t-237 53.5zM250 1595l231 222q78 67 211 67q137 0 213 -67l236 -222h-381l-68 86l-59 -86h-383z" />
<glyph unicode="&#x15d;" horiz-adv-x="1130" d="M57 86l56 324l129 -45q201 -74 333 -74q89 0 89 57q0 54 -76 60l-189 28q-172 25 -256 105.5t-84 228.5q0 185 131 282t355 97q216 0 401 -59l127 -41l-53 -322l-131 45q-208 74 -334 74q-88 0 -88 -60q0 -51 76 -57l188 -29q173 -25 257.5 -103.5t84.5 -225.5 q0 -185 -131.5 -284t-355.5 -99q-217 0 -402 59zM98 1210l244 277q79 82 221 82q144 0 223 -82l248 -277h-401l-70 107l-63 -107h-402z" />
<glyph unicode="&#x15e;" horiz-adv-x="1374" d="M57 102l74 430l158 -57q233 -86 418 -86q108 0 108 76q0 32 -23 50.5t-71 29.5l-234 43q-217 42 -322.5 147.5t-105.5 298.5q0 248 161.5 375t445.5 127q266 0 493 -70l158 -51l-78 -436l-158 61q-229 88 -411 88q-109 0 -109 -75q0 -66 94 -80l232 -43 q216 -41 322 -144.5t106 -296.5q0 -240 -157 -369.5t-421 -137.5l-26 -54q83 0 133.5 -39t50.5 -118q0 -88 -61.5 -135.5t-176.5 -47.5q-105 0 -223 52l47 147q98 -49 178 -49q39 0 39 29q0 25 -37.5 33.5t-121.5 2.5l-27 41l74 140q-198 10 -369 65z" />
<glyph unicode="&#x15f;" horiz-adv-x="1130" d="M57 86l56 324l129 -45q201 -74 333 -74q89 0 89 57q0 54 -76 60l-189 28q-172 25 -256 105.5t-84 228.5q0 185 131 282t355 97q216 0 401 -59l127 -41l-53 -322l-131 45q-208 74 -334 74q-88 0 -88 -60q0 -51 76 -57l188 -29q173 -25 257.5 -103.5t84.5 -225.5 q0 -176 -120 -274.5t-326 -106.5l-31 -62q83 0 133.5 -39t50.5 -118q0 -88 -61 -135.5t-176 -47.5q-106 0 -224 52l48 147q98 -49 178 -49q39 0 39 29q0 25 -38 33.5t-122 2.5l-27 41l78 148q-151 10 -291 55z" />
<glyph unicode="&#x160;" horiz-adv-x="1374" d="M57 102l74 430l158 -57q233 -86 418 -86q108 0 108 76q0 32 -23 50.5t-71 29.5l-234 43q-217 42 -322.5 147.5t-105.5 298.5q0 248 161.5 375t445.5 127q266 0 493 -70l158 -51l-78 -436l-158 61q-229 88 -411 88q-109 0 -109 -75q0 -66 94 -80l232 -43 q216 -41 322 -144.5t106 -296.5q0 -165 -78.5 -280.5t-213 -171t-314.5 -55.5q-142 0 -255 13.5t-237 53.5zM258 1872h383l66 -88l59 88h383l-231 -221q-69 -66 -211 -66q-141 0 -213 66z" />
<glyph unicode="&#x161;" horiz-adv-x="1130" d="M57 86l56 324l129 -45q201 -74 333 -74q89 0 89 57q0 54 -76 60l-189 28q-172 25 -256 105.5t-84 228.5q0 185 131 282t355 97q216 0 401 -59l127 -41l-53 -322l-131 45q-208 74 -334 74q-88 0 -88 -60q0 -51 76 -57l188 -29q173 -25 257.5 -103.5t84.5 -225.5 q0 -185 -131.5 -284t-355.5 -99q-217 0 -402 59zM121 1567h401l70 -107l63 107h402l-244 -275q-74 -84 -221 -84q-148 0 -223 84z" />
<glyph unicode="&#x162;" horiz-adv-x="1425" d="M61 1130v394h1303v-394h-381v-1130h-539v1130h-383zM463 -248l45 172h393l-76 -243q-20 -65 -62.5 -98.5t-125.5 -33.5q-105 0 -150 58t-24 145z" />
<glyph unicode="&#x163;" horiz-adv-x="958" d="M18 831v306h138v196l422 74v-270h299v-306h-299v-411q0 -60 27.5 -85.5t94.5 -25.5q75 0 172 33l48 -299q-160 -55 -318 -55q-210 0 -328 101.5t-118 293.5v448h-138zM233 -248l46 172h393l-76 -243q-20 -65 -62.5 -98.5t-125.5 -33.5q-105 0 -150.5 58t-24.5 145z" />
<glyph unicode="&#x164;" horiz-adv-x="1425" d="M61 1130v394h1303v-394h-381v-1130h-539v1130h-383zM274 1872h383l66 -88l59 88h383l-231 -221q-69 -66 -211 -66q-141 0 -213 66z" />
<glyph unicode="&#x165;" horiz-adv-x="927" d="M18 831v306h138v196l422 74v-270h299v-306h-299v-411q0 -60 27.5 -85.5t94.5 -25.5q75 0 172 33l48 -299q-160 -55 -318 -55q-210 0 -328 101.5t-118 293.5v448h-138zM653 1399l52 182h362l-96 -254q-18 -64 -58 -97.5t-112 -33.5q-101 0 -135.5 57t-12.5 146z" />
<glyph unicode="&#x166;" horiz-adv-x="1425" d="M61 1130v394h1303v-394h-381v-229h250v-291h-250v-610h-539v610h-235v291h235v229h-383z" />
<glyph unicode="&#x167;" horiz-adv-x="958" d="M18 451v305h138v75h-138v306h138v196l422 74v-270h299v-306h-299v-75h296v-305h-296v-31q0 -60 27.5 -85.5t94.5 -25.5q75 0 172 33l48 -299q-160 -55 -318 -55q-210 0 -328 101.5t-118 293.5v68h-138z" />
<glyph unicode="&#x168;" horiz-adv-x="1511" d="M66 578v946h542v-944q0 -168 146 -168q151 0 151 168v944h541v-946q0 -288 -178 -445.5t-516 -157.5q-335 0 -510.5 156.5t-175.5 446.5zM309 1683q101 211 309 211q98 0 175 -45l47 -26q43 -19 75 -19q62 0 109 92l184 -98q-101 -213 -309 -213q-97 0 -174 45l-49 27 q-32 20 -74 20q-62 0 -110 -92z" />
<glyph unicode="&#x169;" horiz-adv-x="1206" d="M78 391v746h430v-707q0 -42 18 -64t66 -22q45 0 100 18v775h438v-883q0 -87 -41.5 -135.5t-130.5 -75.5q-180 -55 -376 -55q-258 0 -381 105.5t-123 297.5zM127 1317q104 268 334 268q96 0 182 -59l43 -29q39 -27 80 -27q34 0 61 27.5t54 87.5l190 -125 q-104 -266 -332 -266q-102 0 -182 57l-43 29q-41 29 -80 29q-35 0 -61.5 -27t-53.5 -86z" />
<glyph unicode="&#x16a;" horiz-adv-x="1511" d="M66 578v946h542v-944q0 -168 146 -168q151 0 151 168v944h541v-946q0 -288 -178 -445.5t-516 -157.5q-335 0 -510.5 156.5t-175.5 446.5zM362 1593v238h795v-238h-795z" />
<glyph unicode="&#x16b;" horiz-adv-x="1206" d="M78 391v746h430v-707q0 -42 18 -64t66 -22q45 0 100 18v775h438v-883q0 -87 -41.5 -135.5t-130.5 -75.5q-180 -55 -376 -55q-258 0 -381 105.5t-123 297.5zM182 1227v299h838v-299h-838z" />
<glyph unicode="&#x16c;" horiz-adv-x="1511" d="M66 578v946h542v-944q0 -168 146 -168q151 0 151 168v944h541v-946q0 -288 -178 -445.5t-516 -157.5q-335 0 -510.5 156.5t-175.5 446.5zM340 1874h340q0 -49 20 -78t54 -29q36 0 55.5 28.5t19.5 78.5h338q0 -130 -117.5 -209.5t-295.5 -79.5q-180 0 -297 79.5 t-117 209.5z" />
<glyph unicode="&#x16d;" horiz-adv-x="1206" d="M78 391v746h430v-707q0 -42 18 -64t66 -22q45 0 100 18v775h438v-883q0 -87 -41.5 -135.5t-130.5 -75.5q-180 -55 -376 -55q-258 0 -381 105.5t-123 297.5zM160 1563h360q0 -60 20.5 -94.5t55.5 -34.5q38 0 59 34.5t21 94.5h358q0 -163 -125 -262t-313 -99t-312 99 t-124 262z" />
<glyph unicode="&#x16e;" horiz-adv-x="1511" d="M66 578v946h542v-944q0 -168 146 -168q151 0 151 168v944h541v-946q0 -288 -178 -445.5t-516 -157.5q-335 0 -510.5 156.5t-175.5 446.5zM475 1808q0 101 77 161.5t206 60.5q128 0 206 -60.5t78 -161.5q0 -97 -79.5 -160t-204.5 -63t-204 63t-79 160zM664 1808 q0 -33 26 -54t68 -21t69 21t27 54q0 32 -26.5 53t-69.5 21q-42 0 -68 -21.5t-26 -52.5z" />
<glyph unicode="&#x16f;" horiz-adv-x="1206" d="M78 391v746h430v-707q0 -42 18 -64t66 -22q45 0 100 18v775h438v-883q0 -87 -41.5 -135.5t-130.5 -75.5q-180 -55 -376 -55q-258 0 -381 105.5t-123 297.5zM301 1475q0 124 84.5 201t212.5 77q127 0 213 -77t86 -201q0 -122 -87 -201.5t-212 -79.5t-211 79t-86 202z M502 1475q0 -42 26 -68.5t70 -26.5t71 26.5t27 68.5q0 38 -27 65t-71 27t-70 -27t-26 -65z" />
<glyph unicode="&#x170;" horiz-adv-x="1511" d="M66 578v946h542v-944q0 -168 146 -168q151 0 151 168v944h541v-946q0 -288 -178 -445.5t-516 -157.5q-335 0 -510.5 156.5t-175.5 446.5zM379 1681q0 47 35 80l125 113h379l-248 -227q-65 -62 -166 -62q-59 0 -92 27t-33 69zM840 1681q0 48 37 80l118 113h381l-241 -227 q-68 -62 -168 -62q-59 0 -93 27.5t-34 68.5z" />
<glyph unicode="&#x171;" horiz-adv-x="1206" d="M78 391v746h430v-707q0 -42 18 -64t66 -22q45 0 100 18v775h438v-883q0 -87 -41.5 -135.5t-130.5 -75.5q-180 -55 -376 -55q-258 0 -381 105.5t-123 297.5zM203 1323q0 55 37 100l133 140h399l-260 -283q-69 -78 -178 -78q-61 0 -96 34t-35 87zM690 1323q0 59 41 100 l123 140h406l-261 -283q-72 -78 -176 -78q-62 0 -97.5 34.5t-35.5 86.5z" />
<glyph unicode="&#x172;" horiz-adv-x="1511" d="M66 578v946h542v-944q0 -168 146 -168q151 0 151 168v944h541v-946q0 -206 -91.5 -346.5t-269.5 -204.5q-65 -41 -65 -99q0 -53 65 -53q95 0 205 49l45 -180q-138 -55 -284 -55q-113 0 -183.5 42.5t-70.5 127.5q0 67 41 121q-72 -5 -86 -5q-335 0 -510.5 156.5 t-175.5 446.5z" />
<glyph unicode="&#x173;" horiz-adv-x="1206" d="M78 391v746h430v-707q0 -42 18 -64t66 -22q45 0 100 18v775h438v-883q0 -87 -41.5 -135.5t-130.5 -75.5q-35 -11 -57 -16q-80 -47 -80 -109q0 -53 66 -53q95 0 205 49l45 -180q-141 -56 -285 -56q-113 0 -183.5 42.5t-70.5 127.5q0 81 61 142q-13 0 -38 -1t-39 -1 q-258 0 -381 105.5t-123 297.5z" />
<glyph unicode="&#x174;" horiz-adv-x="2091" d="M8 1524h516l101 -953l172 789q17 80 86 122t174 42q101 0 169 -42t85 -122l168 -787l100 951h506l-248 -1303q-25 -116 -108.5 -178.5t-223.5 -62.5q-292 0 -350 223l-108 504l-115 -504q-58 -223 -346 -223q-281 0 -334 239zM616 1595l232 222q78 67 211 67 q137 0 213 -67l235 -222h-381l-67 86l-60 -86h-383z" />
<glyph unicode="&#x175;" horiz-adv-x="1740" d="M16 1137h445l80 -650l116 514q15 69 74.5 105.5t149.5 36.5q88 0 147 -36.5t74 -105.5l110 -514l80 650h432l-200 -957q-46 -205 -289 -205q-249 0 -299 191l-64 276l-67 -276q-50 -191 -297 -191q-243 0 -289 205zM414 1210l243 277q79 82 222 82q144 0 223 -82 l248 -277h-402l-69 107l-64 -107h-401z" />
<glyph unicode="&#x176;" horiz-adv-x="1607" d="M10 1524h578l223 -473l213 473h573l-524 -924v-600h-538v598zM358 1595l232 222q78 67 211 67q137 0 213 -67l235 -222h-381l-67 86l-60 -86h-383z" />
<glyph unicode="&#x177;" horiz-adv-x="1255" d="M18 1137h476l157 -600l142 600h444l-389 -1178q-104 -334 -457 -334q-145 0 -309 53l51 299q101 -36 193 -36q52 0 81 23t37 59l5 22zM170 1231l244 276q79 82 221 82q144 0 223 -82l248 -276h-401l-70 106l-64 -106h-401z" />
<glyph unicode="&#x178;" horiz-adv-x="1607" d="M10 1524h578l223 -473l213 473h573l-524 -924v-600h-538v598zM385 1747q0 76 53.5 120t147.5 44q93 0 145.5 -44t52.5 -120q0 -75 -52.5 -118.5t-145.5 -43.5q-95 0 -148 43.5t-53 118.5zM829 1747q0 76 53.5 120t147.5 44q93 0 146 -44t53 -120q0 -75 -53 -118.5 t-146 -43.5q-95 0 -148 43.5t-53 118.5z" />
<glyph unicode="&#x179;" horiz-adv-x="1417" d="M47 229q0 105 78 207l561 705h-586v383h1035q112 0 168.5 -62.5t56.5 -167.5q0 -106 -78 -207l-555 -704h614v-383h-1069q-111 0 -168 62.5t-57 166.5zM444 1681q0 28 10 50t42 47l131 96h493l-375 -236q-84 -53 -170 -53q-65 0 -98 28t-33 68z" />
<glyph unicode="&#x17a;" horiz-adv-x="1165" d="M59 197q0 102 68 176l410 456h-459v308h835q95 0 144 -54t49 -143q0 -95 -68 -176l-405 -457h463v-307h-844q-95 0 -144 53.5t-49 143.5zM313 1321q0 68 58 121l137 121h524l-399 -295q-43 -33 -83.5 -49.5t-96.5 -16.5q-67 0 -103.5 35t-36.5 84z" />
<glyph unicode="&#x17b;" horiz-adv-x="1417" d="M47 229q0 105 78 207l561 705h-586v383h1035q112 0 168.5 -62.5t56.5 -167.5q0 -106 -78 -207l-555 -704h614v-383h-1069q-111 0 -168 62.5t-57 166.5zM510 1751q0 76 59 121t162 45q102 0 160.5 -45t58.5 -121q0 -77 -58.5 -121.5t-160.5 -44.5q-104 0 -162.5 44.5 t-58.5 121.5z" />
<glyph unicode="&#x17c;" horiz-adv-x="1165" d="M59 197q0 102 68 176l410 456h-459v308h835q95 0 144 -54t49 -143q0 -95 -68 -176l-405 -457h463v-307h-844q-95 0 -144 53.5t-49 143.5zM356 1389q0 89 61.5 141.5t170.5 52.5q108 0 168.5 -52.5t60.5 -141.5q0 -92 -60.5 -145.5t-168.5 -53.5q-109 0 -170.5 53.5 t-61.5 145.5z" />
<glyph unicode="&#x17d;" horiz-adv-x="1417" d="M47 229q0 105 78 207l561 705h-586v383h1035q112 0 168.5 -62.5t56.5 -167.5q0 -106 -78 -207l-555 -704h614v-383h-1069q-111 0 -168 62.5t-57 166.5zM264 1872h383l66 -88l59 88h383l-231 -221q-69 -66 -211 -66q-141 0 -213 66z" />
<glyph unicode="&#x17e;" horiz-adv-x="1165" d="M59 197q0 102 68 176l410 456h-459v308h835q95 0 144 -54t49 -143q0 -95 -68 -176l-405 -457h463v-307h-844q-95 0 -144 53.5t-49 143.5zM121 1567h401l70 -107l63 107h402l-244 -275q-74 -84 -221 -84q-148 0 -223 84z" />
<glyph unicode="&#x192;" d="M199 831v306h135v45q0 191 117 288t329 97q160 0 326 -58l-47 -299q-103 35 -180 35q-69 0 -96 -20.5t-27 -79.5v-8h295v-306h-295v-806q0 -396 -537 -396v297q63 1 89 26.5t26 78.5v800h-135z" />
<glyph unicode="&#x218;" horiz-adv-x="1374" d="M57 102l74 430l158 -57q233 -86 418 -86q108 0 108 76q0 32 -23 50.5t-71 29.5l-234 43q-217 42 -322.5 147.5t-105.5 298.5q0 248 161.5 375t445.5 127q266 0 493 -70l158 -51l-78 -436l-158 61q-229 88 -411 88q-109 0 -109 -75q0 -66 94 -80l232 -43 q216 -41 322 -144.5t106 -296.5q0 -165 -78.5 -280.5t-213 -171t-314.5 -55.5q-142 0 -255 13.5t-237 53.5zM442 -248l45 172h394l-76 -243q-20 -65 -63 -98.5t-126 -33.5q-105 0 -150 58t-24 145z" />
<glyph unicode="&#x219;" horiz-adv-x="1130" d="M57 86l56 324l129 -45q201 -74 333 -74q89 0 89 57q0 54 -76 60l-189 28q-172 25 -256 105.5t-84 228.5q0 185 131 282t355 97q216 0 401 -59l127 -41l-53 -322l-131 45q-208 74 -334 74q-88 0 -88 -60q0 -51 76 -57l188 -29q173 -25 257.5 -103.5t84.5 -225.5 q0 -185 -131.5 -284t-355.5 -99q-217 0 -402 59zM311 -248l45 172h394l-76 -243q-20 -65 -63 -98.5t-126 -33.5q-105 0 -150 58t-24 145z" />
<glyph unicode="&#x237;" horiz-adv-x="581" d="M-33 -74q63 1 90 27t27 78v1106h422v-1112q0 -396 -539 -396v297z" />
<glyph unicode="&#x2c6;" horiz-adv-x="1087" d="M111 1210l243 277q79 82 221 82q145 0 224 -82l248 -277h-402l-70 107l-63 -107h-401z" />
<glyph unicode="&#x2c7;" horiz-adv-x="1087" d="M106 1567h402l70 -107l63 107h401l-243 -275q-74 -84 -221 -84q-149 0 -224 84z" />
<glyph unicode="&#x2d8;" horiz-adv-x="1087" d="M82 1563h360q0 -60 20.5 -94.5t55.5 -34.5q38 0 59 34.5t21 94.5h358q0 -163 -125 -262t-313 -99t-312 99t-124 262z" />
<glyph unicode="&#x2d9;" horiz-adv-x="1087" d="M313 1389q0 89 61.5 141.5t170.5 52.5q108 0 168.5 -52.5t60.5 -141.5q0 -92 -60.5 -145.5t-168.5 -53.5q-109 0 -170.5 53.5t-61.5 145.5z" />
<glyph unicode="&#x2da;" horiz-adv-x="1087" d="M272 1475q0 124 84.5 201t212.5 77q127 0 213 -77t86 -201q0 -122 -87 -201.5t-212 -79.5t-211 79t-86 202zM473 1475q0 -42 26 -68.5t70 -26.5t71.5 26.5t27.5 68.5q0 38 -27.5 65t-71.5 27t-70 -27t-26 -65z" />
<glyph unicode="&#x2db;" horiz-adv-x="1087" d="M272 -180q0 60 34 108t83 72l180 23l11 -23q-84 -51 -84 -111q0 -53 65 -53q95 0 205 49l45 -180q-138 -55 -285 -55q-113 0 -183.5 42.5t-70.5 127.5z" />
<glyph unicode="&#x2dc;" horiz-adv-x="1087" d="M70 1317q104 268 333 268q97 0 183 -59l43 -29q39 -27 80 -27q34 0 60.5 27.5t53.5 87.5l191 -125q-104 -266 -332 -266q-102 0 -182 57l-43 29q-41 29 -80 29q-35 0 -61.5 -27t-53.5 -86z" />
<glyph unicode="&#x2dd;" horiz-adv-x="1087" d="M31 1323q0 55 37 100l133 140h399l-260 -283q-69 -78 -178 -78q-61 0 -96 34t-35 87zM518 1323q0 59 41 100l123 140h405l-260 -283q-72 -78 -176 -78q-62 0 -97.5 34.5t-35.5 86.5z" />
<glyph unicode="&#x3c0;" horiz-adv-x="1501" d="M41 829v308h1380v-308h-301v-409q0 -60 28.5 -85.5t96.5 -25.5q75 0 172 33l45 -299q-157 -55 -315 -55q-210 0 -328.5 101.5t-118.5 293.5v446h-106v-829h-424v829h-129z" />
<glyph unicode="&#x1e80;" horiz-adv-x="2091" d="M8 1524h516l101 -953l172 789q17 80 86 122t174 42q101 0 169 -42t85 -122l168 -787l100 951h506l-248 -1303q-25 -116 -108.5 -178.5t-223.5 -62.5q-292 0 -350 223l-108 504l-115 -504q-58 -223 -346 -223q-281 0 -334 239zM565 1874h494l131 -96q53 -42 53 -97 q0 -40 -33.5 -68t-97.5 -28q-97 0 -172 53z" />
<glyph unicode="&#x1e81;" horiz-adv-x="1740" d="M16 1137h445l80 -650l116 514q15 69 74.5 105.5t149.5 36.5q88 0 147 -36.5t74 -105.5l110 -514l80 650h432l-200 -957q-46 -205 -289 -205q-249 0 -299 191l-64 276l-67 -276q-50 -191 -297 -191q-243 0 -289 205zM385 1563h524l138 -121q34 -31 45.5 -58.5t11.5 -62.5 q0 -49 -36 -84t-103 -35q-95 0 -181 66z" />
<glyph unicode="&#x1e82;" horiz-adv-x="2091" d="M8 1524h516l101 -953l172 789q17 80 86 122t174 42q101 0 169 -42t85 -122l168 -787l100 951h506l-248 -1303q-25 -116 -108.5 -178.5t-223.5 -62.5q-292 0 -350 223l-108 504l-115 -504q-58 -223 -346 -223q-281 0 -334 239zM782 1681q0 28 10 50t42 47l131 96h493 l-375 -236q-84 -53 -170 -53q-65 0 -98 28t-33 68z" />
<glyph unicode="&#x1e83;" horiz-adv-x="1740" d="M16 1137h445l80 -650l116 514q15 69 74.5 105.5t149.5 36.5q88 0 147 -36.5t74 -105.5l110 -514l80 650h432l-200 -957q-46 -205 -289 -205q-249 0 -299 191l-64 276l-67 -276q-50 -191 -297 -191q-243 0 -289 205zM598 1321q0 35 11.5 62.5t45.5 58.5l138 121h524 l-399 -295q-86 -66 -181 -66q-67 0 -103 35t-36 84z" />
<glyph unicode="&#x1e84;" horiz-adv-x="2091" d="M8 1524h516l101 -953l172 789q17 80 86 122t174 42q101 0 169 -42t85 -122l168 -787l100 951h506l-248 -1303q-25 -116 -108.5 -178.5t-223.5 -62.5q-292 0 -350 223l-108 504l-115 -504q-58 -223 -346 -223q-281 0 -334 239zM635 1747q0 76 53.5 120t147.5 44 q93 0 145.5 -44t52.5 -120q0 -75 -52.5 -118.5t-145.5 -43.5q-95 0 -148 43.5t-53 118.5zM1079 1747q0 76 53.5 120t147.5 44q93 0 146 -44t53 -120q0 -75 -53 -118.5t-146 -43.5q-95 0 -148 43.5t-53 118.5z" />
<glyph unicode="&#x1e85;" horiz-adv-x="1740" d="M16 1137h445l80 -650l116 514q15 69 74.5 105.5t149.5 36.5q88 0 147 -36.5t74 -105.5l110 -514l80 650h432l-200 -957q-46 -205 -289 -205q-249 0 -299 191l-64 276l-67 -276q-50 -191 -297 -191q-243 0 -289 205zM434 1391q0 90 56 141t157 51q98 0 153.5 -51.5 t55.5 -140.5q0 -90 -55.5 -142.5t-153.5 -52.5q-100 0 -156.5 52.5t-56.5 142.5zM905 1391q0 90 56 141t155 51q98 0 154.5 -51.5t56.5 -140.5q0 -90 -56.5 -142.5t-154.5 -52.5q-99 0 -155 52.5t-56 142.5z" />
<glyph unicode="&#x1ef2;" horiz-adv-x="1607" d="M10 1524h578l223 -473l213 473h573l-524 -924v-600h-538v598zM299 1874h494l131 -96q53 -42 53 -97q0 -40 -33.5 -68t-97.5 -28q-97 0 -172 53z" />
<glyph unicode="&#x1ef3;" horiz-adv-x="1255" d="M18 1137h476l157 -600l142 600h444l-389 -1178q-104 -334 -457 -334q-145 0 -309 53l51 299q101 -36 193 -36q52 0 81 23t37 59l5 22zM147 1563h525l137 -121q34 -31 45.5 -58.5t11.5 -62.5q0 -49 -36 -84t-103 -35q-56 0 -96.5 16.5t-83.5 49.5z" />
<glyph unicode="&#x2000;" horiz-adv-x="1015" />
<glyph unicode="&#x2001;" horiz-adv-x="2030" />
<glyph unicode="&#x2002;" horiz-adv-x="1015" />
<glyph unicode="&#x2003;" horiz-adv-x="2030" />
<glyph unicode="&#x2004;" horiz-adv-x="676" />
<glyph unicode="&#x2005;" horiz-adv-x="507" />
<glyph unicode="&#x2006;" horiz-adv-x="338" />
<glyph unicode="&#x2007;" horiz-adv-x="338" />
<glyph unicode="&#x2008;" horiz-adv-x="253" />
<glyph unicode="&#x2009;" horiz-adv-x="406" />
<glyph unicode="&#x200a;" horiz-adv-x="112" />
<glyph unicode="&#x2010;" horiz-adv-x="911" d="M57 487v314h797v-314h-797z" />
<glyph unicode="&#x2011;" horiz-adv-x="911" d="M57 487v314h797v-314h-797z" />
<glyph unicode="&#x2012;" d="M57 510v311h1094v-311h-1094z" />
<glyph unicode="&#x2013;" d="M80 487v312h1048v-312h-1048z" />
<glyph unicode="&#x2014;" horiz-adv-x="2048" d="M80 487v310h1888v-310h-1888z" />
<glyph unicode="&#x2018;" horiz-adv-x="577" d="M29 938l133 494q33 131 200 131q112 0 157 -57t26 -146l-86 -422h-430z" />
<glyph unicode="&#x2019;" horiz-adv-x="577" d="M33 1143l84 420h432l-133 -492q-15 -62 -67 -96.5t-136 -34.5q-111 0 -155.5 57t-24.5 146z" />
<glyph unicode="&#x201a;" horiz-adv-x="577" d="M33 -51l84 420h432l-133 -492q-15 -62 -67 -96.5t-136 -34.5q-111 0 -155.5 57.5t-24.5 145.5z" />
<glyph unicode="&#x201c;" horiz-adv-x="983" d="M29 932l131 500q38 131 184 131q98 0 136 -57.5t18 -147.5l-86 -426h-383zM477 932l129 500q41 131 187 131q98 0 135.5 -57.5t17.5 -147.5l-88 -426h-381z" />
<glyph unicode="&#x201d;" horiz-adv-x="983" d="M33 1139l86 424h383l-131 -498q-38 -131 -185 -131q-98 0 -135.5 57.5t-17.5 147.5zM479 1139l88 424h383l-131 -498q-38 -131 -184 -131q-98 0 -136 57.5t-20 147.5z" />
<glyph unicode="&#x201e;" horiz-adv-x="983" d="M29 -55l86 424h383l-131 -498q-38 -131 -185 -131q-98 0 -135.5 58t-17.5 147zM475 -55l88 424h383l-131 -498q-38 -131 -184 -131q-98 0 -136 58t-20 147z" />
<glyph unicode="&#x2020;" d="M57 725v424l357 -27l-33 402h450l-28 -402l348 25v-422l-358 33l32 -1139h-440l35 1141z" />
<glyph unicode="&#x2021;" d="M57 -6v424l361 -35l-39 190l39 187l-361 -35v424l357 -27l-33 402h450l-28 -402l348 25v-422l-356 33l43 -185l-43 -188l356 33v-422l-348 24l28 -401h-450l33 401z" />
<glyph unicode="&#x2022;" horiz-adv-x="978" d="M117 676q0 185 99.5 289t270.5 104q174 0 273.5 -104t99.5 -289q0 -186 -99.5 -289.5t-273.5 -103.5q-172 0 -271 103.5t-99 289.5z" />
<glyph unicode="&#x2026;" horiz-adv-x="1730" d="M57 188q0 95 62 151t170 56t168.5 -56t60.5 -151q0 -96 -60.5 -152t-168.5 -56t-170 56t-62 152zM635 188q0 95 61.5 151t169.5 56t169 -56t61 -151q0 -96 -61 -152t-169 -56t-169.5 56t-61.5 152zM1212 188q0 95 61.5 151t170.5 56q108 0 168.5 -56t60.5 -151 q0 -96 -60.5 -152t-168.5 -56q-109 0 -170.5 56t-61.5 152z" />
<glyph unicode="&#x202f;" horiz-adv-x="406" />
<glyph unicode="&#x2030;" horiz-adv-x="2361" d="M78 946v307q0 136 77 209.5t220 73.5q148 0 225.5 -72t77.5 -209v-307q0 -134 -76.5 -207t-220.5 -73q-147 0 -225 72t-78 206zM322 940q0 -78 57 -78q55 0 55 78v324q0 75 -55 75q-57 0 -57 -75v-324zM381 0l651 1524h271l-652 -1524h-270zM1004 268v305q0 137 77 211 t219 74q147 0 225.5 -73t78.5 -210v-305q0 -135 -76.5 -207.5t-220.5 -72.5q-148 0 -225.5 71.5t-77.5 206.5zM1247 262q0 -78 58 -78q55 0 55 78v324q0 76 -55 76q-58 0 -58 -76v-324zM1686 268v305q0 137 76 211t220 74q146 0 224 -73t78 -210v-305q0 -135 -76.5 -207.5 t-220.5 -72.5q-147 0 -224 71.5t-77 206.5zM1927 262q0 -78 58 -78q30 0 42.5 19t12.5 59v324q0 76 -55 76q-58 0 -58 -76v-324z" />
<glyph unicode="&#x2039;" horiz-adv-x="802" d="M37 580q0 78 57 143l246 266h444l-372 -409l372 -410h-444l-246 264q-57 62 -57 146z" />
<glyph unicode="&#x203a;" horiz-adv-x="802" d="M16 170l375 410l-375 409h445l248 -266q57 -65 57 -143q0 -84 -57 -146l-248 -264h-445z" />
<glyph unicode="&#x2044;" horiz-adv-x="40" d="M-440 0l653 1524h268l-651 -1524h-270z" />
<glyph unicode="&#x205f;" horiz-adv-x="507" />
<glyph unicode="&#x2070;" horiz-adv-x="667" d="M35 1145v305q0 137 77.5 211t219.5 74q146 0 223.5 -73t77.5 -210v-305q0 -135 -76.5 -208t-220.5 -73q-146 0 -223.5 72t-77.5 207zM279 1139q0 -78 55 -78q30 0 42.5 19t12.5 59v323q0 76 -55 76t-55 -76v-323z" />
<glyph unicode="&#x2074;" horiz-adv-x="667" d="M6 1108q0 36 29 96l250 438q53 93 159 93q150 0 150 -136v-417h68v-181h-68v-124h-238v124h-245q-52 0 -78.5 29.5t-26.5 77.5zM262 1182h94v178z" />
<glyph unicode="&#x2075;" horiz-adv-x="667" d="M23 928l30 188l64 -20q112 -35 178 -35q53 0 76.5 24.5t23.5 75.5q0 101 -100 101q-52 0 -172 -33l-60 -15v510h549v-196h-350v-98l51 10q30 4 58 4q270 0 270 -281q0 -148 -83.5 -221.5t-238.5 -73.5q-127 0 -231 37z" />
<glyph unicode="&#x2076;" horiz-adv-x="667" d="M31 1167v293q0 130 88.5 201.5t232.5 71.5q110 0 213 -39l64 -23l-35 -188l-55 20q-87 31 -168 31q-97 0 -97 -72v-32l45 9q32 5 62 5q266 0 266 -273q0 -136 -81 -218.5t-230 -82.5q-146 0 -225.5 80t-79.5 217zM274 1161q0 -50 15 -73t49 -23q63 0 63 90q0 50 -15.5 75 t-55.5 25q-17 0 -56 -10v-84z" />
<glyph unicode="&#x2077;" horiz-adv-x="667" d="M35 1528v196h497q115 0 115 -114q0 -46 -24 -113l-250 -620h-271l277 651h-344z" />
<glyph unicode="&#x2078;" horiz-adv-x="667" d="M23 1118q0 99 73 172l17 17l-19 22q-53 68 -53 164q0 116 80.5 179t214.5 63q133 0 213 -63t80 -179q0 -95 -54 -164l-18 -22l16 -17q74 -74 74 -172q0 -124 -81.5 -187t-229.5 -63t-230.5 63.5t-82.5 186.5zM262 1124q0 -33 19 -54t55 -21q34 0 54 20.5t20 54.5 q0 37 -25 68l-16 18h-68l-14 -18q-25 -31 -25 -68zM266 1470q0 -26 27 -65l12 -19h62l12 19q24 40 24 65q0 34 -18 54t-49 20t-50.5 -21t-19.5 -53z" />
<glyph unicode="&#x2079;" horiz-adv-x="667" d="M20 1432q0 135 82.5 218t231.5 83q146 0 225.5 -80t79.5 -217v-295q0 -129 -89.5 -200t-234.5 -71q-104 0 -213 37l-63 21l33 192l57 -20q91 -31 168 -31q51 0 73.5 16.5t22.5 53.5v32l-4 -1q-54 -13 -102 -13q-267 0 -267 275zM268 1446q0 -48 15.5 -73t54.5 -25t55 8 v84q0 52 -14 75t-49 23q-62 0 -62 -92z" />
<glyph unicode="&#x207a;" horiz-adv-x="667" d="M45 1126v168h188v213h195v-213h197v-168h-197v-211h-195v211h-188z" />
<glyph unicode="&#x207b;" horiz-adv-x="667" d="M43 1126v168h582v-168h-582z" />
<glyph unicode="&#x207c;" horiz-adv-x="667" d="M45 1026v160h580v-160h-580zM45 1243v160h580v-160h-580z" />
<glyph unicode="&#x207d;" horiz-adv-x="466" d="M45 1264q0 96 15.5 171.5t44 124.5t63 82.5t79.5 50.5t85.5 24t87.5 7v-163q-139 -11 -139 -297q0 -80 10 -139t24 -90t35 -49.5t36 -23t34 -6.5v-165q-52 0 -98.5 10t-99 41t-90 81t-62.5 137.5t-25 203.5z" />
<glyph unicode="&#x207e;" horiz-adv-x="466" d="M47 791v165q19 2 34 6.5t36 23t35 49.5t24 90t10 139q0 286 -139 297v163q57 0 104.5 -9.5t99.5 -39t88 -78t59.5 -134t23.5 -199.5q0 -116 -25 -203.5t-62.5 -137.5t-90 -81t-99 -41t-98.5 -10z" />
<glyph unicode="&#x207f;" horiz-adv-x="772" d="M72 844v524q0 103 102 129q116 33 223 33q153 0 227 -64.5t74 -177.5v-444h-268v424q0 43 -39 43q-19 0 -51 -11v-456h-268z" />
<glyph unicode="&#x2080;" horiz-adv-x="667" d="M35 63v306q0 136 77 210t220 74q146 0 223.5 -72.5t77.5 -209.5v-305q0 -135 -76.5 -208t-220.5 -73q-146 0 -223.5 71.5t-77.5 206.5zM279 57q0 -77 55 -77q30 0 42.5 18.5t12.5 58.5v324q0 76 -55 76t-55 -76v-324z" />
<glyph unicode="&#x2081;" horiz-adv-x="667" d="M29 -20h202v469h-12q-25 0 -66 -9.5t-63 -25.5l-31 184q87 45 213 45h78q63 0 98 -33t35 -92v-538h164v-185h-618v185z" />
<glyph unicode="&#x2082;" horiz-adv-x="667" d="M23 -98q0 63 36 96l217 201q57 53 79 86t22 80q0 43 -26 66.5t-75 23.5q-66 0 -159 -33l-58 -21l-28 189l63 24q122 37 223 37q146 0 227 -67.5t81 -202.5q0 -77 -34.5 -144t-117.5 -145l-125 -117h277v-180h-498q-52 0 -78 29.5t-26 77.5z" />
<glyph unicode="&#x2083;" horiz-adv-x="667" d="M14 -154l31 191l64 -21q102 -36 184 -36q51 0 77.5 19t26.5 52q0 35 -24 62l-15 18h-172v174h164l12 19q23 23 23 57q0 74 -100 74q-75 0 -164 -33l-58 -21l-28 189l63 22q112 39 224 39q307 0 307 -243q0 -85 -62 -160l-16 -23l14 -16q78 -75 78 -172q0 -126 -85.5 -188 t-242.5 -62q-123 0 -235 39z" />
<glyph unicode="&#x2084;" horiz-adv-x="667" d="M6 27q0 36 29 96l250 438q53 92 159 92q150 0 150 -135v-418h68v-180h-68v-125h-238v125h-245q-52 0 -78.5 29.5t-26.5 77.5zM262 100h94v179z" />
<glyph unicode="&#x2085;" horiz-adv-x="667" d="M23 -154l30 189l64 -21q108 -34 178 -34q53 0 76.5 24.5t23.5 75.5q0 100 -100 100q-52 0 -172 -33l-60 -14v510h549v-197h-350v-98l51 10q30 4 58 4q270 0 270 -280q0 -148 -83.5 -221.5t-238.5 -73.5q-127 0 -231 37z" />
<glyph unicode="&#x2086;" horiz-adv-x="667" d="M31 86v293q0 130 88.5 201t232.5 71q110 0 213 -39l64 -22l-35 -189l-55 21q-87 31 -168 31q-97 0 -97 -72v-33l45 9q32 5 62 5q266 0 266 -272q0 -136 -81 -218.5t-230 -82.5q-146 0 -225.5 80t-79.5 217zM274 80q0 -50 15 -73t49 -23q63 0 63 90q0 50 -15.5 75 t-55.5 25q-17 0 -56 -10v-84z" />
<glyph unicode="&#x2087;" horiz-adv-x="667" d="M35 446v197h497q115 0 115 -115q0 -45 -24 -112l-250 -621h-271l277 651h-344z" />
<glyph unicode="&#x2088;" horiz-adv-x="667" d="M23 37q0 99 73 172l17 16l-19 23q-53 68 -53 164q0 116 80.5 178.5t214.5 62.5q133 0 213 -62.5t80 -178.5q0 -95 -54 -164l-18 -23l16 -16q74 -74 74 -172q0 -124 -81.5 -187t-229.5 -63t-230.5 63.5t-82.5 186.5zM262 43q0 -34 19 -55t55 -21q34 0 54 21t20 55 q0 37 -25 68l-16 18h-68l-14 -18q-25 -31 -25 -68zM266 389q0 -26 27 -65l12 -19h62l12 19q24 40 24 65q0 34 -18 54t-49 20t-50.5 -21t-19.5 -53z" />
<glyph unicode="&#x2089;" horiz-adv-x="667" d="M20 350q0 135 82.5 218t231.5 83q146 0 225.5 -80t79.5 -217v-295q0 -129 -89.5 -199.5t-234.5 -70.5q-104 0 -213 37l-63 20l33 193l57 -21q88 -30 168 -30q51 0 73.5 16t22.5 53v33l-4 -1q-54 -13 -102 -13q-267 0 -267 274zM268 365q0 -48 15.5 -73.5t54.5 -25.5t55 8 v84q0 52 -14 75.5t-49 23.5q-62 0 -62 -92z" />
<glyph unicode="&#x208d;" horiz-adv-x="466" d="M45 182q0 83 12 150.5t32 114.5t49.5 83t61.5 57t71 34t74 17.5t75 4.5v-164q-139 -11 -139 -297q0 -80 10 -139t24 -89.5t35.5 -49t36 -23t33.5 -6.5v-166q-52 0 -98.5 10t-99 41t-90 81t-62.5 137.5t-25 203.5z" />
<glyph unicode="&#x208e;" horiz-adv-x="466" d="M47 -125q19 2 33.5 6.5t36 23t35.5 49t24 89.5t10 139q0 286 -139 297v164q46 0 86.5 -7t85 -24t79.5 -51t64 -83t44.5 -124.5t15.5 -171.5q0 -116 -25 -203.5t-62.5 -137.5t-90 -81t-99 -41t-98.5 -10v166z" />
<glyph unicode="&#x20ac;" d="M43 469v248h123v100h-123v248h131q24 226 175 349.5t380 123.5q177 0 328 -53l100 -31l-45 -336l-90 29q-139 47 -238 47q-68 0 -113.5 -33.5t-54.5 -95.5h302v-248h-314v-100h314v-248h-306q10 -65 57 -102t115 -37q110 0 238 47l90 29l45 -336l-100 -31 q-151 -53 -328 -53q-232 0 -383 126t-172 357h-131z" />
<glyph unicode="&#x2113;" horiz-adv-x="800" d="M31 434l151 115v244q0 127 16 234t49 192.5t88.5 133.5t129.5 48q91 0 138.5 -75t47.5 -181q0 -108 -41.5 -210.5t-105 -184t-160.5 -172.5v-168q0 -185 46.5 -257.5t141.5 -72.5q130 0 230 149l39 -34q-128 -220 -342 -220q-70 0 -118.5 16t-85.5 55.5t-55 110 t-18 175.5v147l-125 -92zM344 662q91 106 146 229t55 248q0 86 -26 143t-73 57q-57 0 -79.5 -98t-22.5 -330v-249z" />
<glyph unicode="&#x2122;" horiz-adv-x="1949" d="M57 1303v221h742v-221h-219v-646h-304v646h-219zM854 657v697q0 87 59 133.5t164 46.5q201 0 234 -162l53 -256l61 256q38 162 238 162q99 0 154 -45.5t55 -128.5v-703h-268v500l-97 -405q-27 -101 -149 -101q-125 0 -152 101l-92 405v-500h-260z" />
<glyph unicode="&#x2126;" horiz-adv-x="1681" d="M57 0v307h305q-158 87 -231.5 222t-73.5 325q0 211 97.5 366t274 235.5t411.5 80.5q356 0 570 -182.5t214 -499.5q0 -190 -74.5 -325t-232.5 -222h307v-307h-584q-178 0 -178 197q0 51 18.5 100t55.5 76q31 24 52 48.5t45.5 69t37 115.5t12.5 166q0 192 -63 295.5 t-182 103.5t-181.5 -103.5t-62.5 -295.5q0 -94 13 -165.5t38 -116.5t46 -69t52 -48q37 -27 55.5 -76t18.5 -100q0 -89 -48.5 -143t-143.5 -54h-568z" />
<glyph unicode="&#x212e;" horiz-adv-x="1560" d="M59 627q0 175 96.5 324t262.5 236t360 87q149 0 283.5 -53t230 -142.5t151.5 -212.5t56 -258h-1165q-10 0 -10 -8v-352q0 -23 16 -39q156 -162 440 -162q304 0 463 184h105q-98 -116 -248.5 -182.5t-321.5 -66.5q-194 0 -360 86.5t-262.5 235t-96.5 323.5zM324 686 q0 -12 10 -12h893q8 0 8 12v324q0 23 -18 41q-166 163 -437 163t-438 -170q-18 -15 -18 -43v-315z" />
<glyph unicode="&#x2153;" horiz-adv-x="1689" d="M27 676v184h202v469h-12q-25 0 -66 -9.5t-63 -25.5l-31 185q87 45 213 45h78q63 0 98 -33t35 -92v-539h164v-184h-618zM395 0l654 1524h268l-651 -1524h-271zM1024 51l31 191l63 -21q105 -37 185 -37q51 0 77.5 19.5t26.5 52.5t-25 61l-14 19h-172v174h164l12 18 q23 23 23 58q0 73 -101 73q-78 0 -164 -32l-57 -21l-29 189l64 22q112 39 223 39q307 0 307 -244q0 -85 -61 -159l-16 -23l14 -16q78 -75 78 -172q0 -126 -85.5 -188t-242.5 -62q-123 0 -235 39z" />
<glyph unicode="&#x2154;" horiz-adv-x="1689" d="M23 782q0 64 36 97l217 200q57 53 79 86t22 80q0 43 -26 66.5t-75 23.5q-69 0 -159 -32l-58 -21l-28 188l63 25q122 37 223 37q146 0 227 -67.5t81 -202.5q0 -77 -34.5 -144t-117.5 -145l-125 -117h277v-180h-498q-52 0 -78 29t-26 77zM385 0l653 1524h269l-652 -1524 h-270zM1024 51l31 191l63 -21q105 -37 185 -37q51 0 77.5 19.5t26.5 52.5t-25 61l-14 19h-172v174h164l12 18q23 23 23 58q0 73 -101 73q-78 0 -164 -32l-57 -21l-29 189l64 22q112 39 223 39q307 0 307 -244q0 -85 -61 -159l-16 -23l14 -16q78 -75 78 -172 q0 -126 -85.5 -188t-242.5 -62q-123 0 -235 39z" />
<glyph unicode="&#x2155;" horiz-adv-x="1689" d="M31 676v184h202v469h-12q-25 0 -66 -9.5t-63 -25.5l-31 185q87 45 213 45h78q63 0 98 -33t35 -92v-539h164v-184h-618zM395 0l654 1524h268l-651 -1524h-271zM1028 51l31 189l63 -21q112 -35 178 -35q101 0 101 101q0 100 -101 100q-52 0 -172 -33l-59 -14v510h549v-197 h-350v-98l50 10l58 4q271 0 271 -280q0 -148 -83.5 -221.5t-238.5 -73.5q-127 0 -231 37z" />
<glyph unicode="&#x2156;" horiz-adv-x="1689" d="M8 782q0 63 37 97l217 200q57 53 78.5 85.5t21.5 80.5q0 43 -25.5 66.5t-74.5 23.5q-70 0 -160 -32l-57 -21l-29 188l64 25q122 37 223 37q146 0 226.5 -67.5t80.5 -202.5q0 -77 -34 -144t-117 -145l-125 -117h276v-180h-497q-52 0 -78.5 29t-26.5 77zM381 0l653 1524 h269l-652 -1524h-270zM1028 51l31 189l63 -21q112 -35 178 -35q101 0 101 101q0 100 -101 100q-52 0 -172 -33l-59 -14v510h549v-197h-350v-98l50 10l58 4q271 0 271 -280q0 -148 -83.5 -221.5t-238.5 -73.5q-127 0 -231 37z" />
<glyph unicode="&#x2157;" horiz-adv-x="1689" d="M16 727l31 191l64 -21q105 -37 184 -37q51 0 77.5 19.5t26.5 52.5q0 34 -24 61l-15 19h-172v174h164l13 18q22 22 22 58q0 73 -100 73q-78 0 -164 -32l-57 -21l-29 188l63 23q112 39 224 39q307 0 307 -244q0 -85 -62 -160l-16 -22l14 -16q78 -75 78 -172 q0 -126 -85.5 -188t-242.5 -62q-123 0 -235 39zM362 0l654 1524h268l-651 -1524h-271zM1028 51l31 189l63 -21q112 -35 178 -35q101 0 101 101q0 100 -101 100q-52 0 -172 -33l-59 -14v510h549v-197h-350v-98l50 10l58 4q271 0 271 -280q0 -148 -83.5 -221.5t-238.5 -73.5 q-127 0 -231 37z" />
<glyph unicode="&#x2158;" horiz-adv-x="1689" d="M10 907q0 37 29 97l250 438q53 92 160 92q149 0 149 -135v-418h68v-180h-68v-125h-238v125h-245q-52 0 -78.5 29t-26.5 77zM266 981h94v178zM379 0l653 1524h268l-651 -1524h-270zM1028 51l31 189l63 -21q112 -35 178 -35q101 0 101 101q0 100 -101 100q-52 0 -172 -33 l-59 -14v510h549v-197h-350v-98l50 10l58 4q271 0 271 -280q0 -148 -83.5 -221.5t-238.5 -73.5q-127 0 -231 37z" />
<glyph unicode="&#x2159;" horiz-adv-x="1689" d="M33 676v184h203v469h-13q-25 0 -66 -9.5t-63 -25.5l-31 185q87 45 213 45h78q63 0 98 -33t35 -92v-539h164v-184h-618zM406 0l653 1524h268l-651 -1524h-270zM1040 291v293q0 130 89 201t233 71q110 0 213 -39l63 -22l-34 -189l-56 21q-84 30 -168 30q-96 0 -96 -71v-33 l45 9q32 5 62 5q266 0 266 -272q0 -136 -81 -218.5t-230 -82.5q-146 0 -226 80t-80 217zM1284 285q0 -97 64 -97q63 0 63 91q0 50 -16 75t-56 25q-14 0 -55 -10v-84z" />
<glyph unicode="&#x215a;" horiz-adv-x="1689" d="M23 727l30 188l64 -20q112 -35 178 -35q53 0 76.5 25t23.5 76q0 100 -100 100q-52 0 -172 -33l-60 -14v510h549v-197h-350v-98l51 10q30 4 58 4q270 0 270 -280q0 -148 -83.5 -221.5t-238.5 -73.5q-127 0 -231 37zM381 0l653 1524h269l-652 -1524h-270zM1040 291v293 q0 130 89 201t233 71q110 0 213 -39l63 -22l-34 -189l-56 21q-84 30 -168 30q-96 0 -96 -71v-33l45 9q32 5 62 5q266 0 266 -272q0 -136 -81 -218.5t-230 -82.5q-146 0 -226 80t-80 217zM1284 285q0 -97 64 -97q63 0 63 91q0 50 -16 75t-56 25q-14 0 -55 -10v-84z" />
<glyph unicode="&#x215b;" horiz-adv-x="1689" d="M12 676v184h203v469h-12q-25 0 -66 -9.5t-63 -25.5l-31 185q87 45 213 45h78q63 0 98 -33t35 -92v-539h164v-184h-619zM391 0l653 1524h269l-651 -1524h-271zM1032 242q0 98 74 172l16 16l-18 23q-53 68 -53 163q0 116 80.5 179t214.5 63q132 0 212 -63t80 -179 q0 -95 -53 -163l-18 -23l16 -16q74 -74 74 -172q0 -124 -81.5 -187t-229.5 -63t-231 63.5t-83 186.5zM1272 248q0 -34 19 -55t55 -21q33 0 53 21t20 55q0 37 -24 67l-17 19h-67l-15 -19q-24 -30 -24 -67zM1276 594q0 -27 27 -66l12 -18h61l13 18q24 40 24 66q0 34 -18 54 t-49 20t-50.5 -21t-19.5 -53z" />
<glyph unicode="&#x215c;" horiz-adv-x="1689" d="M16 731l31 191l64 -21q105 -37 184 -37q51 0 77.5 19.5t26.5 52.5q0 34 -24 61l-15 19h-172v174h164l13 18q22 22 22 58q0 73 -100 73q-78 0 -164 -32l-57 -21l-29 189l63 22q112 39 224 39q307 0 307 -244q0 -84 -62 -159l-16 -23l14 -16q78 -75 78 -172 q0 -126 -85.5 -188t-242.5 -62q-123 0 -235 39zM387 0l653 1524h269l-652 -1524h-270zM1032 242q0 98 74 172l16 16l-18 23q-53 68 -53 163q0 116 80.5 179t214.5 63q132 0 212 -63t80 -179q0 -95 -53 -163l-18 -23l16 -16q74 -74 74 -172q0 -124 -81.5 -187t-229.5 -63 t-231 63.5t-83 186.5zM1272 248q0 -34 19 -55t55 -21q33 0 53 21t20 55q0 37 -24 67l-17 19h-67l-15 -19q-24 -30 -24 -67zM1276 594q0 -27 27 -66l12 -18h61l13 18q24 40 24 66q0 34 -18 54t-49 20t-50.5 -21t-19.5 -53z" />
<glyph unicode="&#x215d;" horiz-adv-x="1689" d="M23 727l30 188l64 -20q112 -35 178 -35q53 0 76.5 25t23.5 76q0 100 -100 100q-52 0 -172 -33l-60 -14v510h549v-197h-350v-98l51 10q30 4 58 4q270 0 270 -280q0 -148 -83.5 -221.5t-238.5 -73.5q-127 0 -231 37zM381 0l653 1524h269l-652 -1524h-270zM1032 242 q0 98 74 172l16 16l-18 23q-53 68 -53 163q0 116 80.5 179t214.5 63q132 0 212 -63t80 -179q0 -95 -53 -163l-18 -23l16 -16q74 -74 74 -172q0 -124 -81.5 -187t-229.5 -63t-231 63.5t-83 186.5zM1272 248q0 -34 19 -55t55 -21q33 0 53 21t20 55q0 37 -24 67l-17 19h-67 l-15 -19q-24 -30 -24 -67zM1276 594q0 -27 27 -66l12 -18h61l13 18q24 40 24 66q0 34 -18 54t-49 20t-50.5 -21t-19.5 -53z" />
<glyph unicode="&#x215e;" horiz-adv-x="1689" d="M37 1327v197h498q114 0 114 -115q0 -46 -24 -113l-250 -620h-271l277 651h-344zM336 0l653 1524h268l-651 -1524h-270zM1032 242q0 98 74 172l16 16l-18 23q-53 68 -53 163q0 116 80.5 179t214.5 63q132 0 212 -63t80 -179q0 -95 -53 -163l-18 -23l16 -16q74 -74 74 -172 q0 -124 -81.5 -187t-229.5 -63t-231 63.5t-83 186.5zM1272 248q0 -34 19 -55t55 -21q33 0 53 21t20 55q0 37 -24 67l-17 19h-67l-15 -19q-24 -30 -24 -67zM1276 594q0 -27 27 -66l12 -18h61l13 18q24 40 24 66q0 34 -18 54t-49 20t-50.5 -21t-19.5 -53z" />
<glyph unicode="&#x215f;" horiz-adv-x="845" d="M31 676v184h202v469h-12q-25 0 -66 -9.5t-63 -25.5l-31 185q87 45 213 45h78q63 0 98 -33t35 -92v-539h164v-184h-618zM381 0l653 1524h269l-652 -1524h-270z" />
<glyph unicode="&#x2202;" d="M43 512q0 249 123.5 380.5t368.5 131.5q80 0 176 -25v54q0 63 -40.5 92t-129.5 29q-63 0 -146.5 -17.5t-148.5 -40.5l-107 -37l-61 353l117 38q192 66 380 66q170 0 300.5 -54t207 -165t76.5 -266v-529q0 -249 -147 -390.5t-410 -141.5q-265 0 -412 140.5t-147 381.5z M496 504q0 -160 106 -160q58 0 83.5 41t25.5 129v145l1 1q-25 12 -79 15q-8 1 -15 1q-68 0 -95 -43t-27 -129z" />
<glyph unicode="&#x2206;" d="M16 0l244 1317q43 221 356 221q309 0 349 -221l235 -1317h-1184zM500 379h211l-105 719z" />
<glyph unicode="&#x220f;" horiz-adv-x="1529" d="M61 1169v355h1409v-355h-145v-1169h-479v1169h-158v-1169h-477v1169h-150z" />
<glyph unicode="&#x2211;" d="M37 -141q0 106 72 204l325 519l-325 512q-72 98 -72 204q0 102 55.5 164t163.5 62h926v-539h-375v191h-305l362 -594l-362 -600h303v190h375v-539h-924q-108 0 -163.5 62t-55.5 164z" />
<glyph unicode="&#x2212;" d="M80 446v314h1048v-314h-1048z" />
<glyph unicode="&#x2215;" horiz-adv-x="40" d="M-440 0l653 1524h268l-651 -1524h-270z" />
<glyph unicode="&#x2219;" horiz-adv-x="772" d="M156 739q0 94 61 150.5t170 56.5q107 0 168 -56.5t61 -150.5q0 -96 -60.5 -152.5t-168.5 -56.5q-109 0 -170 56.5t-61 152.5z" />
<glyph unicode="&#x221a;" d="M20 829v308h451l104 -666l185 1053h452v-305h-98l-240 -1053q-26 -94 -105.5 -142.5t-201.5 -48.5q-119 0 -198 48.5t-103 142.5l-153 663h-93z" />
<glyph unicode="&#x221e;" horiz-adv-x="1640" d="M66 612q0 214 107.5 338.5t322.5 124.5q121 0 266 -76l57 -28l60 28q145 76 266 76q215 0 322.5 -124.5t107.5 -338.5t-107.5 -338t-322.5 -124q-123 0 -266 75l-60 31l-57 -31q-143 -75 -266 -75q-215 0 -322.5 124t-107.5 338zM428 612q0 -157 96 -157q39 0 82 22l10 8 v258l-10 7q-41 24 -82 24q-96 0 -96 -162zM1022 485l12 -8q43 -22 82 -22q94 0 94 157q0 81 -25 121.5t-69 40.5q-41 0 -82 -24l-12 -7v-258z" />
<glyph unicode="&#x222b;" d="M219 -74q63 1 90 27t27 78v1140q0 192 117 294t327 102q159 0 328 -58l-47 -299q-103 35 -180 35q-68 0 -96.5 -25t-28.5 -85v-1110q0 -396 -537 -396v297z" />
<glyph unicode="&#x2248;" d="M18 762q131 289 392 289q60 0 108 -15.5t107 -48.5l63 -35q58 -30 100 -30q101 0 152 125l231 -152q-72 -150 -170.5 -214.5t-228.5 -64.5q-115 0 -219 64l-59 35q-54 30 -101 30q-82 0 -145 -118zM33 315q134 289 393 289q60 0 108.5 -15.5t106.5 -47.5l64 -37 q3 -1 15.5 -7t19 -8.5t18 -6.5t23 -5.5t24.5 -1.5q99 0 151 123l232 -149q-72 -150 -171 -214.5t-229 -64.5q-116 0 -219 63l-59 35q-55 31 -100 31q-81 0 -146 -121z" />
<glyph unicode="&#x2260;" d="M80 268v287h317l58 113h-375v286h522l119 230h330l-117 -230h194v-286h-342l-55 -113h397v-287h-542l-99 -194h-333l98 194h-172z" />
<glyph unicode="&#x2264;" d="M78 0v295h1050v-295h-1050zM82 745q0 98 45 154t139 78l862 201v-324l-598 -109l598 -110v-316l-856 195q-95 22 -142.5 77t-47.5 154z" />
<glyph unicode="&#x2265;" d="M80 0v295h1050v-295h-1050zM80 319v316l598 110l-598 109v324l862 -201q94 -22 139 -78t45 -154q0 -99 -47.5 -154t-142.5 -77z" />
<glyph unicode="&#x25ca;" d="M29 760l360 682q52 104 217 104q155 0 211 -104l361 -682l-363 -684q-56 -99 -213 -99q-156 0 -213 105zM455 762l151 -330l154 330l-154 328z" />
<glyph unicode="&#xe000;" horiz-adv-x="1136" d="M0 0v1137h1137v-1137h-1137z" />
<glyph unicode="&#xf6c3;" horiz-adv-x="1087" d="M334 -248l45 172h393l-76 -243q-20 -65 -62.5 -98.5t-125.5 -33.5q-105 0 -150 58t-24 145z" />
<glyph unicode="&#xfb04;" horiz-adv-x="2316" d="M31 831v306h135v47q0 194 128.5 292.5t375.5 98.5q115 0 229.5 -14.5t170.5 -27.5t87 -24q114 66 301 66q179 0 340 -51l443 71v-1595h-443v1225q-118 28 -229 28q-92 0 -129 -22.5t-37 -83.5v-10h295v-306h-295v-831h-422v831h-393v-831h-422v831h-135zM588 1137h393v47 q0 31 2 45q-187 24 -231 24q-91 0 -127.5 -22.5t-36.5 -83.5v-10z" />
<glyph horiz-adv-x="667" d="M35 268v305q0 137 77.5 211t219.5 74q146 0 223.5 -73t77.5 -210v-305q0 -135 -76.5 -207.5t-220.5 -72.5q-146 0 -223.5 71.5t-77.5 206.5zM279 262q0 -78 55 -78q30 0 42.5 19t12.5 59v324q0 76 -55 76t-55 -76v-324z" />
<glyph horiz-adv-x="667" d="M29 0v184h202v469h-12q-25 0 -66 -9.5t-63 -25.5l-31 185q87 45 213 45h78q63 0 98 -33t35 -92v-539h164v-184h-618z" />
<glyph horiz-adv-x="667" d="M23 106q0 64 36 97l217 200q57 53 79 86t22 80q0 43 -26 66.5t-75 23.5q-69 0 -159 -32l-58 -21l-28 189l63 24q122 37 223 37q146 0 227 -67.5t81 -202.5q0 -77 -34.5 -144t-117.5 -145l-125 -117h277v-180h-498q-52 0 -78 29t-26 77z" />
<glyph horiz-adv-x="667" d="M14 51l31 191l64 -21q105 -37 184 -37q51 0 77.5 19.5t26.5 52.5q0 34 -24 61l-15 19h-172v174h164l12 18q23 23 23 58q0 73 -100 73q-78 0 -164 -32l-58 -21l-28 189l63 22q112 39 224 39q307 0 307 -244q0 -84 -62 -159l-16 -23l14 -16q78 -75 78 -172 q0 -126 -85.5 -188t-242.5 -62q-123 0 -235 39z" />
<glyph horiz-adv-x="667" d="M6 231q0 37 29 97l250 438q53 92 159 92q150 0 150 -135v-418h68v-180h-68v-125h-238v125h-245q-52 0 -78.5 29t-26.5 77zM262 305h94v178z" />
<glyph horiz-adv-x="667" d="M23 51l30 189l64 -21q112 -35 178 -35q53 0 76.5 25t23.5 76q0 100 -100 100q-52 0 -172 -33l-60 -14v510h549v-197h-350v-98l51 10q30 4 58 4q270 0 270 -280q0 -148 -83.5 -221.5t-238.5 -73.5q-127 0 -231 37z" />
<glyph horiz-adv-x="667" d="M31 291v293q0 130 88.5 201t232.5 71q110 0 213 -39l64 -22l-35 -189l-55 21q-84 30 -168 30q-97 0 -97 -71v-33l45 9q32 5 62 5q266 0 266 -272q0 -136 -81 -218.5t-230 -82.5q-146 0 -225.5 80t-79.5 217zM274 285q0 -97 64 -97q63 0 63 91q0 50 -15.5 75t-55.5 25 q-17 0 -56 -10v-84z" />
<glyph horiz-adv-x="667" d="M35 651v197h497q115 0 115 -115q0 -45 -24 -112l-250 -621h-271l277 651h-344z" />
<glyph horiz-adv-x="667" d="M23 242q0 99 73 172l17 16l-19 23q-53 68 -53 163q0 116 80.5 179t214.5 63q133 0 213 -63t80 -179q0 -94 -54 -163l-18 -23l16 -16q74 -74 74 -172q0 -124 -81.5 -187t-229.5 -63t-230.5 63.5t-82.5 186.5zM262 248q0 -34 19 -55t55 -21q34 0 54 21t20 55q0 36 -25 67 l-16 19h-68l-14 -19q-25 -31 -25 -67zM266 594q0 -27 27 -66l12 -18h62l12 18q24 40 24 66q0 34 -18 54t-49 20t-50.5 -21t-19.5 -53z" />
<glyph horiz-adv-x="667" d="M20 555q0 135 82.5 218t231.5 83q146 0 225.5 -80t79.5 -217v-295q0 -129 -89.5 -199.5t-234.5 -70.5q-104 0 -213 37l-63 20l33 193l57 -21q88 -30 168 -30q51 0 73.5 16t22.5 53v33l-4 -1q-54 -13 -102 -13q-267 0 -267 274zM268 569q0 -48 15.5 -73t54.5 -25t55 8v84 q0 52 -14 75.5t-49 23.5q-62 0 -62 -93z" />
<glyph horiz-adv-x="667" d="M53 315q0 125 57.5 205.5t157.5 104.5v153h183v-149q48 -6 98 -21l53 -18l-24 -180l-50 14q-71 27 -131 27q-106 0 -106 -136q0 -137 106 -137q52 0 133 29l48 16l24 -184l-53 -19q-34 -10 -98 -22v-150h-183v156q-101 25 -158 105t-57 206z" />
<glyph horiz-adv-x="667" d="M29 575q0 115 57.5 183.5t159.5 87.5v143h180v-141q56 -2 141 -25l76 -20l-35 -223l-76 24q-100 33 -196 33q-28 0 -42.5 -13t-14.5 -34q0 -40 49 -49l96 -23q221 -55 221 -248q0 -115 -58.5 -184t-160.5 -88v-145h-180v143q-82 7 -137 24l-78 21l39 223l73 -24 q98 -33 199 -33q25 0 40 13t15 36q0 36 -49 49l-94 23q-225 52 -225 247z" />
<glyph horiz-adv-x="667" d="M25 264v133h69v58h-69v135h71q13 126 97.5 196t212.5 70q84 0 182 -31l53 -16l-23 -182l-51 14q-71 27 -131 27q-41 0 -67.5 -20t-32.5 -58h172v-135h-178v-58h178v-133h-172q4 -41 31 -63.5t69 -22.5q54 0 131 29l51 14l23 -182l-53 -19q-89 -28 -182 -28 q-129 0 -214.5 71.5t-95.5 200.5h-71z" />
<glyph horiz-adv-x="503" d="M31 270v170h440v-170h-440z" />
<glyph horiz-adv-x="667" d="M45 250v168h188v213h195v-213h197v-168h-197v-211h-195v211h-188z" />
<glyph horiz-adv-x="667" d="M43 250v168h582v-168h-582z" />
<glyph horiz-adv-x="667" d="M45 150v159h580v-159h-580zM45 367v159h580v-159h-580z" />
<glyph horiz-adv-x="466" d="M45 387q0 83 12 150.5t32 114.5t49.5 83t61.5 57t71 34t74 17.5t75 4.5v-164q-139 -11 -139 -297q0 -80 10 -139t24 -89.5t35.5 -49t36 -23t33.5 -6.5v-166q-52 0 -98.5 10t-99 41t-90 81t-62.5 137.5t-25 203.5z" />
<glyph horiz-adv-x="466" d="M47 80q19 2 33.5 6.5t36 23t35.5 49t24 89.5t10 139q0 286 -139 297v164q46 0 86.5 -7t85 -24t79.5 -51t64 -83t44.5 -124.5t15.5 -171.5q0 -116 -25 -203.5t-62.5 -137.5t-90 -81t-99 -41t-98.5 -10v166z" />
<glyph horiz-adv-x="315" d="M20 -29l50 230h233l-76 -269q-19 -71 -108 -71q-61 0 -86.5 31t-12.5 79z" />
<glyph horiz-adv-x="315" d="M31 102q0 52 34 83.5t93 31.5t93 -31.5t34 -83.5q0 -53 -33.5 -83.5t-93.5 -30.5t-93.5 30.5t-33.5 83.5z" />
<glyph d="M61 373v155h111v39v23h-111v158h129q46 195 190 298t355 103q177 0 328 -53l98 -31l-43 -338l-90 29q-128 47 -237 47q-91 0 -134 -55h230v-158h-277v-23v-39h277v-155h-217q43 -43 121 -43q109 0 237 47l90 29l43 -336l-98 -31q-151 -53 -328 -53q-206 0 -348 99.5 t-192 287.5h-134z" />
<glyph d="M63 485v547q0 245 138.5 376.5t398.5 131.5q264 0 404.5 -130t140.5 -374v-547q0 -245 -138 -376t-399 -131q-265 0 -405 129t-140 374zM510 768l160 387q-24 27 -66 27q-94 0 -94 -129v-285zM545 360q20 -20 59 -20q94 0 94 129v262z" />
<glyph d="M63 485v547q0 245 138.5 376.5t398.5 131.5q264 0 404.5 -130t140.5 -374v-547q0 -245 -138 -376t-399 -131q-265 0 -405 129t-140 374zM510 469q0 -129 94 -129t94 129v584q0 129 -94 129t-94 -129v-584z" />
<glyph d="M49 0v340h363v825h-17q-47 0 -119.5 -17.5t-113.5 -47.5l-60 342q87 42 192 62t198 20h141q115 0 178 -60t63 -166v-958h293v-340h-1118z" />
<glyph d="M39 197q0 115 67 174l392 356q102 98 139 154t37 141q0 72 -45 113t-131 41q-61 0 -141 -17.5t-144 -42.5l-107 -37l-51 353l115 38q197 68 403 68q264 0 409.5 -121.5t145.5 -367.5q0 -137 -62 -258t-210 -263l-217 -194h489v-334h-897q-95 0 -143.5 53.5t-48.5 143.5z " />
<glyph d="M27 94l55 348l119 -41q70 -25 164.5 -43t164.5 -18q87 0 133 32t46 91q0 62 -41 108l-25 31h-311v322h297l22 24q37 43 37 101q0 127 -176 127q-62 0 -145 -17.5t-146 -42.5l-106 -37l-52 353l117 38q194 68 404 68q266 0 409.5 -103.5t143.5 -334.5q0 -155 -113 -291 l-29 -35l27 -26q73 -73 105 -147t32 -167q0 -227 -153.5 -337.5t-436.5 -110.5q-220 0 -424 69z" />
<glyph d="M10 418q0 84 56 176l442 782q90 164 289 164q139 0 207.5 -59.5t68.5 -184.5v-741h119v-334h-119v-221h-438v221h-432q-95 0 -144 53.5t-49 143.5zM483 555h152v297z" />
<glyph d="M53 92l58 346l114 -37q177 -61 320 -61q90 0 132 42.5t42 129.5q0 174 -174 174q-111 0 -309 -55l-111 -31v924h991v-363h-627v-164q108 27 193 27q487 0 487 -508q0 -267 -150.5 -398.5t-432.5 -131.5q-214 0 -412 67z" />
<glyph d="M55 522v529q0 231 161 358t421 127q191 0 383 -66l117 -38l-62 -353l-106 37q-64 23 -149 40.5t-148 17.5q-88 0 -128 -29t-40 -92v-54q47 16 132 23q29 2 56 2q243 0 361 -123t118 -371q0 -244 -148.5 -392t-418.5 -148q-261 0 -405 142.5t-144 389.5zM504 514 q0 -88 24.5 -129t81.5 -41q50 0 78.5 39.5t28.5 120.5q0 85 -27 128.5t-94 43.5q-54 -1 -92 -17v-145z" />
<glyph d="M63 1161v363h893q109 0 162 -54.5t53 -154.5q0 -78 -49 -205l-446 -1110h-496l494 1161h-611z" />
<glyph d="M41 436q0 92 31 166.5t102 145.5l29 26l-29 35q-100 121 -100 295q0 211 144.5 323.5t387.5 112.5q242 0 386.5 -112.5t144.5 -323.5q0 -173 -101 -295l-28 -35l28 -26q71 -71 102 -145.5t31 -166.5q0 -222 -147.5 -336t-413.5 -114q-267 0 -417 114.5t-150 335.5z M481 446q0 -56 33 -92.5t92 -36.5q58 0 92.5 35.5t34.5 93.5q0 64 -45 121l-26 31h-113l-27 -31q-41 -55 -41 -121zM492 1065q0 -56 45 -115l18 -26h102l19 26q47 62 47 115q0 58 -32 92.5t-85 34.5q-51 0 -82.5 -35t-31.5 -92z" />
<glyph d="M37 995q0 244 148 392.5t417 148.5q263 0 407 -142.5t144 -389.5v-529q0 -155 -76 -265.5t-206.5 -165t-301.5 -54.5q-192 0 -381 65l-116 39l61 352l107 -36q63 -25 148 -42t147 -16q89 0 129.5 29t40.5 92v53q2 1 -2 0q-1 0 -3 -1q-94 -23 -184 -23 q-244 0 -361.5 122.5t-117.5 370.5zM489 1024q0 -86 27.5 -130t95.5 -44q53 1 93 16v146q0 88 -25 129t-84 41q-50 0 -78.5 -39t-28.5 -119z" />
<glyph d="M96 567q0 227 102 370.5t283 188.5v275h334v-268q103 -13 172 -37l100 -31l-45 -338l-90 31q-133 45 -237 45q-180 0 -180 -236q0 -237 180 -237q109 0 237 47l90 29l45 -336l-100 -31q-75 -28 -172 -41v-268h-334v276q-181 47 -283 191t-102 370z" />
<glyph d="M53 1036q0 207 101.5 328t285.5 156v256h334v-252q141 -10 246 -43l139 -37l-65 -410l-138 45q-171 58 -348 58q-49 0 -73.5 -21.5t-24.5 -58.5q0 -61 86 -84l166 -39q401 -93 401 -445q0 -206 -104 -330t-285 -161v-262h-334v258q-146 10 -241 41l-140 39l66 409 l137 -43q174 -59 352 -59q44 0 69.5 21.5t25.5 58.5q0 63 -84 84l-168 39q-191 43 -297.5 155t-106.5 297z" />
<glyph d="M43 469v248h123v100h-123v248h131q24 226 175 349.5t380 123.5q177 0 328 -53l100 -31l-45 -336l-90 29q-139 47 -238 47q-68 0 -113.5 -33.5t-54.5 -95.5h302v-248h-314v-100h314v-248h-306q10 -65 57 -102t115 -37q110 0 238 47l90 29l45 -336l-100 -31 q-151 -53 -328 -53q-232 0 -383 126t-172 357h-131z" />
<glyph d="M63 485v168q0 245 138.5 376.5t398.5 131.5q264 0 404.5 -130t140.5 -374v-168q0 -245 -138 -376t-399 -131q-265 0 -405 129t-140 374zM510 522q0 -40 1.5 -64t6.5 -49.5t15 -38.5t27.5 -21.5t43.5 -8.5q94 0 94 129v152q0 96 -18 139t-76 43q-60 0 -77 -41.5 t-17 -140.5v-99z" />
<glyph d="M49 0v340h363v438h-17q-45 0 -118.5 -18t-114.5 -47l-60 340q87 43 193 63.5t197 20.5h141q115 0 178 -60t63 -166v-571h293v-340h-1118z" />
<glyph d="M39 197q0 130 102 184l305 176q84 45 117 82t33 90q0 41 -30.5 64.5t-86.5 23.5q-127 0 -268 -51l-105 -35l-51 326l123 39q94 30 216.5 46.5t232.5 16.5q234 0 366.5 -86.5t132.5 -255.5q0 -104 -53 -193.5t-190 -174.5l-168 -115h413v-334h-897q-95 0 -143.5 53.5 t-48.5 143.5z" />
<glyph d="M27 -264l55 348l119 -39q69 -26 163.5 -44.5t165.5 -18.5q88 0 133.5 30t45.5 86q0 59 -41 103l-25 30h-311v320h295l24 24q37 43 37 97q0 121 -176 121q-62 0 -145 -17.5t-146 -42.5l-106 -37l-52 351l117 40q88 31 200 49.5t210 18.5q547 0 547 -432q0 -151 -113 -291 l-29 -35l27 -26q74 -74 105.5 -141.5t31.5 -157.5q0 -224 -151.5 -337.5t-434.5 -113.5q-204 0 -428 76z" />
<glyph d="M10 197q0 101 56 176l440 618q59 82 127.5 123t163.5 41q139 0 207.5 -59.5t68.5 -184.5v-577h119v-334h-119v-365h-438v365h-432q-95 0 -144 53.5t-49 143.5zM475 334h160v250z" />
<glyph d="M53 -274l58 346l114 -39q194 -63 320 -60q174 0 174 168q0 81 -42.5 126.5t-131.5 45.5q-104 0 -309 -57l-111 -31v912h991v-359h-627v-164q108 27 193 27q249 0 368 -122.5t119 -373.5q0 -266 -150 -396t-433 -130q-211 0 -412 68z" />
<glyph d="M55 522v529q0 231 161 358t421 127q191 0 383 -66l117 -38l-62 -353l-106 37q-64 23 -149 40.5t-148 17.5q-88 0 -128 -29t-40 -92v-54q47 16 132 23q29 2 56 2q243 0 361 -123t118 -371q0 -244 -148.5 -392t-418.5 -148q-261 0 -405 142.5t-144 389.5zM504 514 q0 -88 24.5 -129t81.5 -41q50 0 78.5 39.5t28.5 120.5q0 85 -27 128.5t-94 43.5q-54 -1 -92 -17v-145z" />
<glyph d="M63 774v363h893q109 0 162 -55t53 -154q0 -76 -49 -207l-446 -1086h-496l494 1139h-611z" />
<glyph d="M41 436q0 92 31 166.5t102 145.5l29 26l-29 35q-100 124 -100 295q0 211 144.5 323.5t387.5 112.5q242 0 386.5 -112.5t144.5 -323.5q0 -173 -101 -295l-28 -35l28 -26q71 -71 102 -145.5t31 -166.5q0 -222 -147.5 -336t-413.5 -114q-267 0 -417 114.5t-150 335.5z M481 446q0 -56 33 -92.5t92 -36.5q58 0 92.5 35.5t34.5 93.5q0 64 -45 121l-26 31h-113l-27 -31q-41 -55 -41 -121zM492 1065q0 -56 45 -115l18 -26h102l19 26q47 62 47 115q0 58 -32 92.5t-85 34.5q-51 0 -82.5 -35t-31.5 -92z" />
<glyph d="M37 618q0 244 148 391.5t417 147.5q263 0 407 -140.5t144 -387.5v-527q0 -116 -43.5 -208.5t-122 -151.5t-184.5 -90t-234 -31q-189 0 -381 66l-116 39l61 348l107 -37q63 -24 148 -41t147 -16q89 0 129.5 28.5t40.5 91.5v56q-18 -7 -84 -17q-54 -8 -105 -8 q-245 0 -362 120.5t-117 366.5zM489 647q0 -85 27 -126.5t96 -41.5q48 0 93 15v141q0 89 -25 128.5t-84 39.5q-107 0 -107 -156z" />
<glyph d="M96 567q0 227 102 370.5t283 188.5v275h334v-268q103 -13 172 -37l100 -31l-45 -338l-90 31q-133 45 -237 45q-180 0 -180 -236q0 -237 180 -237q109 0 237 47l90 29l45 -336l-100 -31q-75 -28 -172 -41v-268h-334v276q-181 47 -283 191t-102 370z" />
<glyph d="M94 86l53 324l132 -45q197 -74 333 -74q88 0 88 57q0 54 -75 60l-189 28q-174 25 -258 105.5t-84 228.5q0 152 91 245.5t253 121.5v264h334v-264q91 -11 211 -47l127 -41l-55 -322l-129 45q-212 74 -334 74q-88 0 -88 -60q0 -51 76 -57l188 -29q173 -25 256.5 -103.5 t83.5 -225.5q0 -152 -89 -246.5t-247 -124.5v-270h-334v268q-109 12 -217 49z" />
<glyph d="M61 373v155h111v39v23h-111v158h129q46 195 190 298t355 103q177 0 328 -53l98 -31l-43 -338l-90 29q-128 47 -237 47q-91 0 -134 -55h230v-158h-277v-23v-39h277v-155h-217q43 -43 121 -43q109 0 237 47l90 29l43 -336l-98 -31q-151 -53 -328 -53q-206 0 -348 99.5 t-192 287.5h-134z" />
<glyph d="M63 485v168q0 245 138.5 376.5t398.5 131.5q264 0 404.5 -130t140.5 -374v-168q0 -245 -138 -376t-399 -131q-265 0 -405 129t-140 374zM510 537l133 260q-15 6 -39 6q-60 0 -77 -41.5t-17 -140.5v-84zM580 342q6 -2 24 -2q94 0 94 129v104z" />
<glyph d="M63 485v168q0 245 138.5 376.5t398.5 131.5q264 0 404.5 -130t140.5 -374v-168q0 -245 -138 -376t-399 -131q-265 0 -405 129t-140 374zM510 522q0 -40 1.5 -64t6.5 -49.5t15 -38.5t27.5 -21.5t43.5 -8.5q94 0 94 129v152q0 96 -18 139t-76 43q-60 0 -77 -41.5 t-17 -140.5v-99z" />
<glyph d="M49 0v340h363v438h-17q-45 0 -118.5 -18t-114.5 -47l-60 340q87 43 193 63.5t197 20.5h141q115 0 178 -60t63 -166v-571h293v-340h-1118z" />
<glyph d="M39 197q0 130 102 184l305 176q84 45 117 82t33 90q0 41 -30.5 64.5t-86.5 23.5q-127 0 -268 -51l-105 -35l-51 326l123 39q94 30 216.5 46.5t232.5 16.5q234 0 366.5 -86.5t132.5 -255.5q0 -104 -53 -193.5t-190 -174.5l-168 -115h413v-334h-897q-95 0 -143.5 53.5 t-48.5 143.5z" />
<glyph d="M27 -264l55 348l119 -39q69 -26 163.5 -44.5t165.5 -18.5q88 0 133.5 30t45.5 86q0 59 -41 103l-25 30h-311v320h295l24 24q37 43 37 97q0 121 -176 121q-62 0 -145 -17.5t-146 -42.5l-106 -37l-52 351l117 40q88 31 200 49.5t210 18.5q547 0 547 -432q0 -151 -113 -291 l-29 -35l27 -26q74 -74 105.5 -141.5t31.5 -157.5q0 -224 -151.5 -337.5t-434.5 -113.5q-204 0 -428 76z" />
<glyph d="M10 197q0 101 56 176l440 618q59 82 127.5 123t163.5 41q139 0 207.5 -59.5t68.5 -184.5v-577h119v-334h-119v-365h-438v365h-432q-95 0 -144 53.5t-49 143.5zM475 334h160v250z" />
<glyph d="M53 -274l58 346l114 -39q194 -63 320 -60q174 0 174 168q0 81 -42.5 126.5t-131.5 45.5q-104 0 -309 -57l-111 -31v912h991v-359h-627v-164q108 27 193 27q249 0 368 -122.5t119 -373.5q0 -266 -150 -396t-433 -130q-211 0 -412 68z" />
<glyph d="M55 522v529q0 231 161 358t421 127q191 0 383 -66l117 -38l-62 -353l-106 37q-64 23 -149 40.5t-148 17.5q-88 0 -128 -29t-40 -92v-54q47 16 132 23q29 2 56 2q243 0 361 -123t118 -371q0 -244 -148.5 -392t-418.5 -148q-261 0 -405 142.5t-144 389.5zM504 514 q0 -88 24.5 -129t81.5 -41q50 0 78.5 39.5t28.5 120.5q0 85 -27 128.5t-94 43.5q-54 -1 -92 -17v-145z" />
<glyph d="M63 774v363h893q109 0 162 -55t53 -154q0 -76 -49 -207l-446 -1086h-496l494 1139h-611z" />
<glyph d="M41 436q0 92 31 166.5t102 145.5l29 26l-29 35q-100 124 -100 295q0 211 144.5 323.5t387.5 112.5q242 0 386.5 -112.5t144.5 -323.5q0 -173 -101 -295l-28 -35l28 -26q71 -71 102 -145.5t31 -166.5q0 -222 -147.5 -336t-413.5 -114q-267 0 -417 114.5t-150 335.5z M481 446q0 -56 33 -92.5t92 -36.5q58 0 92.5 35.5t34.5 93.5q0 64 -45 121l-26 31h-113l-27 -31q-41 -55 -41 -121zM492 1065q0 -56 45 -115l18 -26h102l19 26q47 62 47 115q0 58 -32 92.5t-85 34.5q-51 0 -82.5 -35t-31.5 -92z" />
<glyph d="M37 618q0 244 148 391.5t417 147.5q263 0 407 -140.5t144 -387.5v-527q0 -116 -43.5 -208.5t-122 -151.5t-184.5 -90t-234 -31q-189 0 -381 66l-116 39l61 348l107 -37q63 -24 148 -41t147 -16q89 0 129.5 28.5t40.5 91.5v56q-18 -7 -84 -17q-54 -8 -105 -8 q-245 0 -362 120.5t-117 366.5zM489 647q0 -85 27 -126.5t96 -41.5q48 0 93 15v141q0 89 -25 128.5t-84 39.5q-107 0 -107 -156z" />
<glyph d="M96 567q0 227 102 370.5t283 188.5v275h334v-268q103 -13 172 -37l100 -31l-45 -338l-90 31q-133 45 -237 45q-180 0 -180 -236q0 -237 180 -237q109 0 237 47l90 29l45 -336l-100 -31q-75 -28 -172 -41v-268h-334v276q-181 47 -283 191t-102 370z" />
<glyph d="M94 86l53 324l132 -45q197 -74 333 -74q88 0 88 57q0 54 -75 60l-189 28q-174 25 -258 105.5t-84 228.5q0 152 91 245.5t253 121.5v264h334v-264q91 -11 211 -47l127 -41l-55 -322l-129 45q-212 74 -334 74q-88 0 -88 -60q0 -51 76 -57l188 -29q173 -25 256.5 -103.5 t83.5 -225.5q0 -152 -89 -246.5t-247 -124.5v-270h-334v268q-109 12 -217 49z" />
<glyph horiz-adv-x="667" d="M53 111q0 125 57.5 205t157.5 104v153h183v-149q48 -6 98 -21l53 -18l-24 -180l-50 14q-71 27 -131 27q-106 0 -106 -135q0 -138 106 -138q52 0 133 29l48 16l24 -184l-53 -18q-43 -13 -98 -23v-149h-183v155q-101 25 -158 105.5t-57 206.5z" />
<glyph horiz-adv-x="667" d="M29 371q0 115 57.5 183t159.5 87v143h180v-141q56 -2 141 -25l76 -20l-35 -223l-76 24q-100 33 -196 33q-28 0 -42.5 -13t-14.5 -34q0 -40 49 -49l96 -23q221 -55 221 -247q0 -115 -58.5 -184.5t-160.5 -88.5v-145h-180v143q-78 7 -137 25l-78 20l39 223l73 -24 q98 -33 199 -33q25 0 40 13t15 36q0 36 -49 49l-94 23q-225 52 -225 248z" />
<glyph horiz-adv-x="667" d="M25 59v134h69v57h-69v135h71q13 126 97.5 196t212.5 70q87 0 182 -30l53 -17l-23 -182l-51 14q-71 27 -131 27q-41 0 -67.5 -20t-32.5 -58h172v-135h-178v-57h178v-134h-172q4 -41 31 -63.5t69 -22.5q54 0 131 29l51 14l23 -182l-53 -18q-92 -29 -182 -29 q-129 0 -214.5 71.5t-95.5 200.5h-71z" />
<glyph horiz-adv-x="503" d="M31 66v170h440v-170h-440z" />
<glyph horiz-adv-x="667" d="M45 45v168h188v213h195v-213h197v-168h-197v-211h-195v211h-188z" />
<glyph horiz-adv-x="667" d="M43 45v168h582v-168h-582z" />
<glyph horiz-adv-x="667" d="M45 -55v159h580v-159h-580zM45 162v160h580v-160h-580z" />
<glyph horiz-adv-x="315" d="M20 -233l50 229h233l-76 -268q-19 -72 -108 -72q-61 0 -86.5 31.5t-12.5 79.5z" />
<glyph horiz-adv-x="315" d="M31 -102q0 52 34 83t93 31t93 -31t34 -83q0 -53 -33.5 -84t-93.5 -31t-93.5 31t-33.5 84z" />
<glyph horiz-adv-x="667" d="M35 63v306q0 136 77 210t220 74q146 0 223.5 -72.5t77.5 -209.5v-305q0 -135 -76.5 -208t-220.5 -73q-146 0 -223.5 71.5t-77.5 206.5zM279 184l96 256q-17 17 -41 17q-55 0 -55 -76v-197zM295 -4q13 -16 39 -16q30 0 42.5 18.5t12.5 58.5v189z" />
<glyph horiz-adv-x="667" d="M35 268v305q0 137 77.5 211t219.5 74q146 0 223.5 -73t77.5 -210v-305q0 -135 -76.5 -207.5t-220.5 -72.5q-146 0 -223.5 71.5t-77.5 206.5zM279 383l98 260q-16 19 -43 19q-55 0 -55 -76v-203zM297 197q16 -13 37 -13q30 0 42.5 19t12.5 59v180z" />
<glyph horiz-adv-x="667" d="M35 944v305q0 137 77.5 211t219.5 74q146 0 223.5 -73t77.5 -210v-305q0 -135 -76.5 -207.5t-220.5 -72.5q-146 0 -223.5 71.5t-77.5 206.5zM279 938q0 -78 55 -78q30 0 42.5 19t12.5 59v324q0 38 -12.5 56.5t-42.5 18.5q-55 0 -55 -75v-324z" />
<glyph horiz-adv-x="667" d="M29 676v184h202v469h-12q-25 0 -66 -9.5t-63 -25.5l-31 185q87 45 213 45h78q63 0 98 -33t35 -92v-539h164v-184h-618z" />
<glyph horiz-adv-x="667" d="M23 782q0 64 36 97l217 200q57 53 79 86t22 80q0 43 -26 66.5t-75 23.5q-69 0 -159 -32l-58 -21l-28 188l63 25q122 37 223 37q146 0 227 -67.5t81 -202.5q0 -77 -34.5 -144t-117.5 -145l-125 -117h277v-180h-498q-52 0 -78 29t-26 77z" />
<glyph horiz-adv-x="667" d="M14 727l31 191l64 -21q105 -37 184 -37q51 0 77.5 19.5t26.5 52.5q0 34 -24 61l-15 19h-172v174h164l12 18q23 23 23 58q0 73 -100 73q-78 0 -164 -32l-58 -21l-28 188l63 23q112 39 224 39q307 0 307 -244q0 -85 -62 -160l-16 -22l14 -16q78 -75 78 -172 q0 -126 -85.5 -188t-242.5 -62q-123 0 -235 39z" />
<glyph horiz-adv-x="667" d="M6 907q0 37 29 97l250 438q53 92 159 92q150 0 150 -135v-418h68v-180h-68v-125h-238v125h-245q-52 0 -78.5 29t-26.5 77zM262 981h94v178z" />
<glyph horiz-adv-x="667" d="M23 727l30 188l64 -20q112 -35 178 -35q53 0 76.5 25t23.5 76q0 100 -100 100q-52 0 -172 -33l-60 -14v510h549v-197h-350v-98l51 10q30 4 58 4q270 0 270 -280q0 -148 -83.5 -221.5t-238.5 -73.5q-127 0 -231 37z" />
<glyph horiz-adv-x="667" d="M31 967v293q0 130 88.5 201t232.5 71q110 0 213 -39l64 -23l-35 -188l-55 21q-84 30 -168 30q-97 0 -97 -71v-33l45 9q32 5 62 5q266 0 266 -272q0 -136 -81 -218.5t-230 -82.5q-146 0 -225.5 80t-79.5 217zM274 961q0 -97 64 -97q63 0 63 90q0 50 -15.5 75.5t-55.5 25.5 q-18 0 -56 -11v-83z" />
<glyph horiz-adv-x="667" d="M35 1327v197h497q115 0 115 -115q0 -46 -24 -113l-250 -620h-271l277 651h-344z" />
<glyph horiz-adv-x="667" d="M23 918q0 99 73 172l17 16l-19 22q-53 68 -53 164q0 116 80.5 179t214.5 63q133 0 213 -63t80 -179q0 -95 -54 -164l-18 -22l16 -16q74 -74 74 -172q0 -124 -81.5 -187t-229.5 -63t-230.5 63.5t-82.5 186.5zM262 924q0 -34 19 -55t55 -21q34 0 54 21t20 55q0 36 -25 67 l-16 19h-68l-14 -19q-25 -31 -25 -67zM266 1270q0 -27 27 -66l12 -18h62l12 18q24 40 24 66q0 34 -18 53.5t-49 19.5t-50.5 -20.5t-19.5 -52.5z" />
<glyph horiz-adv-x="667" d="M20 1231q0 135 82.5 218t231.5 83q146 0 225.5 -80t79.5 -217v-295q0 -129 -89.5 -199.5t-234.5 -70.5q-104 0 -213 37l-63 20l33 193l57 -21q91 -31 168 -31q51 0 73.5 16.5t22.5 53.5v33q-11 -6 -59 -12q-24 -3 -47 -3q-267 0 -267 275zM268 1245q0 -48 15.5 -73 t54.5 -25t55 8v84q0 52 -14 75t-49 23q-62 0 -62 -92z" />
<glyph horiz-adv-x="667" d="M53 991q0 125 57.5 205t157.5 104v154h183v-149q48 -6 98 -21l53 -18l-24 -181l-50 15q-69 26 -131 26q-106 0 -106 -135q0 -137 106 -137q52 0 133 29l48 16l24 -184l-53 -19q-34 -10 -98 -22v-150h-183v156q-101 25 -158 105t-57 206z" />
<glyph horiz-adv-x="667" d="M29 1251q0 115 57.5 183.5t159.5 87.5v143h180v-141q56 -2 141 -25l76 -20l-35 -224l-76 25q-100 33 -196 33q-28 0 -42.5 -13t-14.5 -34q0 -40 49 -49l96 -23q221 -55 221 -248q0 -115 -58.5 -184t-160.5 -88v-146h-180v144q-82 7 -137 24l-78 21l39 223l73 -25 q95 -32 199 -32q25 0 40 13t15 36q0 36 -49 49l-94 23q-225 52 -225 247z" />
<glyph horiz-adv-x="667" d="M25 940v133h69v57h-69v136h71q13 126 97.5 196t212.5 70q84 0 182 -31l53 -16l-23 -182l-51 14q-69 26 -131 26q-41 0 -67.5 -20t-32.5 -57h172v-136h-178v-57h178v-133h-172q4 -41 31 -63.5t69 -22.5q54 0 131 29l51 14l23 -182l-53 -19q-89 -28 -182 -28 q-129 0 -214.5 71.5t-95.5 200.5h-71z" />
<glyph horiz-adv-x="503" d="M31 946v170h440v-170h-440z" />
<glyph horiz-adv-x="667" d="M45 926v168h188v213h195v-213h197v-168h-197v-211h-195v211h-188z" />
<glyph horiz-adv-x="667" d="M43 926v168h582v-168h-582z" />
<glyph horiz-adv-x="667" d="M45 825v160h580v-160h-580zM45 1042v160h580v-160h-580z" />
<glyph horiz-adv-x="466" d="M45 1063q0 83 12 150.5t32 114.5t49.5 83t61.5 57t71 34t74 17.5t75 4.5v-164q-139 -11 -139 -297q0 -80 10 -139t24 -89.5t35.5 -49t36 -23t33.5 -6.5v-166q-52 0 -98.5 10t-99 41t-90 81t-62.5 137.5t-25 203.5z" />
<glyph horiz-adv-x="466" d="M47 590v166q19 2 33.5 6.5t36 23t35.5 49t24 89.5t10 139q0 286 -139 297v164q46 0 86.5 -7t85 -24t79.5 -51t64 -83t44.5 -124.5t15.5 -171.5q0 -116 -25 -203.5t-62.5 -137.5t-90 -81t-99 -41t-98.5 -10z" />
<glyph horiz-adv-x="315" d="M20 647l50 230h233l-76 -269q-19 -71 -108 -71q-61 0 -86.5 31t-12.5 79z" />
<glyph horiz-adv-x="315" d="M31 778q0 52 34 83.5t93 31.5t93 -31.5t34 -83.5q0 -53 -33.5 -83.5t-93.5 -30.5t-93.5 30.5t-33.5 83.5z" />
<glyph horiz-adv-x="667" d="M35 944v305q0 137 77.5 211t219.5 74q146 0 223.5 -73t77.5 -210v-305q0 -135 -76.5 -207.5t-220.5 -72.5q-146 0 -223.5 71.5t-77.5 206.5zM279 1053l98 262q-13 22 -43 22q-55 0 -55 -75v-209zM299 870q13 -10 35 -10q30 0 42.5 19t12.5 59v174z" />
<glyph horiz-adv-x="667" d="M53 1192q0 125 57.5 205t157.5 104v154h183v-150q53 -6 98 -20l53 -19l-24 -180l-50 14q-71 27 -131 27q-106 0 -106 -135q0 -137 106 -137q55 0 133 28l48 17l24 -185l-53 -18q-43 -13 -98 -23v-149h-183v156q-101 25 -158 105t-57 206z" />
<glyph horiz-adv-x="667" d="M29 1452q0 115 57.5 183t159.5 87v144h180v-142q61 -3 141 -24l76 -21l-35 -223l-76 25q-97 32 -196 32q-28 0 -42.5 -13t-14.5 -34q0 -40 49 -49l96 -22q221 -55 221 -248q0 -115 -58.5 -184.5t-160.5 -88.5v-145h-180v143q-78 7 -137 25l-78 21l39 223l73 -25 q98 -33 199 -33q25 0 40 13.5t15 36.5q0 36 -49 49l-94 22q-225 52 -225 248z" />
<glyph horiz-adv-x="667" d="M25 1141v133h69v57h-69v135h71q13 126 98 196.5t212 70.5q84 0 182 -31l53 -16l-23 -183l-51 15q-69 26 -131 26q-41 0 -67.5 -20t-32.5 -58h172v-135h-178v-57h178v-133h-172q4 -41 31 -63.5t69 -22.5q57 0 131 28l51 15l23 -183l-53 -18q-92 -29 -182 -29 q-129 0 -214.5 72t-95.5 201h-71z" />
<glyph horiz-adv-x="503" d="M31 1147v170h440v-170h-440z" />
<glyph horiz-adv-x="315" d="M20 848l50 229h233l-76 -268q-19 -72 -108 -72q-61 0 -86.5 31.5t-12.5 79.5z" />
<glyph horiz-adv-x="315" d="M31 979q0 52 34 83.5t93 31.5t93 -31.5t34 -83.5q0 -53 -33.5 -84t-93.5 -31t-93.5 31t-33.5 84z" />
<glyph horiz-adv-x="667" d="M35 1145v305q0 137 77.5 211t219.5 74q146 0 223.5 -73t77.5 -210v-305q0 -135 -76.5 -208t-220.5 -73q-146 0 -223.5 72t-77.5 207zM279 1260l98 258q-17 20 -43 20q-55 0 -55 -76v-202zM297 1073q15 -12 37 -12q30 0 42.5 19t12.5 59v180z" />
<glyph horiz-adv-x="1112" d="M301 1681q0 28 9.5 50t41.5 47l131 96h494l-375 -236q-84 -53 -170 -53q-65 0 -98 28t-33 68z" />
<glyph horiz-adv-x="1087" d="M158 1874h340q0 -49 19.5 -78t53.5 -29q36 0 56 28.5t20 78.5h338q0 -130 -118 -209.5t-296 -79.5q-180 0 -296.5 79.5t-116.5 209.5z" />
<glyph horiz-adv-x="1087" d="M129 1872h383l66 -88l59 88h383l-232 -221q-69 -66 -210 -66t-213 66z" />
<glyph horiz-adv-x="1087" d="M133 1595l232 222q78 67 210 67q137 0 213 -67l236 -222h-381l-68 86l-59 -86h-383z" />
<glyph horiz-adv-x="1177" d="M166 1747q0 76 53.5 120t147.5 44q93 0 145.5 -44t52.5 -120q0 -75 -52.5 -118.5t-145.5 -43.5q-95 0 -148 43.5t-53 118.5zM610 1747q0 76 53.5 120t147.5 44q93 0 146 -44t53 -120q0 -75 -53 -118.5t-146 -43.5q-95 0 -148 43.5t-53 118.5z" />
<glyph horiz-adv-x="1087" d="M324 1751q0 76 59 121t162 45q102 0 160.5 -45t58.5 -121q0 -77 -58.5 -121.5t-160.5 -44.5q-104 0 -162.5 44.5t-58.5 121.5z" />
<glyph horiz-adv-x="1112" d="M186 1874h494l131 -96q53 -42 53 -97q0 -40 -33.5 -68t-97.5 -28q-97 0 -172 53z" />
<glyph horiz-adv-x="1087" d="M125 1681q0 47 35 80l125 113h379l-248 -227q-65 -62 -166 -62q-59 0 -92 27t-33 69zM586 1681q0 48 37 80l118 113h381l-241 -227q-68 -62 -168 -62q-59 0 -93 27.5t-34 68.5z" />
<glyph horiz-adv-x="1087" d="M143 1593v238h795v-238h-795z" />
<glyph horiz-adv-x="1087" d="M287 1808q0 101 76.5 161.5t205.5 60.5q128 0 206.5 -60.5t78.5 -161.5q0 -97 -80 -160t-205 -63t-203.5 63t-78.5 160zM475 1808q0 -33 26 -54t68 -21q43 0 70 21.5t27 53.5q0 31 -27 52.5t-70 21.5q-42 0 -68 -21.5t-26 -52.5z" />
<glyph horiz-adv-x="1087" d="M92 1683q101 211 309 211q97 0 174 -45l48 -26q43 -19 75 -19q62 0 109 92l184 -98q-101 -213 -309 -213q-97 0 -174 45l-49 27q-32 20 -74 20q-63 0 -111 -92z" />
<glyph horiz-adv-x="1110" d="M258 1325q0 71 57 121l138 117h524l-399 -291q-86 -66 -181 -66q-67 0 -103 35t-36 84z" />
<glyph horiz-adv-x="1087" d="M82 1563h360q0 -107 76 -107q40 0 60 24.5t20 82.5h358q0 -160 -123 -249t-315 -89t-314 89t-122 249z" />
<glyph horiz-adv-x="1087" d="M106 1567h404l70 -99l63 99h404l-246 -256q-71 -78 -221 -78q-151 0 -224 78z" />
<glyph horiz-adv-x="1087" d="M287 -360l47 147q98 -49 178 -49q39 0 39 29q0 25 -38 33.5t-122 2.5l-26 41l84 156h151l-37 -72q83 0 134 -39t51 -118q0 -88 -61.5 -135.5t-176.5 -47.5q-105 0 -223 52z" />
<glyph horiz-adv-x="1087" d="M111 1243l243 250q80 76 221 76q145 0 224 -76l252 -250h-404l-72 92l-63 -92h-401z" />
<glyph horiz-adv-x="1085" d="M334 -248l45 172h393l-76 -243q-20 -65 -62.5 -98.5t-125.5 -33.5q-105 0 -150 58t-24 145z" />
<glyph horiz-adv-x="1171" d="M141 1409q0 82 56 128t157 46q98 0 153.5 -46t55.5 -128q0 -83 -55.5 -129.5t-153.5 -46.5q-101 0 -157 46.5t-56 129.5zM612 1409q0 82 55.5 128t155.5 46q98 0 154.5 -46t56.5 -128q0 -83 -56 -129.5t-155 -46.5q-100 0 -155.5 46.5t-55.5 129.5z" />
<glyph horiz-adv-x="1087" d="M311 1409q0 82 62 128t172 46q107 0 168 -46t61 -128q0 -83 -60.5 -129.5t-168.5 -46.5q-110 0 -172 46.5t-62 129.5z" />
<glyph horiz-adv-x="1110" d="M168 1563h524l137 -121q58 -53 58 -121q0 -49 -36 -84t-103 -35q-95 0 -181 66z" />
<glyph horiz-adv-x="1087" d="M37 1329q0 59 37 101l133 133h399l-260 -277q-72 -78 -178 -78q-61 0 -96 34.5t-35 86.5zM524 1329q0 60 41 103l123 131h406l-260 -277q-70 -76 -177 -76q-62 0 -97.5 33.5t-35.5 85.5z" />
<glyph horiz-adv-x="1087" d="M121 1233v293h837v-293h-837z" />
<glyph horiz-adv-x="1087" d="M272 -180q0 60 34 108t83 72l180 23l11 -23q-84 -51 -84 -111q0 -53 65 -53q95 0 205 49l45 -180q-138 -55 -285 -55q-113 0 -183.5 42.5t-70.5 127.5z" />
<glyph horiz-adv-x="1087" d="M272 1497q0 122 85.5 196t211.5 74q125 0 212 -74t87 -196q0 -120 -88.5 -196t-210.5 -76t-209.5 76t-87.5 196zM473 1497q0 -39 27.5 -62.5t68.5 -23.5t70 23.5t29 62.5q0 37 -28.5 60.5t-70.5 23.5t-69 -23t-27 -61z" />
<glyph horiz-adv-x="1087" d="M70 1317q104 268 333 268q97 0 183 -59l43 -29q39 -27 80 -27q34 0 60.5 27.5t53.5 87.5l185 -102q-105 -269 -332 -269q-102 0 -182 60l-43 29q-40 28 -80 28q-68 0 -115 -112z" />
<glyph horiz-adv-x="1310" d="M29 0l333 1001q29 90 108.5 137.5t199.5 47.5q118 0 196.5 -46.5t106.5 -135.5l309 -1004h-457l-34 156h-265l-39 -156h-458zM604 467h109l-51 254z" />
<glyph horiz-adv-x="1243" d="M88 182v805q0 87 52.5 135.5t152.5 48.5h440q408 0 408 -327q0 -59 -25 -120.5t-67 -107.5l-13 -14l8 -6q130 -112 130 -262q0 -334 -439 -334h-442q-100 0 -152.5 48t-52.5 134zM535 297h129q33 0 51 17t18 42q0 34 -20 54l-33 36h-145v-149zM535 731h137l22 31 q19 22 19 57q0 25 -16.5 42.5t-47.5 17.5h-114v-148z" />
<glyph horiz-adv-x="1214" d="M68 588q0 190 78 325.5t213.5 202t316.5 66.5q175 0 356 -54l113 -32l-49 -344l-123 39q-100 32 -238 32q-198 0 -198 -235q0 -238 198 -238q119 0 240 39l121 37l49 -348l-115 -35q-167 -53 -358 -53q-276 0 -440 155.5t-164 442.5z" />
<glyph horiz-adv-x="1290" d="M88 182v805q0 88 51.5 136t149.5 48h317q287 0 452 -155t165 -432q0 -276 -167 -430t-452 -154h-315q-98 0 -149.5 48t-51.5 134zM541 328h57q86 0 131 64t45 192q0 127 -47 195.5t-135 68.5h-51v-520z" />
<glyph horiz-adv-x="1128" d="M88 182v805q0 88 51.5 136t149.5 48h758v-313h-504v-108h438v-306h-438v-129h508v-315h-762q-98 0 -149.5 48t-51.5 134z" />
<glyph horiz-adv-x="1101" d="M88 0v987q0 88 51.5 136t149.5 48h743v-319h-487v-139h442v-305h-442v-408h-457z" />
<glyph horiz-adv-x="1290" d="M68 588q0 281 169 437.5t455 156.5q200 0 377 -54l121 -34l-53 -349l-127 39q-140 39 -267 39q-112 0 -170.5 -63t-58.5 -182q0 -137 54.5 -205t170.5 -68q14 0 36 1l18 -1v92h-185v295h400q98 0 151 -48.5t53 -133.5v-270q0 -63 -18 -95q-39 -79 -192.5 -117t-319.5 -38 q-286 0 -450 157t-164 441z" />
<glyph horiz-adv-x="1271" d="M88 0v1171h457v-419h180v419h459v-1171h-459v436h-180v-436h-457z" />
<glyph horiz-adv-x="626" d="M88 0v1171h461v-1171h-461z" />
<glyph horiz-adv-x="950" d="M61 57l52 324q134 -41 188 -41q56 0 81.5 21.5t25.5 70.5v739h454v-772q0 -194 -122 -296.5t-339 -102.5q-162 0 -340 57z" />
<glyph horiz-adv-x="1296" d="M88 0v1171h449v-321l227 321h504l-330 -417q33 -82 95.5 -235.5t113.5 -281.5t94 -237h-481l-148 403l-20 -24q-30 -37 -42.5 -68t-12.5 -84v-227h-449z" />
<glyph horiz-adv-x="1085" d="M88 182v989h459v-823h469v-348h-727q-98 0 -149.5 48t-51.5 134z" />
<glyph horiz-adv-x="1574" d="M88 0v930q0 121 82.5 186.5t232.5 65.5q153 0 230.5 -57t105.5 -167l54 -274l57 274q26 109 106.5 166.5t233.5 57.5q143 0 221 -64t78 -182v-936h-399v543l-97 -406q-42 -147 -213 -147q-176 0 -217 147l-92 404v-541h-383z" />
<glyph horiz-adv-x="1400" d="M68 586q0 279 172 436.5t462 157.5q293 0 462 -156t169 -438q0 -284 -171.5 -440t-465.5 -156q-291 0 -459.5 156.5t-168.5 439.5zM526 586q0 -139 45 -213t131 -74q172 0 172 287q0 137 -45 212.5t-133 75.5q-85 0 -127.5 -75t-42.5 -213z" />
<glyph horiz-adv-x="1191" d="M88 0v987q0 88 51.5 136t149.5 48h391q208 0 326 -109t118 -296q0 -189 -125 -299.5t-340 -110.5h-122v-356h-449zM537 670h79q42 0 67.5 25t25.5 71q0 45 -25.5 69.5t-67.5 24.5h-79v-190z" />
<glyph horiz-adv-x="1398" d="M68 584q0 279 172.5 437.5t459.5 158.5q292 0 461.5 -154.5t169.5 -433.5q0 -139 -55.5 -245t-140.5 -169q58 -12 120 -12h68v-305h-104q-63 0 -122.5 12.5t-94.5 26.5t-87 39q-46 22 -68 31t-63.5 19.5t-81.5 10.5q-138 0 -252.5 36.5t-200 107t-133.5 183t-48 257.5z M526 586q0 -139 45 -214t131 -75q85 0 128.5 74t43.5 215q0 137 -45 212.5t-133 75.5q-85 0 -127.5 -75t-42.5 -213z" />
<glyph horiz-adv-x="1261" d="M88 0v987q0 88 51.5 136t149.5 48h450q205 0 321 -98t116 -272q0 -77 -33 -149.5t-88 -125.5l-35 -34l213 -492h-473l-146 371h-71v-371h-455zM543 674h133l31 33q32 36 32 81q0 37 -22.5 56.5t-63.5 19.5h-110v-190z" />
<glyph horiz-adv-x="1165" d="M68 80l65 356l143 -49q184 -63 322 -63q70 0 70 41q0 33 -60 47l-186 32q-175 31 -262.5 117t-87.5 238q0 191 131.5 286t363.5 95q228 0 394 -50l137 -43l-68 -360l-141 51q-191 66 -322 66q-36 0 -50.5 -10t-14.5 -31q0 -37 59 -49l180 -31q178 -32 265.5 -115 t87.5 -235q0 -129 -63.5 -217t-172.5 -129t-258 -41q-233 0 -391 49z" />
<glyph horiz-adv-x="1202" d="M72 846v325h1058v-325h-299v-846h-458v846h-301z" />
<glyph horiz-adv-x="1294" d="M88 449v722h457v-720q0 -113 102 -113q51 0 74.5 28t23.5 85v720h461v-722q0 -224 -144 -348t-419 -124q-269 0 -412 123.5t-143 348.5z" />
<glyph horiz-adv-x="1290" d="M29 1171h460l152 -688l162 688h457l-326 -1005q-59 -176 -301 -176q-241 0 -297 176z" />
<glyph horiz-adv-x="1718" d="M39 1171h432l70 -624l114 491q13 60 72 96.5t141 36.5q84 0 138 -34t69 -99l109 -489l71 622h424l-200 -995q-36 -192 -269 -192q-237 0 -280 180l-72 307l-74 -307q-46 -180 -278 -180q-233 0 -273 192z" />
<glyph horiz-adv-x="1333" d="M27 0l364 590l-354 581h502l131 -276l123 276h495l-342 -571l363 -600h-502l-141 301l-144 -301h-495z" />
<glyph horiz-adv-x="1366" d="M31 1171h499l158 -331l150 331h497l-424 -712v-459h-456v459z" />
<glyph horiz-adv-x="1202" d="M68 186q0 89 67 166l418 502h-444v317h831q97 0 146 -50t49 -136q0 -83 -66 -166l-416 -500h465v-319h-858q-94 0 -143 50.5t-49 135.5z" />
<glyph horiz-adv-x="1370" d="M90 330q0 193 178 293q-80 96 -80 227q0 157 105.5 244.5t286.5 87.5t285 -79t104 -224q0 -63 -16.5 -115.5t-48 -90.5t-66 -65t-80.5 -51l129 -129q61 91 61 197v112h320v-114q0 -248 -160 -418l203 -205h-447l-30 31q-139 -47 -297 -47q-218 0 -332.5 95t-114.5 251z M467 338q0 -39 27 -64.5t69 -25.5q38 0 58 4l-138 143q-16 -26 -16 -57zM524 850q0 -45 41 -96q68 45 68 104q0 29 -12 46.5t-35 17.5q-29 0 -45.5 -19t-16.5 -53z" />
<glyph horiz-adv-x="1490" d="M96 547q0 135 53 254.5t144 204.5t218 134.5t269 49.5q280 0 447.5 -140t167.5 -378q0 -93 -32 -173t-84.5 -132.5t-121 -82.5t-141.5 -30q-37 0 -81.5 9t-68.5 9q-26 0 -84.5 -11t-107.5 -11q-149 0 -222 72.5t-73 205.5q0 91 41.5 170t127.5 130t200 51q48 0 75 -7 l4 35h230l-72 -491q13 -8 37 -8q66 0 107.5 62t41.5 175q0 169 -93 257.5t-298 88.5q-206 0 -330 -125t-124 -319q0 -177 94 -275t278 -98q59 0 178.5 28.5t182.5 28.5q65 0 119 -28l112 -62l-78 -170l-114 49q-33 11 -56 11q-37 0 -86.5 -14t-117 -28t-148.5 -14 q-185 0 -321 75.5t-204.5 204t-68.5 292.5zM627 524q0 -51 16 -76.5t53 -25.5q30 0 62 8l41 272h-6q-28 5 -48 5q-58 0 -88 -52t-30 -131z" />
<glyph horiz-adv-x="1067" d="M92 379v409q0 191 112 293.5t324 102.5q216 0 330.5 -101t114.5 -290v-410q0 -191 -112 -294t-324 -103q-216 0 -330.5 101t-114.5 292zM475 369q0 -84 57 -84q60 0 60 84v436q0 80 -60 80q-57 0 -57 -80v-436z" />
<glyph horiz-adv-x="1067" d="M80 0v287h287v587h-11q-33 0 -88.5 -16.5t-95.5 -44.5l-53 289q150 69 323 69h111q99 0 154 -48.5t55 -135.5v-700h229v-287h-911z" />
<glyph horiz-adv-x="1067" d="M72 164q0 94 59 143l307 266q72 62 102.5 106t30.5 103q0 45 -31 71t-91 26q-104 0 -222 -43l-98 -33l-49 297l104 33q149 49 324 49q215 0 336 -95.5t121 -285.5q0 -107 -51.5 -203.5t-172.5 -198.5l-137 -116h359v-283h-721q-86 0 -128 44t-42 120z" />
<glyph horiz-adv-x="1067" d="M57 74l52 295l110 -37q132 -47 254 -47q62 0 93.5 20.5t31.5 56.5q0 34 -27 70l-16 21h-252v270h240l20 22q21 28 21 56q0 78 -121 78q-104 0 -227 -43l-103 -33l-43 297l100 33q149 49 326 49q107 0 187 -17t140.5 -55.5t92 -104.5t31.5 -159q0 -144 -95 -236l-12 -12 l12 -10q113 -99 113 -246q0 -177 -124.5 -264.5t-354.5 -87.5q-173 0 -338 51z" />
<glyph horiz-adv-x="1067" d="M49 328q0 56 45 139l348 588q78 129 242 129q231 0 231 -199v-536h97v-283h-97v-166h-358v166h-342q-80 0 -123 45t-43 117zM444 449h113v184z" />
<glyph horiz-adv-x="1067" d="M82 74l49 288l109 -30q164 -47 245 -47q121 0 121 114q0 117 -121 117q-21 0 -44.5 -2.5t-52 -8.5t-45 -10t-52 -13t-43.5 -11l-109 -29v729h813v-301h-493v-86q75 13 135 13q399 0 399 -396q0 -207 -122.5 -309t-352.5 -102q-182 0 -330 49z" />
<glyph horiz-adv-x="1067" d="M82 395v398q0 185 127 286t338 101q174 0 317 -47l107 -33l-58 -297l-100 33q-118 43 -227 43q-60 0 -87.5 -18t-27.5 -56v-21q58 13 129 13q200 0 297.5 -95t97.5 -288q0 -191 -121 -306.5t-339 -115.5q-216 0 -334.5 106.5t-118.5 296.5zM471 399q0 -57 15.5 -83.5 t52.5 -26.5q65 0 65 102q0 57 -17 86t-61 29q-23 0 -55 -8v-99z" />
<glyph horiz-adv-x="1067" d="M86 870v301h721q182 0 182 -172q0 -61 -39 -157l-354 -842h-426l389 870h-473z" />
<glyph horiz-adv-x="1067" d="M74 340q0 70 27 127.5t83 118.5l11 12l-13 14q-82 106 -82 232q0 165 118 252.5t317 87.5q198 0 316 -88t118 -252q0 -139 -84 -232l-13 -14l13 -12q58 -57 83 -114t25 -132q0 -172 -120 -261t-336 -89q-217 0 -340 89.5t-123 260.5zM449 350q0 -34 23 -57t63 -23 q38 0 62 23t24 57q0 35 -31 78l-17 21h-79l-15 -19q-30 -41 -30 -80zM457 813q0 -37 30 -76l11 -14h69l13 14q30 43 30 76q0 37 -20 58.5t-55 21.5t-56.5 -22.5t-21.5 -57.5z" />
<glyph horiz-adv-x="1067" d="M72 760q0 191 121.5 305.5t341.5 114.5q215 0 330.5 -106t115.5 -298v-395q0 -185 -125.5 -288t-341.5 -103q-158 0 -313 51h2l-105 33l54 295l100 -31q143 -46 227 -43q62 0 90.5 18t28.5 58v16q-100 -10 -133 -10q-393 0 -393 383zM461 782q0 -56 18 -84t62 -28 q25 0 57 8v94q0 59 -16 86t-52 27q-69 0 -69 -103z" />
<glyph horiz-adv-x="1067" d="M80 57l57 342l125 -39q150 -43 275 -43q59 0 59 45q0 34 -57 46l-131 32q-151 36 -239.5 123.5t-88.5 227.5q0 158 78.5 253t226.5 123v215h293v-211q68 -2 182 -30l123 -33l-55 -338l-123 37q-160 45 -273 45q-31 0 -46 -13t-15 -32q0 -39 55 -53l129 -27 q328 -67 328 -344q0 -161 -80 -258t-225 -125v-219h-293v215q-56 4 -182 31z" />
<glyph horiz-adv-x="1067" d="M78 352v209h96v60h-96v206h104q20 169 140.5 264t300.5 95q142 0 274 -39l90 -27l-37 -286l-92 26q-112 35 -196 35q-53 0 -77 -20t-24 -48h236v-206h-246v-60h246v-209h-238q0 -32 29 -52.5t84 -20.5q78 0 186 34l92 27l37 -285l-90 -26q-139 -41 -274 -41 q-184 0 -304 95t-137 269h-104z" />
<glyph horiz-adv-x="577" d="M57 176q0 90 62 143.5t170 53.5t168.5 -53.5t60.5 -143.5t-60.5 -143t-168.5 -53t-170 53t-62 143zM76 420v751h424v-677z" />
<glyph horiz-adv-x="577" d="M57 993q0 90 61.5 143.5t168.5 53.5q109 0 170 -53.5t61 -143.5t-61 -143t-170 -53q-107 0 -168.5 53t-61.5 143zM78 0v676l424 74v-750h-424z" />
<glyph horiz-adv-x="983" d="M59 1108l95 27q154 43 368 43q194 0 300 -81.5t106 -211.5q0 -107 -43.5 -180t-139.5 -125l-81 -45v-78l-412 -60v90q0 141 102 195l62 29q54 26 70 48.5t16 59.5q0 60 -96 60q-108 0 -218 -35l-82 -27zM227 166q0 91 61 140.5t171 49.5q109 0 169 -49.5t60 -140.5 q0 -88 -60 -137t-169 -49q-110 0 -171 49t-61 137z" />
<glyph horiz-adv-x="983" d="M57 285q0 194 185 295l80 43v77l411 60v-90q0 -143 -102 -195l-60 -29q-54 -26 -71 -49t-17 -59q0 -59 99 -59q108 0 215 34l82 27l49 -291l-97 -26q-154 -43 -368 -43q-188 0 -297 79t-109 226zM297 991q0 88 61 137.5t168 49.5q110 0 172 -49.5t62 -137.5 q0 -90 -61.5 -140t-172.5 -50q-108 0 -168.5 50t-60.5 140z" />
<glyph horiz-adv-x="757" d="M92 418v235q164 0 164 64q0 28 -20 61t-40 75.5t-20 92.5q0 107 78 166t231 59h179v-256h-93q-65 0 -65 -53q0 -26 37 -91.5t37 -111.5q0 -44 -23 -77t-55 -50q32 -16 55 -46.5t23 -73.5q0 -47 -37 -114.5t-37 -94.5q0 -47 65 -47h93v-260h-179q-153 0 -231 60.5 t-78 168.5q0 50 20 92t40 74.5t20 60.5t-38 47t-126 19z" />
<glyph horiz-adv-x="757" d="M94 -104v260h92q66 0 66 47q0 27 -37 94.5t-37 114.5q0 43 23 73.5t55 46.5q-32 17 -55 50t-23 77q0 46 37 111.5t37 91.5q0 53 -66 53h-92v256h178q154 0 232 -59t78 -166q0 -50 -20 -92.5t-40 -75.5t-20 -61q0 -64 164 -64v-235q-164 0 -164 -66q0 -28 20 -60.5 t40 -74.5t20 -92q0 -108 -78.5 -168.5t-231.5 -60.5h-178z" />
<glyph horiz-adv-x="737" d="M133 -100v1271h522v-256h-184v-757h184v-258h-522z" />
<glyph horiz-adv-x="737" d="M82 -100v258h186v757h-186v256h522v-1271h-522z" />
<glyph horiz-adv-x="755" d="M92 537q0 115 18.5 208.5t49 158.5t75.5 113.5t93 77.5t107.5 46.5t112.5 23.5t114 6v-253q-28 -3 -49 -9.5t-51.5 -30.5t-50 -62t-34 -110t-14.5 -169q0 -101 14.5 -176t34.5 -114.5t49.5 -63.5t51.5 -30.5t49 -7.5v-258q-55 0 -106 6.5t-110 25t-108 48.5t-95.5 80.5 t-79 116.5t-52 161.5t-19.5 211.5z" />
<glyph horiz-adv-x="755" d="M94 -113v258q27 1 49 7.5t51.5 30.5t49.5 63.5t34.5 114.5t14.5 176q0 97 -14.5 169t-34 110t-50 62t-51.5 30.5t-49 9.5v253q61 0 113.5 -6t112 -23.5t107.5 -46t93.5 -77.5t76 -114t49 -158.5t18.5 -208.5q0 -116 -19.5 -211.5t-52 -161.5t-79.5 -116.5t-96.5 -80.5 t-108 -48.5t-109 -25t-105.5 -6.5z" />
<glyph horiz-adv-x="802" d="M37 573q0 80 57 142l246 268h444l-372 -410l372 -409h-444l-246 262q-57 65 -57 147z" />
<glyph horiz-adv-x="1236" d="M37 573q0 82 57 142l238 268h399l-375 -410l375 -409h-399l-238 262q-57 62 -57 147zM516 573q0 80 59 142l246 268h400l-383 -410l383 -409h-400l-246 262q-59 64 -59 147z" />
<glyph horiz-adv-x="1236" d="M16 164l383 409l-383 410h400l246 -268q59 -62 59 -142q0 -83 -59 -147l-246 -262h-400zM506 164l375 409l-375 410h399l238 -268q57 -62 57 -142q0 -82 -57 -147l-238 -262h-399z" />
<glyph horiz-adv-x="802" d="M16 164l375 409l-375 410h445l248 -268q57 -62 57 -142q0 -82 -57 -147l-248 -262h-445z" />
<glyph horiz-adv-x="911" d="M57 426v315h797v-315h-797z" />
<glyph horiz-adv-x="577" d="M37 -51l84 420h432l-133 -492q-38 -131 -203 -131q-112 0 -157.5 58t-22.5 145z" />
<glyph horiz-adv-x="577" d="M57 188q0 95 62 151t170 56t168.5 -56t60.5 -151q0 -96 -60.5 -152t-168.5 -56t-170 56t-62 152z" />
<glyph horiz-adv-x="577" d="M33 -51l76 420h430l-123 -492q-15 -62 -67 -96.5t-136 -34.5q-111 0 -155.5 57.5t-24.5 145.5zM59 786q0 95 62 151t170 56t168.5 -56t60.5 -151q0 -96 -60.5 -152t-168.5 -56t-170 56t-62 152z" />
<glyph horiz-adv-x="577" d="M57 188q0 95 62 151t170 56t168.5 -56t60.5 -151q0 -96 -60.5 -152t-168.5 -56t-170 56t-62 152zM57 786q0 95 62 151t170 56t168.5 -56t60.5 -151q0 -96 -60.5 -152t-168.5 -56t-170 56t-62 152z" />
<glyph horiz-adv-x="577" d="M29 631l133 493q33 131 200 131q113 0 157 -56.5t26 -145.5l-86 -422h-430z" />
<glyph horiz-adv-x="983" d="M29 625l131 499q38 131 184 131q98 0 136 -57t18 -147l-86 -426h-383zM477 625l129 499q41 131 187 131q98 0 135.5 -57t17.5 -147l-88 -426h-381z" />
<glyph horiz-adv-x="577" d="M33 821l84 420h432l-133 -491q-15 -62 -67 -97t-136 -35q-111 0 -155.5 57t-24.5 146z" />
<glyph horiz-adv-x="983" d="M33 817l86 424h383l-131 -498q-38 -131 -185 -131q-98 0 -135.5 57.5t-17.5 147.5zM479 817l88 424h383l-131 -498q-38 -131 -184 -131q-98 0 -136 57.5t-20 147.5z" />
<glyph horiz-adv-x="577" d="M33 -51l84 420h432l-133 -492q-15 -62 -67 -96.5t-136 -34.5q-111 0 -155.5 57.5t-24.5 145.5z" />
<glyph horiz-adv-x="983" d="M29 -55l86 424h383l-131 -498q-38 -131 -185 -131q-98 0 -135.5 58t-17.5 147zM475 -55l88 424h383l-131 -498q-38 -131 -184 -131q-98 0 -136 58t-20 147z" />
<glyph horiz-adv-x="577" d="M74 1235h430l-35 -602h-358z" />
<glyph horiz-adv-x="972" d="M74 1235h385l-33 -602h-315zM512 1235h385l-33 -602h-315z" />
<glyph horiz-adv-x="1329" d="M88 0v930q0 121 82.5 186.5t235.5 65.5q60 0 106 -11.5t77.5 -29.5t58 -50.5t43 -63.5t36.5 -79l123 -311v534h393v-927q0 -122 -83 -188t-234 -66q-73 0 -126 16t-90 49.5t-60 71t-48 96.5l-123 312v-535h-391z" />
<glyph horiz-adv-x="1863" d="M29 0l424 1006q38 89 110.5 127t194.5 38h1024v-313h-504v-108h438v-306h-438v-129h506v-315h-799q-89 0 -127.5 35t-38.5 119v2h-274l-56 -156h-460zM649 467h174v389h-39z" />
<glyph horiz-adv-x="1798" d="M80 584q0 277 163 432t449 155h1024v-313h-504v-108h439v-306h-439v-129h508v-315h-1024q-285 0 -450.5 153.5t-165.5 430.5zM526 584q0 -127 45.5 -191.5t128.5 -64.5h60v520h-49q-89 0 -137 -68.5t-48 -195.5z" />
<glyph horiz-adv-x="1400" d="M68 586q0 279 172 436.5t462 157.5q64 0 156 -15l39 80h277l-84 -166q243 -153 243 -493q0 -284 -171.5 -440t-465.5 -156q-70 0 -145 10l-41 -80h-277l82 166q-247 153 -247 500zM526 586q0 -28 4 -74l181 360q-3 0 -8 1t-7 1q-85 0 -127.5 -75t-42.5 -213zM700 299h2 q172 0 172 287q0 9 -1 28t-1 27z" />
<glyph horiz-adv-x="1204" d="M88 0v1171h449v-165h137q211 0 330.5 -108.5t119.5 -295.5q0 -188 -123.5 -296.5t-341.5 -108.5h-122v-197h-449zM537 510h79q42 0 67.5 24.5t25.5 67.5q0 42 -25.5 66t-67.5 24h-79v-182z" />
<glyph horiz-adv-x="1325" d="M41 481v217h80v289q0 88 51.5 136t149.5 48h321q286 0 449 -155t163 -432t-165.5 -430.5t-450.5 -153.5h-317q-98 0 -149.5 48t-51.5 134v299h-80zM575 328h58q84 0 129 64.5t45 191.5t-47 195.5t-135 68.5h-50v-150h146v-217h-146v-153z" />
<glyph horiz-adv-x="1079" d="M57 575q0 228 101 384t276 202v221h295v-213q74 -10 193 -49l98 -30l-45 -336l-88 28q-164 47 -238 45q-85 0 -119 -62.5t-34 -189.5q0 -126 33.5 -185.5t119.5 -59.5q91 0 238 47l88 29l45 -334l-98 -31q-98 -32 -193 -45v-215h-295v221q-177 46 -277 195.5t-100 377.5z " />
<glyph horiz-adv-x="1220" d="M80 416v311h344v385h360v-385h357v-311h-357v-383h-360v383h-344z" />
<glyph horiz-adv-x="1220" d="M78 408v311h1063v-311h-1063z" />
<glyph horiz-adv-x="1220" d="M80 219v295h1061v-295h-1061zM80 618v295h1061v-295h-1061z" />
<glyph horiz-adv-x="1310" d="M29 0l333 1001q29 90 108.5 137.5t199.5 47.5q118 0 196.5 -46.5t106.5 -135.5l309 -1004h-457l-34 156h-265l-39 -156h-458zM252 1563h524l137 -121q58 -53 58 -121q0 -49 -36.5 -84t-103.5 -35q-56 0 -96.5 16.5t-83.5 49.5zM604 467h109l-51 254z" />
<glyph horiz-adv-x="1310" d="M29 0l333 1001q29 90 108.5 137.5t199.5 47.5q118 0 196.5 -46.5t106.5 -135.5l309 -1004h-457l-34 156h-265l-39 -156h-458zM344 1325q0 71 57 121l138 117h524l-399 -291q-86 -66 -181 -66q-67 0 -103 35t-36 84zM604 467h109l-51 254z" />
<glyph horiz-adv-x="1310" d="M29 0l333 1001q29 90 108.5 137.5t199.5 47.5q118 0 196.5 -46.5t106.5 -135.5l309 -1004h-457l-34 156h-265l-39 -156h-458zM203 1243l243 250q80 76 222 76q144 0 223 -76l252 -250h-404l-71 92l-64 -92h-401zM604 467h109l-51 254z" />
<glyph horiz-adv-x="1310" d="M29 0l333 1001q29 90 108.5 137.5t199.5 47.5q118 0 196.5 -46.5t106.5 -135.5l309 -1004h-457l-34 156h-265l-39 -156h-458zM207 1317q104 268 334 268q96 0 182 -59l43 -29q39 -27 80 -27q34 0 61 27.5t54 87.5l184 -102q-105 -269 -332 -269q-102 0 -182 60l-43 29 q-40 28 -80 28q-68 0 -115 -112zM604 467h109l-51 254z" />
<glyph horiz-adv-x="1310" d="M29 0l333 1001q29 90 108.5 137.5t199.5 47.5q118 0 196.5 -46.5t106.5 -135.5l309 -1004h-457l-34 156h-265l-39 -156h-458zM215 1409q0 82 56 128t157 46q98 0 153.5 -46t55.5 -128q0 -83 -55.5 -129.5t-153.5 -46.5q-101 0 -157 46.5t-56 129.5zM604 467h109l-51 254z M686 1409q0 82 55.5 128t155.5 46q98 0 154.5 -46t56.5 -128q0 -83 -56 -129.5t-155 -46.5q-100 0 -155.5 46.5t-55.5 129.5z" />
<glyph horiz-adv-x="1310" d="M29 0l333 1001q29 90 108.5 137.5t199.5 47.5q118 0 196.5 -46.5t106.5 -135.5l309 -1004h-457l-34 156h-265l-39 -156h-458zM369 1497q0 122 85.5 196t211.5 74q125 0 212 -74t87 -196q0 -120 -88.5 -196t-210.5 -76t-209.5 76t-87.5 196zM569 1497q0 -39 28 -62.5 t69 -23.5t69.5 23.5t28.5 62.5q0 38 -28 61t-70 23t-69.5 -23t-27.5 -61zM604 467h109l-51 254z" />
<glyph horiz-adv-x="1310" d="M29 0l333 1001q29 90 108.5 137.5t199.5 47.5q118 0 196.5 -46.5t106.5 -135.5l309 -1004h-457l-34 156h-265l-39 -156h-458zM246 1233v293h837v-293h-837zM604 467h109l-51 254z" />
<glyph horiz-adv-x="1310" d="M29 0l333 1001q29 90 108.5 137.5t199.5 47.5q118 0 196.5 -46.5t106.5 -135.5l309 -1004h-457l-34 156h-265l-39 -156h-458zM236 1563h360q0 -107 76 -107q40 0 60 24.5t20 82.5h358q0 -160 -123 -249t-315 -89t-314 89t-122 249zM604 467h109l-51 254z" />
<glyph horiz-adv-x="1310" d="M29 0l333 1001q29 90 108.5 137.5t199.5 47.5q118 0 196.5 -46.5t106.5 -135.5l309 -1004q-84 -51 -84 -111q0 -53 66 -53q94 0 204 49l45 -180q-138 -55 -284 -55q-113 0 -183.5 42.5t-70.5 127.5q0 60 34 108t83 72h-267l-34 156h-265l-39 -156h-458zM604 467h109 l-51 254z" />
<glyph horiz-adv-x="1214" d="M68 588q0 190 78 325.5t213.5 202t316.5 66.5q175 0 356 -54l113 -32l-49 -344l-123 39q-100 32 -238 32q-198 0 -198 -235q0 -238 198 -238q119 0 240 39l121 37l49 -348l-115 -35q-142 -47 -323 -53l-31 -62q83 0 133.5 -39t50.5 -118q0 -88 -61 -135.5t-176 -47.5 q-106 0 -224 52l47 147q98 -49 179 -49q39 0 39 29q0 25 -38 33.5t-122 2.5l-27 41l82 154q-229 30 -360 181.5t-131 408.5z" />
<glyph horiz-adv-x="1214" d="M68 588q0 190 78 325.5t213.5 202t316.5 66.5q175 0 356 -54l113 -32l-49 -344l-123 39q-100 32 -238 32q-198 0 -198 -235q0 -238 198 -238q119 0 240 39l121 37l49 -348l-115 -35q-167 -53 -358 -53q-276 0 -440 155.5t-164 442.5zM461 1325q0 71 57 121l137 117h525 l-400 -291q-43 -33 -83.5 -49.5t-96.5 -16.5q-67 0 -103 35t-36 84z" />
<glyph horiz-adv-x="1214" d="M68 588q0 190 78 325.5t213.5 202t316.5 66.5q175 0 356 -54l113 -32l-49 -344l-123 39q-100 32 -238 32q-198 0 -198 -235q0 -238 198 -238q119 0 240 39l121 37l49 -348l-115 -35q-167 -53 -358 -53q-276 0 -440 155.5t-164 442.5zM211 1243l244 250q80 76 221 76 q144 0 223 -76l252 -250h-403l-72 92l-64 -92h-401z" />
<glyph horiz-adv-x="1214" d="M68 588q0 190 78 325.5t213.5 202t316.5 66.5q175 0 356 -54l113 -32l-49 -344l-123 39q-100 32 -238 32q-198 0 -198 -235q0 -238 198 -238q119 0 240 39l121 37l49 -348l-115 -35q-167 -53 -358 -53q-276 0 -440 155.5t-164 442.5zM442 1409q0 82 62 128t172 46 q107 0 168 -46t61 -128q0 -83 -60.5 -129.5t-168.5 -46.5q-110 0 -172 46.5t-62 129.5z" />
<glyph horiz-adv-x="1214" d="M68 588q0 190 78 325.5t213.5 202t316.5 66.5q175 0 356 -54l113 -32l-49 -344l-123 39q-100 32 -238 32q-198 0 -198 -235q0 -238 198 -238q119 0 240 39l121 37l49 -348l-115 -35q-167 -53 -358 -53q-276 0 -440 155.5t-164 442.5zM211 1567h403l70 -99l64 99h403 l-246 -256q-71 -78 -221 -78t-223 78z" />
<glyph horiz-adv-x="1290" d="M88 182v805q0 88 51.5 136t149.5 48h317q287 0 452 -155t165 -432q0 -276 -167 -430t-452 -154h-315q-98 0 -149.5 48t-51.5 134zM145 1567h404l69 -99l64 99h403l-245 -256q-71 -78 -222 -78q-150 0 -223 78zM541 328h57q86 0 131 64t45 192q0 127 -47 195.5t-135 68.5 h-51v-520z" />
<glyph horiz-adv-x="1325" d="M41 481v217h80v289q0 88 51.5 136t149.5 48h321q286 0 449 -155t163 -432t-165.5 -430.5t-450.5 -153.5h-317q-98 0 -149.5 48t-51.5 134v299h-80zM575 328h58q84 0 129 64.5t45 191.5t-47 195.5t-135 68.5h-50v-150h146v-217h-146v-153z" />
<glyph horiz-adv-x="1128" d="M88 182v805q0 88 51.5 136t149.5 48h758v-313h-504v-108h438v-306h-438v-129h508v-315h-762q-98 0 -149.5 48t-51.5 134zM131 1563h524l138 -121q34 -31 45.5 -58.5t11.5 -62.5q0 -49 -36 -84t-103 -35q-95 0 -181 66z" />
<glyph horiz-adv-x="1128" d="M88 182v805q0 88 51.5 136t149.5 48h758v-313h-504v-108h438v-306h-438v-129h508v-315h-762q-98 0 -149.5 48t-51.5 134zM317 1325q0 70 58 121l137 117h524l-399 -291q-43 -33 -83.5 -49.5t-96.5 -16.5q-67 0 -103.5 35t-36.5 84z" />
<glyph horiz-adv-x="1128" d="M88 182v805q0 88 51.5 136t149.5 48h758v-313h-504v-108h438v-306h-438v-129h508v-315h-762q-98 0 -149.5 48t-51.5 134zM113 1243l243 250q80 76 222 76q144 0 223 -76l252 -250h-404l-71 92l-64 -92h-401z" />
<glyph horiz-adv-x="1128" d="M88 182v805q0 88 51.5 136t149.5 48h758v-313h-504v-108h438v-306h-438v-129h508v-315h-762q-98 0 -149.5 48t-51.5 134zM131 1409q0 82 56 128t157 46q98 0 153.5 -46t55.5 -128q0 -83 -55.5 -129.5t-153.5 -46.5q-101 0 -157 46.5t-56 129.5zM602 1409q0 82 55.5 128 t155.5 46q98 0 154.5 -46t56.5 -128q0 -83 -56 -129.5t-155 -46.5q-100 0 -155.5 46.5t-55.5 129.5z" />
<glyph horiz-adv-x="1128" d="M88 182v805q0 88 51.5 136t149.5 48h758v-313h-504v-108h438v-306h-438v-129h508v-315h-762q-98 0 -149.5 48t-51.5 134zM152 1233v293h837v-293h-837z" />
<glyph horiz-adv-x="1128" d="M88 182v805q0 88 51.5 136t149.5 48h758v-313h-504v-108h438v-306h-438v-129h508v-315h-762q-98 0 -149.5 48t-51.5 134zM141 1563h361q0 -107 76 -107q40 0 59.5 24.5t19.5 82.5h359q0 -160 -123 -249t-315 -89t-314.5 89t-122.5 249z" />
<glyph horiz-adv-x="1128" d="M88 182v805q0 88 51.5 136t149.5 48h758v-313h-504v-108h438v-306h-438v-129h508v-315h-762q-98 0 -149.5 48t-51.5 134zM354 1409q0 82 62 128t172 46q107 0 168 -46t61 -128q0 -83 -60.5 -129.5t-168.5 -46.5q-110 0 -172 46.5t-62 129.5z" />
<glyph horiz-adv-x="1128" d="M88 182v805q0 88 51.5 136t149.5 48h758v-313h-504v-108h438v-306h-438v-129h508v-315h-99q-84 -51 -84 -111q0 -53 66 -53q95 0 205 49l45 -180q-138 -55 -285 -55q-113 0 -183.5 42.5t-70.5 127.5q0 60 34 108t83 72h-473q-98 0 -149.5 48t-51.5 134z" />
<glyph horiz-adv-x="1128" d="M88 182v805q0 88 51.5 136t149.5 48h758v-313h-504v-108h438v-306h-438v-129h508v-315h-762q-98 0 -149.5 48t-51.5 134zM113 1567h403l70 -99l63 99h404l-246 -256q-71 -78 -221 -78q-151 0 -224 78z" />
<glyph horiz-adv-x="1290" d="M68 588q0 281 169 437.5t455 156.5q200 0 377 -54l121 -34l-53 -349l-127 39q-140 39 -267 39q-112 0 -170.5 -63t-58.5 -182q0 -137 54.5 -205t170.5 -68q14 0 36 1l18 -1v92h-185v295h400q98 0 151 -48.5t53 -133.5v-270q0 -63 -18 -95q-39 -79 -192.5 -117t-319.5 -38 q-286 0 -450 157t-164 441zM217 1243l244 250q80 76 221 76q144 0 223 -76l252 -250h-403l-72 92l-64 -92h-401z" />
<glyph horiz-adv-x="1290" d="M68 588q0 281 169 437.5t455 156.5q200 0 377 -54l121 -34l-53 -349l-127 39q-140 39 -267 39q-112 0 -170.5 -63t-58.5 -182q0 -137 54.5 -205t170.5 -68q14 0 36 1l18 -1v92h-185v295h400q98 0 151 -48.5t53 -133.5v-270q0 -63 -18 -95q-39 -79 -192.5 -117t-319.5 -38 q-286 0 -450 157t-164 441zM244 1563h360q0 -107 76 -107q40 0 60 24.5t20 82.5h358q0 -160 -123 -249t-315 -89t-314 89t-122 249z" />
<glyph horiz-adv-x="1290" d="M68 588q0 281 169 437.5t455 156.5q200 0 377 -54l121 -34l-53 -349l-127 39q-140 39 -267 39q-112 0 -170.5 -63t-58.5 -182q0 -137 54.5 -205t170.5 -68q14 0 36 1l18 -1v92h-185v295h400q98 0 151 -48.5t53 -133.5v-270q0 -63 -18 -95q-39 -79 -192.5 -117t-319.5 -38 q-286 0 -450 157t-164 441zM442 1413q0 82 62 128t172 46q107 0 168 -46t61 -128q0 -83 -60.5 -129.5t-168.5 -46.5q-110 0 -172 46.5t-62 129.5z" />
<glyph horiz-adv-x="1290" d="M68 588q0 281 169 437.5t455 156.5q200 0 377 -54l121 -34l-53 -349l-127 39q-140 39 -267 39q-112 0 -170.5 -63t-58.5 -182q0 -137 54.5 -205t170.5 -68q14 0 36 1l18 -1v92h-185v295h400q98 0 151 -48.5t53 -133.5v-270q0 -63 -18 -95q-39 -79 -192.5 -117t-319.5 -38 q-286 0 -450 157t-164 441zM426 -248l45 172h393l-76 -243q-20 -65 -62.5 -98.5t-125.5 -33.5q-105 0 -150 58t-24 145z" />
<glyph horiz-adv-x="1271" d="M88 0v1171h457v-419h180v419h459v-1171h-459v436h-180v-436h-457zM164 1243l244 250q80 76 221 76q144 0 223 -76l252 -250h-404l-71 92l-64 -92h-401z" />
<glyph horiz-adv-x="1271" d="M23 836v219h65v116h457v-116h180v116h459v-116h67v-219h-67v-836h-459v436h-180v-436h-457v836h-65zM545 752h180v84h-180v-84z" />
<glyph horiz-adv-x="1576" d="M88 0v1171h461v-1171h-461zM688 57l51 324q134 -41 189 -41q56 0 81 21.5t25 70.5v739h455v-772q0 -194 -122 -296.5t-339 -102.5q-162 0 -340 57z" />
<glyph horiz-adv-x="626" d="M-154 1563h525l137 -121q34 -31 45.5 -58.5t11.5 -62.5q0 -49 -36 -84t-103 -35q-56 0 -96.5 16.5t-83.5 49.5zM88 0v1171h461v-1171h-461z" />
<glyph horiz-adv-x="626" d="M68 1325q0 71 57 121l137 117h524l-399 -291q-43 -33 -83.5 -49.5t-96.5 -16.5q-67 0 -103 35t-36 84zM88 0v1171h461v-1171h-461z" />
<glyph horiz-adv-x="626" d="M-154 1243l244 250q80 76 221 76q145 0 224 -76l251 -250h-403l-72 92l-63 -92h-402zM88 0v1171h461v-1171h-461z" />
<glyph horiz-adv-x="626" d="M-125 1409q0 82 56 128t157 46q98 0 153.5 -46t55.5 -128q0 -83 -55.5 -129.5t-153.5 -46.5q-101 0 -157 46.5t-56 129.5zM88 0v1171h461v-1171h-461zM346 1409q0 82 55.5 128t155.5 46q98 0 154.5 -46t56.5 -128q0 -83 -56 -129.5t-155 -46.5q-100 0 -155.5 46.5 t-55.5 129.5z" />
<glyph horiz-adv-x="626" d="M-162 1317q104 268 334 268q96 0 182 -59l43 -29q39 -27 80 -27q34 0 61 27.5t54 87.5l184 -102q-105 -269 -332 -269q-102 0 -182 60l-43 29q-40 28 -80 28q-67 0 -114 -112zM88 0v1171h461v-1171h-461z" />
<glyph horiz-adv-x="626" d="M-96 1233v293h837v-293h-837zM88 0v1171h461v-1171h-461z" />
<glyph horiz-adv-x="626" d="M-113 1563h361q0 -107 76 -107q40 0 59.5 24.5t19.5 82.5h359q0 -160 -123 -249t-315 -89t-314.5 89t-122.5 249zM88 0v1171h461v-1171h-461z" />
<glyph horiz-adv-x="626" d="M88 0v1171h461v-1171q-84 -51 -84 -111q0 -53 65 -53q95 0 205 49l45 -180q-138 -55 -284 -55q-113 0 -183.5 42.5t-70.5 127.5q0 61 33.5 108.5t82.5 71.5h-270z" />
<glyph horiz-adv-x="626" d="M88 0v1171h461v-1171h-461zM92 1409q0 82 62 128t172 46q107 0 168 -46t61 -128q0 -83 -60.5 -129.5t-168.5 -46.5q-110 0 -172 46.5t-62 129.5z" />
<glyph horiz-adv-x="1124" d="M41 387v283l78 24v477h459v-327l239 78v-285l-239 -78v-211h466v-348h-729q-98 0 -147 47.5t-49 134.5v230z" />
<glyph horiz-adv-x="950" d="M61 57l52 324q134 -41 188 -41q56 0 81.5 21.5t25.5 70.5v739h454v-772q0 -194 -122 -296.5t-339 -102.5q-162 0 -340 57zM162 1243l244 250q80 76 221 76q144 0 223 -76l252 -250h-404l-71 92l-64 -92h-401z" />
<glyph horiz-adv-x="1296" d="M88 0v1171h449v-321l227 321h504l-330 -417q33 -82 95.5 -235.5t113.5 -281.5t94 -237h-481l-148 403l-20 -24q-30 -37 -42.5 -68t-12.5 -84v-227h-449zM385 -248l45 172h393l-75 -243q-20 -65 -63 -98.5t-126 -33.5q-105 0 -150 58t-24 145z" />
<glyph horiz-adv-x="1085" d="M88 182v989h459v-823h469v-348h-727q-98 0 -149.5 48t-51.5 134zM258 1325q0 71 57 121l138 117h524l-399 -291q-86 -66 -181 -66q-67 0 -103 35t-36 84z" />
<glyph horiz-adv-x="1085" d="M88 182v989h459v-823h469v-348h-727q-98 0 -149.5 48t-51.5 134zM285 -248l45 172h393l-76 -243q-20 -65 -62.5 -98.5t-125.5 -33.5q-105 0 -150 58t-24 145z" />
<glyph horiz-adv-x="1085" d="M88 182v989h459v-823h469v-348h-727q-98 0 -149.5 48t-51.5 134zM621 899l75 350h365l-125 -422q-18 -64 -58 -97.5t-112 -33.5q-100 0 -134.5 57.5t-10.5 145.5z" />
<glyph horiz-adv-x="1085" d="M88 182v989h459v-823h469v-348h-727q-98 0 -149.5 48t-51.5 134zM612 639q0 108 56 160.5t137 52.5q87 0 145 -52.5t58 -160.5q0 -107 -58 -159t-145 -52q-80 0 -136.5 52.5t-56.5 158.5z" />
<glyph horiz-adv-x="1329" d="M88 0v930q0 121 82.5 186.5t235.5 65.5q60 0 106 -11.5t77.5 -29.5t58 -50.5t43 -63.5t36.5 -79l123 -311v534h393v-927q0 -122 -83 -188t-234 -66q-73 0 -126 16t-90 49.5t-60 71t-48 96.5l-123 312v-535h-391zM201 1317q104 268 334 268q96 0 182 -59l43 -29 q39 -27 80 -27q34 0 60.5 27.5t53.5 87.5l185 -102q-105 -269 -332 -269q-102 0 -182 60l-43 29q-40 28 -80 28q-68 0 -115 -112z" />
<glyph horiz-adv-x="1329" d="M88 0v930q0 121 82.5 186.5t235.5 65.5q60 0 106 -11.5t77.5 -29.5t58 -50.5t43 -63.5t36.5 -79l123 -311v534h393v-927q0 -122 -83 -188t-234 -66q-73 0 -126 16t-90 49.5t-60 71t-48 96.5l-123 312v-535h-391zM414 1325q0 71 57 121l137 117h525l-400 -291 q-43 -33 -83.5 -49.5t-96.5 -16.5q-67 0 -103 35t-36 84z" />
<glyph horiz-adv-x="1329" d="M88 0v930q0 121 82.5 186.5t235.5 65.5q60 0 106 -11.5t77.5 -29.5t58 -50.5t43 -63.5t36.5 -79l123 -311v534h393v-927q0 -122 -83 -188t-234 -66q-73 0 -126 16t-90 49.5t-60 71t-48 96.5l-123 312v-535h-391zM389 -248l45 172h393l-75 -243q-20 -65 -63 -98.5 t-126 -33.5q-105 0 -150 58t-24 145z" />
<glyph horiz-adv-x="1329" d="M88 0v930q0 121 82.5 186.5t235.5 65.5q60 0 106 -11.5t77.5 -29.5t58 -50.5t43 -63.5t36.5 -79l123 -311v534h393v-927q0 -122 -83 -188t-234 -66q-73 0 -126 16t-90 49.5t-60 71t-48 96.5l-123 312v-535h-391zM207 1567h403l70 -99l63 99h404l-246 -256 q-71 -78 -221 -78t-223 78z" />
<glyph horiz-adv-x="1400" d="M68 586q0 279 172 436.5t462 157.5q293 0 462 -156t169 -438q0 -284 -171.5 -440t-465.5 -156q-291 0 -459.5 156.5t-168.5 439.5zM252 1563h524l137 -121q58 -53 58 -121q0 -49 -36.5 -84t-103.5 -35q-56 0 -96.5 16.5t-83.5 49.5zM526 586q0 -139 45 -213t131 -74 q172 0 172 287q0 137 -45 212.5t-133 75.5q-85 0 -127.5 -75t-42.5 -213z" />
<glyph horiz-adv-x="1400" d="M68 586q0 279 172 436.5t462 157.5q293 0 462 -156t169 -438q0 -284 -171.5 -440t-465.5 -156q-291 0 -459.5 156.5t-168.5 439.5zM391 1325q0 70 58 121l137 117h524l-399 -291q-86 -66 -181 -66q-67 0 -103 35t-36 84zM526 586q0 -139 45 -213t131 -74q172 0 172 287 q0 137 -45 212.5t-133 75.5q-85 0 -127.5 -75t-42.5 -213z" />
<glyph horiz-adv-x="1400" d="M68 586q0 279 172 436.5t462 157.5q293 0 462 -156t169 -438q0 -284 -171.5 -440t-465.5 -156q-291 0 -459.5 156.5t-168.5 439.5zM227 1243l244 250q80 76 221 76q144 0 223 -76l252 -250h-403l-72 92l-63 -92h-402zM526 586q0 -139 45 -213t131 -74q172 0 172 287 q0 137 -45 212.5t-133 75.5q-85 0 -127.5 -75t-42.5 -213z" />
<glyph horiz-adv-x="1400" d="M68 586q0 279 172 436.5t462 157.5q293 0 462 -156t169 -438q0 -284 -171.5 -440t-465.5 -156q-291 0 -459.5 156.5t-168.5 439.5zM217 1317q104 268 334 268q96 0 182 -59l43 -29q39 -27 80 -27q34 0 61 27.5t54 87.5l184 -102q-105 -269 -332 -269q-102 0 -182 60 l-43 29q-40 28 -80 28q-68 0 -115 -112zM526 586q0 -139 45 -213t131 -74q172 0 172 287q0 137 -45 212.5t-133 75.5q-85 0 -127.5 -75t-42.5 -213z" />
<glyph horiz-adv-x="1400" d="M68 586q0 279 172 436.5t462 157.5q293 0 462 -156t169 -438q0 -284 -171.5 -440t-465.5 -156q-291 0 -459.5 156.5t-168.5 439.5zM250 1409q0 82 56 128t157 46q98 0 153.5 -46t55.5 -128q0 -83 -55.5 -129.5t-153.5 -46.5q-101 0 -157 46.5t-56 129.5zM526 586 q0 -139 45 -213t131 -74q172 0 172 287q0 137 -45 212.5t-133 75.5q-85 0 -127.5 -75t-42.5 -213zM721 1409q0 82 55.5 128t155.5 46q98 0 154.5 -46t56.5 -128q0 -83 -56 -129.5t-155 -46.5q-100 0 -155.5 46.5t-55.5 129.5z" />
<glyph horiz-adv-x="1341" d="M92 0v930q0 121 82.5 186.5t235.5 65.5q74 0 127 -12.5t89.5 -40t58.5 -56t48 -74.5l121 -231v403h393v-1212q0 -166 -118.5 -248t-366.5 -82v256q92 0 92 82v41l-369 586v-594h-393z" />
<glyph horiz-adv-x="1400" d="M68 586q0 279 172 436.5t462 157.5q293 0 462 -156t169 -438q0 -284 -171.5 -440t-465.5 -156q-291 0 -459.5 156.5t-168.5 439.5zM276 1233v293h838v-293h-838zM526 586q0 -139 45 -213t131 -74q172 0 172 287q0 137 -45 212.5t-133 75.5q-85 0 -127.5 -75t-42.5 -213z " />
<glyph horiz-adv-x="1400" d="M68 586q0 279 172 436.5t462 157.5q293 0 462 -156t169 -438q0 -284 -171.5 -440t-465.5 -156q-291 0 -459.5 156.5t-168.5 439.5zM260 1563h361q0 -58 19 -82.5t56 -24.5q40 0 60 24.5t20 82.5h359q0 -160 -123.5 -249t-315.5 -89t-314 89t-122 249zM526 586 q0 -139 45 -213t131 -74q172 0 172 287q0 137 -45 212.5t-133 75.5q-85 0 -127.5 -75t-42.5 -213z" />
<glyph horiz-adv-x="1400" d="M68 586q0 279 172 436.5t462 157.5q293 0 462 -156t169 -438q0 -284 -171.5 -440t-465.5 -156q-291 0 -459.5 156.5t-168.5 439.5zM301 1329q0 59 37 101l133 133h399l-260 -277q-72 -78 -178 -78q-61 0 -96 34.5t-35 86.5zM526 586q0 -139 45 -213t131 -74 q172 0 172 287q0 137 -45 212.5t-133 75.5q-85 0 -127.5 -75t-42.5 -213zM788 1329q0 60 41 103l123 131h406l-260 -277q-70 -76 -176 -76q-62 0 -98 34t-36 85z" />
<glyph horiz-adv-x="1261" d="M88 0v987q0 88 51.5 136t149.5 48h450q205 0 321 -98t116 -272q0 -77 -33 -149.5t-88 -125.5l-35 -34l213 -492h-473l-146 371h-71v-371h-455zM418 1325q0 71 57 121l137 117h525l-400 -291q-43 -33 -83.5 -49.5t-96.5 -16.5q-67 0 -103 35t-36 84zM543 674h133l31 33 q32 36 32 81q0 37 -22.5 56.5t-63.5 19.5h-110v-190z" />
<glyph horiz-adv-x="1261" d="M88 0v987q0 88 51.5 136t149.5 48h450q205 0 321 -98t116 -272q0 -77 -33 -149.5t-88 -125.5l-35 -34l213 -492h-473l-146 371h-71v-371h-455zM389 -248l45 172h393l-75 -243q-20 -65 -63 -98.5t-126 -33.5q-105 0 -150 58t-24 145zM543 674h133l31 33q32 36 32 81 q0 37 -22.5 56.5t-63.5 19.5h-110v-190z" />
<glyph horiz-adv-x="1261" d="M88 0v987q0 88 51.5 136t149.5 48h450q205 0 321 -98t116 -272q0 -77 -33 -149.5t-88 -125.5l-35 -34l213 -492h-473l-146 371h-71v-371h-455zM143 1567h404l69 -99l64 99h403l-245 -256q-71 -78 -222 -78q-150 0 -223 78zM543 674h133l31 33q32 36 32 81 q0 37 -22.5 56.5t-63.5 19.5h-110v-190z" />
<glyph horiz-adv-x="1165" d="M68 80l65 356l143 -49q184 -63 322 -63q70 0 70 41q0 33 -60 47l-186 32q-175 31 -262.5 117t-87.5 238q0 191 131.5 286t363.5 95q228 0 394 -50l137 -43l-68 -360l-141 51q-191 66 -322 66q-36 0 -50.5 -10t-14.5 -31q0 -37 59 -49l180 -31q178 -32 265.5 -115 t87.5 -235q0 -129 -63.5 -217t-172.5 -129t-258 -41q-233 0 -391 49zM330 1325q0 71 57 121l137 117h525l-400 -291q-43 -33 -83.5 -49.5t-96.5 -16.5q-67 0 -103 35t-36 84z" />
<glyph horiz-adv-x="1165" d="M68 80l65 356l143 -49q184 -63 322 -63q70 0 70 41q0 33 -60 47l-186 32q-175 31 -262.5 117t-87.5 238q0 191 131.5 286t363.5 95q228 0 394 -50l137 -43l-68 -360l-141 51q-191 66 -322 66q-36 0 -50.5 -10t-14.5 -31q0 -37 59 -49l180 -31q178 -32 265.5 -115 t87.5 -235q0 -129 -63.5 -217t-172.5 -129t-258 -41q-233 0 -391 49zM117 1243l243 250q80 76 222 76q144 0 223 -76l252 -250h-404l-71 92l-64 -92h-401z" />
<glyph horiz-adv-x="1165" d="M68 80l65 356l143 -49q184 -63 322 -63q70 0 70 41q0 33 -60 47l-186 32q-175 31 -262.5 117t-87.5 238q0 191 131.5 286t363.5 95q228 0 394 -50l137 -43l-68 -360l-141 51q-191 66 -322 66q-36 0 -50.5 -10t-14.5 -31q0 -37 59 -49l180 -31q178 -32 265.5 -115 t87.5 -235q0 -186 -125.5 -283.5t-339.5 -103.5l-29 -58q83 0 133.5 -39t50.5 -118q0 -88 -61 -135.5t-176 -47.5q-105 0 -223 52l47 147q98 -49 178 -49q39 0 39 29q0 25 -38 33.5t-122 2.5l-27 41l78 144q-158 11 -270 47z" />
<glyph horiz-adv-x="1165" d="M68 80l65 356l143 -49q184 -63 322 -63q70 0 70 41q0 33 -60 47l-186 32q-175 31 -262.5 117t-87.5 238q0 191 131.5 286t363.5 95q228 0 394 -50l137 -43l-68 -360l-141 51q-191 66 -322 66q-36 0 -50.5 -10t-14.5 -31q0 -37 59 -49l180 -31q178 -32 265.5 -115 t87.5 -235q0 -129 -63.5 -217t-172.5 -129t-258 -41q-233 0 -391 49zM328 -248l45 172h393l-76 -243q-20 -65 -62.5 -98.5t-125.5 -33.5q-105 0 -150 58t-24 145z" />
<glyph horiz-adv-x="1165" d="M68 80l65 356l143 -49q184 -63 322 -63q70 0 70 41q0 33 -60 47l-186 32q-175 31 -262.5 117t-87.5 238q0 191 131.5 286t363.5 95q228 0 394 -50l137 -43l-68 -360l-141 51q-191 66 -322 66q-36 0 -50.5 -10t-14.5 -31q0 -37 59 -49l180 -31q178 -32 265.5 -115 t87.5 -235q0 -129 -63.5 -217t-172.5 -129t-258 -41q-233 0 -391 49zM106 1567h404l70 -99l63 99h404l-246 -256q-71 -78 -221 -78q-151 0 -224 78z" />
<glyph horiz-adv-x="1202" d="M72 846v325h1058v-325h-299v-846h-458v846h-301zM348 -248l45 172h393l-75 -243q-20 -65 -63 -98.5t-126 -33.5q-105 0 -150 58t-24 145z" />
<glyph horiz-adv-x="1202" d="M72 846v325h1058v-325h-299v-846h-458v846h-301zM133 1567h404l69 -99l64 99h403l-246 -256q-71 -78 -221 -78t-223 78z" />
<glyph horiz-adv-x="1202" d="M72 846v325h1058v-325h-299v-174h193v-244h-193v-428h-458v428h-178v244h178v174h-301z" />
<glyph horiz-adv-x="1294" d="M88 449v722h457v-720q0 -113 102 -113q51 0 74.5 28t23.5 85v720h461v-722q0 -224 -144 -348t-419 -124q-269 0 -412 123.5t-143 348.5zM141 1563h525l137 -121q34 -31 45.5 -58.5t11.5 -62.5q0 -49 -36 -84t-103 -35q-56 0 -96.5 16.5t-83.5 49.5z" />
<glyph horiz-adv-x="1294" d="M88 449v722h457v-720q0 -113 102 -113q51 0 74.5 28t23.5 85v720h461v-722q0 -224 -144 -348t-419 -124q-269 0 -412 123.5t-143 348.5zM432 1325q0 71 57 121l138 117h524l-399 -291q-86 -66 -181 -66q-67 0 -103 35t-36 84z" />
<glyph horiz-adv-x="1294" d="M88 449v722h457v-720q0 -113 102 -113q51 0 74.5 28t23.5 85v720h461v-722q0 -224 -144 -348t-419 -124q-269 0 -412 123.5t-143 348.5zM176 1243l244 250q80 76 221 76q144 0 223 -76l252 -250h-403l-72 92l-63 -92h-402z" />
<glyph horiz-adv-x="1294" d="M88 449v722h457v-720q0 -113 102 -113q51 0 74.5 28t23.5 85v720h461v-722q0 -224 -144 -348t-419 -124q-269 0 -412 123.5t-143 348.5zM201 1409q0 82 56 128t157 46q98 0 153.5 -46t55.5 -128q0 -83 -55.5 -129.5t-153.5 -46.5q-101 0 -157 46.5t-56 129.5zM672 1409 q0 82 55.5 128t155.5 46q98 0 154.5 -46t56.5 -128q0 -83 -56 -129.5t-155 -46.5q-100 0 -155.5 46.5t-55.5 129.5z" />
<glyph horiz-adv-x="1294" d="M88 449v722h457v-720q0 -113 102 -113q51 0 74.5 28t23.5 85v720h461v-722q0 -224 -144 -348t-419 -124q-269 0 -412 123.5t-143 348.5zM182 1317q104 268 334 268q96 0 182 -59l43 -29q39 -27 80 -27q34 0 61 27.5t54 87.5l184 -102q-105 -269 -332 -269q-102 0 -182 60 l-43 29q-40 28 -80 28q-67 0 -114 -112z" />
<glyph horiz-adv-x="1294" d="M88 449v722h457v-720q0 -113 102 -113q51 0 74.5 28t23.5 85v720h461v-722q0 -224 -144 -348t-419 -124q-269 0 -412 123.5t-143 348.5zM229 1233v293h838v-293h-838z" />
<glyph horiz-adv-x="1294" d="M88 449v722h457v-720q0 -113 102 -113q51 0 74.5 28t23.5 85v720h461v-722q0 -224 -144 -348t-419 -124q-269 0 -412 123.5t-143 348.5zM211 1563h360q0 -107 76 -107q40 0 60 24.5t20 82.5h358q0 -160 -123 -249t-315 -89t-314 89t-122 249z" />
<glyph horiz-adv-x="1294" d="M88 449v722h457v-720q0 -113 102 -113q51 0 74.5 28t23.5 85v720h461v-722q0 -224 -144 -348t-419 -124q-269 0 -412 123.5t-143 348.5zM348 1497q0 122 85.5 196t211.5 74q125 0 212 -74t87 -196q0 -120 -88.5 -196t-210.5 -76t-209.5 76t-87.5 196zM549 1497 q0 -39 27.5 -62.5t68.5 -23.5t69.5 23.5t28.5 62.5q0 38 -28 61t-70 23t-69 -23t-27 -61z" />
<glyph horiz-adv-x="1294" d="M88 449v722h457v-720q0 -113 102 -113q51 0 74.5 28t23.5 85v720h461v-722q0 -224 -144 -348t-419 -124q-269 0 -412 123.5t-143 348.5zM233 1329q0 59 37 101l133 133h400l-260 -277q-72 -78 -178 -78q-61 0 -96.5 34.5t-35.5 86.5zM721 1329q0 60 41 103l123 131h405 l-260 -277q-70 -76 -176 -76q-62 0 -97.5 33.5t-35.5 85.5z" />
<glyph horiz-adv-x="1294" d="M88 449v722h457v-720q0 -113 102 -113q51 0 74.5 28t23.5 85v720h461v-722q0 -176 -90 -291t-262 -158q-70 -45 -70 -102q0 -54 66 -54q93 0 205 50l45 -181q-138 -55 -285 -55q-113 0 -183.5 42.5t-70.5 127.5q0 86 70 149q-264 3 -403.5 126t-139.5 346z" />
<glyph horiz-adv-x="1718" d="M39 1171h432l70 -624l114 491q13 60 72 96.5t141 36.5q84 0 138 -34t69 -99l109 -489l71 622h424l-200 -995q-36 -192 -269 -192q-237 0 -280 180l-72 307l-74 -307q-46 -180 -278 -180q-233 0 -273 192zM397 1243l244 250q80 76 221 76q144 0 223 -76l252 -250h-403 l-72 92l-63 -92h-402z" />
<glyph horiz-adv-x="1718" d="M39 1171h432l70 -624l114 491q13 60 72 96.5t141 36.5q84 0 138 -34t69 -99l109 -489l71 622h424l-200 -995q-36 -192 -269 -192q-237 0 -280 180l-72 307l-74 -307q-46 -180 -278 -180q-233 0 -273 192zM430 1409q0 82 56 128t157 46q98 0 153.5 -46t55.5 -128 q0 -83 -55.5 -129.5t-153.5 -46.5q-101 0 -157 46.5t-56 129.5zM901 1409q0 82 55.5 128t155.5 46q98 0 154.5 -46t56.5 -128q0 -83 -56 -129.5t-155 -46.5q-100 0 -155.5 46.5t-55.5 129.5z" />
<glyph horiz-adv-x="1718" d="M39 1171h432l70 -624l114 491q13 60 72 96.5t141 36.5q84 0 138 -34t69 -99l109 -489l71 622h424l-200 -995q-36 -192 -269 -192q-237 0 -280 180l-72 307l-74 -307q-46 -180 -278 -180q-233 0 -273 192zM551 1325q0 71 57 121l137 117h525l-400 -291 q-43 -33 -83.5 -49.5t-96.5 -16.5q-67 0 -103 35t-36 84z" />
<glyph horiz-adv-x="1718" d="M39 1171h432l70 -624l114 491q13 60 72 96.5t141 36.5q84 0 138 -34t69 -99l109 -489l71 622h424l-200 -995q-36 -192 -269 -192q-237 0 -280 180l-72 307l-74 -307q-46 -180 -278 -180q-233 0 -273 192zM426 1563h524l137 -121q58 -53 58 -121q0 -49 -36 -84t-103 -35 q-95 0 -181 66z" />
<glyph horiz-adv-x="1366" d="M31 1171h499l158 -331l150 331h497l-424 -712v-459h-456v459zM446 1325q0 70 58 121l137 117h524l-399 -291q-43 -33 -83.5 -49.5t-96.5 -16.5q-67 0 -103.5 35t-36.5 84z" />
<glyph horiz-adv-x="1366" d="M31 1171h499l158 -331l150 331h497l-424 -712v-459h-456v459zM238 1409q0 82 56 128t157 46q98 0 153 -46t55 -128q0 -83 -55 -129.5t-153 -46.5q-101 0 -157 46.5t-56 129.5zM709 1409q0 82 55.5 128t155.5 46q98 0 154 -46t56 -128q0 -83 -55.5 -129.5t-154.5 -46.5 q-100 0 -155.5 46.5t-55.5 129.5z" />
<glyph horiz-adv-x="1366" d="M31 1171h499l158 -331l150 331h497l-424 -712v-459h-456v459zM217 1243l244 250q80 76 221 76q144 0 223 -76l252 -250h-403l-72 92l-64 -92h-401z" />
<glyph horiz-adv-x="1366" d="M31 1171h499l158 -331l150 331h497l-424 -712v-459h-456v459zM227 1563h525l137 -121q34 -31 45.5 -58.5t11.5 -62.5q0 -49 -36 -84t-103 -35q-56 0 -96.5 16.5t-83.5 49.5z" />
<glyph horiz-adv-x="1202" d="M68 186q0 89 67 166l418 502h-444v317h831q97 0 146 -50t49 -136q0 -83 -66 -166l-416 -500h465v-319h-858q-94 0 -143 50.5t-49 135.5zM147 1567h404l70 -99l63 99h403l-245 -256q-71 -78 -221 -78q-151 0 -224 78z" />
<glyph horiz-adv-x="1202" d="M68 186q0 89 67 166l418 502h-444v317h831q97 0 146 -50t49 -136q0 -83 -66 -166l-416 -500h465v-319h-858q-94 0 -143 50.5t-49 135.5zM340 1325q0 71 57 121l138 117h524l-400 -291q-43 -33 -83.5 -49.5t-96.5 -16.5q-67 0 -103 35t-36 84z" />
<glyph horiz-adv-x="1202" d="M68 186q0 89 67 166l418 502h-444v317h831q97 0 146 -50t49 -136q0 -83 -66 -166l-416 -500h465v-319h-858q-94 0 -143 50.5t-49 135.5zM377 1409q0 82 61.5 128t171.5 46q107 0 168.5 -46t61.5 -128q0 -83 -61 -129.5t-169 -46.5q-110 0 -171.5 46.5t-61.5 129.5z" />
<glyph horiz-adv-x="1280" d="M88 0v764q0 188 146 302t428 114q105 0 192.5 -19t144 -48t99.5 -68.5t64.5 -74.5t33.5 -71l-225 -235q125 -32 182 -105t57 -203q0 -166 -100.5 -267t-294.5 -101q-113 0 -186 22l-64 19l64 309l47 -12q40 -7 63 -7q34 0 54 17.5t20 50.5q0 24 -19 39.5t-49 15.5h-18 q-80 0 -119 38t-39 106q0 36 10 59.5t37 56.5l121 134q-31 36 -90 36q-51 0 -80.5 -27.5t-29.5 -68.5v-776h-449z" />
<glyph horiz-adv-x="1067" d="M92 379v409q0 191 112 293.5t324 102.5q216 0 330.5 -101t114.5 -290v-410q0 -191 -112 -294t-324 -103q-216 0 -330.5 101t-114.5 292zM475 608l94 264q-16 13 -37 13q-57 0 -57 -80v-197zM494 299q11 -14 38 -14q60 0 60 84v211z" />
<glyph horiz-adv-x="1067" d="M92 379v409q0 191 112 293.5t324 102.5q216 0 330.5 -101t114.5 -290v-410q0 -191 -112 -294t-324 -103q-216 0 -330.5 101t-114.5 292zM475 369q0 -84 57 -84q60 0 60 84v436q0 80 -60 80q-57 0 -57 -80v-436z" />
<glyph horiz-adv-x="1067" d="M80 0v287h287v587h-11q-33 0 -88.5 -16.5t-95.5 -44.5l-53 289q150 69 323 69h111q99 0 154 -48.5t55 -135.5v-700h229v-287h-911z" />
<glyph horiz-adv-x="1067" d="M72 164q0 94 59 143l307 266q72 62 102.5 106t30.5 103q0 45 -31 71t-91 26q-104 0 -222 -43l-98 -33l-49 297l104 33q149 49 324 49q215 0 336 -95.5t121 -285.5q0 -107 -51.5 -203.5t-172.5 -198.5l-137 -116h359v-283h-721q-86 0 -128 44t-42 120z" />
<glyph horiz-adv-x="1067" d="M57 74l52 295l110 -37q132 -47 254 -47q62 0 93.5 20.5t31.5 56.5q0 34 -27 70l-16 21h-252v270h240l20 22q21 28 21 56q0 78 -121 78q-104 0 -227 -43l-103 -33l-43 297l100 33q149 49 326 49q107 0 187 -17t140.5 -55.5t92 -104.5t31.5 -159q0 -144 -95 -236l-12 -12 l12 -10q113 -99 113 -246q0 -177 -124.5 -264.5t-354.5 -87.5q-173 0 -338 51z" />
<glyph horiz-adv-x="1067" d="M49 328q0 56 45 139l348 588q78 129 242 129q231 0 231 -199v-536h97v-283h-97v-166h-358v166h-342q-80 0 -123 45t-43 117zM444 449h113v184z" />
<glyph horiz-adv-x="1067" d="M82 74l49 288l109 -30q164 -47 245 -47q121 0 121 114q0 117 -121 117q-21 0 -44.5 -2.5t-52 -8.5t-45 -10t-52 -13t-43.5 -11l-109 -29v729h813v-301h-493v-86q75 13 135 13q399 0 399 -396q0 -207 -122.5 -309t-352.5 -102q-182 0 -330 49z" />
<glyph horiz-adv-x="1067" d="M82 395v398q0 185 127 286t338 101q174 0 317 -47l107 -33l-58 -297l-100 33q-118 43 -227 43q-60 0 -87.5 -18t-27.5 -56v-21q58 13 129 13q200 0 297.5 -95t97.5 -288q0 -191 -121 -306.5t-339 -115.5q-216 0 -334.5 106.5t-118.5 296.5zM471 399q0 -57 15.5 -83.5 t52.5 -26.5q65 0 65 102q0 57 -17 86t-61 29q-23 0 -55 -8v-99z" />
<glyph horiz-adv-x="1067" d="M86 870v301h721q182 0 182 -172q0 -61 -39 -157l-354 -842h-426l389 870h-473z" />
<glyph horiz-adv-x="1067" d="M74 340q0 70 27 127.5t83 118.5l11 12l-13 14q-82 106 -82 232q0 165 118 252.5t317 87.5q198 0 316 -88t118 -252q0 -139 -84 -232l-13 -14l13 -12q58 -57 83 -114t25 -132q0 -172 -120 -261t-336 -89q-217 0 -340 89.5t-123 260.5zM449 350q0 -34 23 -57t63 -23 q38 0 62 23t24 57q0 35 -31 78l-17 21h-79l-15 -19q-30 -41 -30 -80zM457 813q0 -37 30 -76l11 -14h69l13 14q30 43 30 76q0 37 -20 58.5t-55 21.5t-56.5 -22.5t-21.5 -57.5z" />
<glyph horiz-adv-x="1067" d="M72 760q0 191 121.5 305.5t341.5 114.5q215 0 330.5 -106t115.5 -298v-395q0 -185 -125.5 -288t-341.5 -103q-158 0 -313 51h2l-105 33l54 295l100 -31q143 -46 227 -43q62 0 90.5 18t28.5 58v16q-100 -10 -133 -10q-393 0 -393 383zM461 782q0 -56 18 -84t62 -28 q25 0 57 8v94q0 59 -16 86t-52 27q-69 0 -69 -103z" />
<glyph horiz-adv-x="1079" d="M57 575q0 228 101 384t276 202v221h295v-213q74 -10 193 -49l98 -30l-45 -336l-88 28q-164 47 -238 45q-85 0 -119 -62.5t-34 -189.5q0 -126 33.5 -185.5t119.5 -59.5q91 0 238 47l88 29l45 -334l-98 -31q-98 -32 -193 -45v-215h-295v221q-177 46 -277 195.5t-100 377.5z " />
<glyph horiz-adv-x="1067" d="M80 57l57 342l125 -39q150 -43 275 -43q59 0 59 45q0 34 -57 46l-131 32q-151 36 -239.5 123.5t-88.5 227.5q0 158 78.5 253t226.5 123v215h293v-211q68 -2 182 -30l123 -33l-55 -338l-123 37q-160 45 -273 45q-31 0 -46 -13t-15 -32q0 -39 55 -53l129 -27 q328 -67 328 -344q0 -161 -80 -258t-225 -125v-219h-293v215q-56 4 -182 31z" />
<glyph horiz-adv-x="1067" d="M78 352v209h96v60h-96v206h104q20 169 140.5 264t300.5 95q142 0 274 -39l90 -27l-37 -286l-92 26q-112 35 -196 35q-53 0 -77 -20t-24 -48h236v-206h-246v-60h246v-209h-238q0 -32 29 -52.5t84 -20.5q78 0 186 34l92 27l37 -285l-90 -26q-139 -41 -274 -41 q-184 0 -304 95t-137 269h-104z" />
<glyph horiz-adv-x="796" d="M59 1053q0 221 310 221h71v4q0 27 -14.5 36t-48.5 9q-83 0 -184 -33l-84 -26l-31 200l82 25q139 41 250 41q284 0 284 -240v-256l66 -43l-96 -166l-68 35q-43 21 -92 8l-29 -8q-74 -22 -162 -22q-119 0 -186.5 57t-67.5 158zM315 1061q0 -19 14.5 -30t35.5 -11 q30 0 59 10l20 8v66h-65q-64 0 -64 -43z" />
<glyph horiz-adv-x="788" d="M70 1001v746l266 47v-281q38 15 94 15q154 0 224.5 -85t70.5 -253q0 -162 -90 -256t-250 -94q-127 0 -219 32q-54 22 -75 50t-21 79zM336 1049q10 -2 39 -2q90 0 90 139q0 71 -20 103t-62 32q-7 0 -47 -8v-264z" />
<glyph horiz-adv-x="706" d="M59 1184q0 166 92 256t244 90q81 0 191 -31l63 -18l-26 -213l-62 18q-9 2 -30.5 8.5t-36 10t-34 7t-34.5 3.5q-96 0 -96 -131t96 -131q50 0 135 26l62 19l26 -209l-63 -21q-92 -30 -191 -30q-152 0 -244 90t-92 256z" />
<glyph horiz-adv-x="788" d="M59 1184q0 166 75.5 255t227.5 89q48 -1 87 -15v234l266 47v-793q0 -46 -24 -78t-66 -46q-109 -37 -224 -37q-162 0 -252 90t-90 254zM319 1186q0 -139 91 -139q29 0 39 2v264q-33 8 -48 8q-42 0 -62 -32t-20 -103z" />
<glyph horiz-adv-x="768" d="M59 1184q0 170 94.5 260t239.5 90q150 0 233 -84.5t83 -249.5q0 -52 -22.5 -74t-76.5 -22h-295q18 -60 113 -60q90 0 176 25l70 21l31 -191l-72 -22q-125 -41 -223 -41q-164 0 -257.5 89.5t-93.5 258.5zM313 1272h142q-2 32 -19.5 51.5t-50.5 19.5q-28 0 -47 -18.5 t-25 -52.5z" />
<glyph horiz-adv-x="600" d="M43 1331v191h78v39q0 114 70.5 170.5t195.5 56.5q104 0 199 -37l-31 -188q-62 24 -109 24q-38 0 -51.5 -9.5t-13.5 -39.5v-16h170v-191h-170v-487h-260v487h-78z" />
<glyph horiz-adv-x="806" d="M59 1294q0 115 83.5 171.5t230.5 56.5h63q78 0 111 10l176 49l43 -184l-84 -23q20 -47 20 -80q0 -103 -81 -155t-226 -52h-26q4 -12 4 -22q0 -16 -6 -27h131q252 0 252 -188q0 -108 -89 -165.5t-258 -57.5q-342 0 -342 209q0 72 43 125l50 65q18 25 18 51q0 18 -11.5 35 t-28 32.5t-33.5 34t-28.5 48.5t-11.5 67zM297 838q0 -25 24.5 -35t81.5 -10q117 0 117 45q0 28 -43 28h-178l-2 -27v-1zM305 1296q0 -55 74 -55t74 55q0 50 -74 50t-74 -50z" />
<glyph horiz-adv-x="774" d="M72 844v905l268 47v-278q42 12 98 12q142 0 201 -64.5t59 -179.5v-442h-268v422q0 43 -39 43q-19 0 -51 -11v-454h-268z" />
<glyph horiz-adv-x="397" d="M55 1669q0 56 37.5 88.5t104.5 32.5t104 -32.5t37 -88.5q0 -55 -37.5 -88t-103.5 -33q-67 0 -104.5 33t-37.5 88zM66 844v680h264v-680h-264z" />
<glyph horiz-adv-x="403" d="M4 627v186q68 0 68 53v658h260v-662q0 -235 -328 -235zM61 1669q0 56 37.5 88.5t104.5 32.5t104 -32.5t37 -88.5q0 -55 -37.5 -88t-103.5 -33q-67 0 -104.5 33t-37.5 88z" />
<glyph horiz-adv-x="792" d="M70 844v905l264 47v-450l121 178h311l-176 -226l172 -454h-301l-74 223l-16 -23q-20 -22 -28.5 -44t-8.5 -60v-96h-264z" />
<glyph horiz-adv-x="411" d="M70 844v905l270 47v-952h-270z" />
<glyph horiz-adv-x="1122" d="M72 844v524q0 46 28 79.5t76 50.5t101 24.5t114 7.5q121 0 184 -39q85 39 193 39q276 0 276 -242v-444h-260v422q0 45 -45 45q-32 0 -53 -11l2 -24v-2v-430h-262v422q0 22 -9 33.5t-34 11.5q-13 0 -47 -11v-456h-264z" />
<glyph horiz-adv-x="813" d="M59 1184q0 164 94 256t255 92t250.5 -91t89.5 -257q0 -164 -92.5 -256t-252.5 -92q-162 0 -253 91.5t-91 256.5zM330 1184q0 -82 18.5 -118t59.5 -36q75 0 75 154q0 153 -77 153q-76 0 -76 -153z" />
<glyph horiz-adv-x="788" d="M70 616v752q0 99 90 127q116 35 225 35q160 0 250 -90t90 -252q0 -167 -75 -256.5t-226 -89.5q-18 0 -88 10v-188zM336 1061l15 -5l32 -5q42 0 62 31.5t20 103.5q0 139 -90 139q-11 0 -34 -4h-5v-260z" />
<glyph horiz-adv-x="788" d="M59 1182q0 162 89.5 255t252.5 93q131 0 234 -39q80 -29 80 -123v-709l-266 -47v242q-42 -12 -95 -12q-154 0 -224.5 85.5t-70.5 254.5zM319 1186q0 -72 20 -103.5t62 -31.5q17 0 48 10v262h-3l-36 2q-43 0 -67 -35.5t-24 -103.5z" />
<glyph horiz-adv-x="559" d="M72 844v522q0 58 24.5 88.5t77.5 42.5q115 33 336 33v-207q-110 0 -180 -18v-461h-258z" />
<glyph horiz-adv-x="727" d="M57 901l35 199l84 -29q115 -39 191 -39q23 0 33 5t10 22q0 6 -10 13.5t-23 10.5l-113 17q-105 15 -155 63t-50 137q0 113 78 172.5t211 59.5q120 0 236 -35l82 -24l-35 -201l-82 28q-107 39 -195 39q-43 0 -43 -28q0 -21 37 -27l109 -16q106 -15 156.5 -63t50.5 -136 q0 -111 -77.5 -171t-213.5 -60q-127 0 -236 36z" />
<glyph horiz-adv-x="624" d="M37 1329v191h78v133l260 45v-178h174v-191h-174v-233q0 -31 14 -43.5t49 -12.5q53 0 107 21l30 -191q-93 -34 -192 -34q-126 0 -197 60.5t-71 176.5v256h-78z" />
<glyph horiz-adv-x="772" d="M72 1083v441h262v-420q0 -20 9.5 -29.5t35.5 -9.5q13 0 47 6v453h272v-520q0 -56 -25.5 -86.5t-80.5 -45.5q-97 -32 -219 -32q-301 0 -301 243z" />
<glyph horiz-adv-x="786" d="M25 1524h284l82 -357l82 357h283l-185 -576q-19 -57 -67 -87t-119 -30q-147 0 -182 117z" />
<glyph horiz-adv-x="1085" d="M35 1524h274l41 -342l60 258q9 40 46 63t91 23t90 -22t45 -64l55 -252l41 336h266l-116 -568q-26 -125 -176 -125q-73 0 -120 30.5t-61 86.5l-30 125l-31 -125q-35 -117 -180 -117q-150 0 -176 125z" />
</font>
</defs>
</svg>
